<mxfile host="Electron" agent="Mozilla/5.0 (X11; Linux x86_64) AppleWebKit/537.36 (KHTML, like Gecko) draw.io/26.0.9 Chrome/128.0.6613.186 Electron/32.2.5 Safari/537.36" version="26.0.9">
  <diagram name="Page-1" id="74b105a0-9070-1c63-61bc-23e55f88626e">
    <mxGraphModel dx="2790" dy="1397" grid="0" gridSize="10" guides="1" tooltips="1" connect="1" arrows="1" fold="1" page="1" pageScale="1.5" pageWidth="1169" pageHeight="826" background="none" math="0" shadow="0">
      <root>
        <mxCell id="0" style=";html=1;" />
        <mxCell id="1" style=";html=1;" parent="0" />
        <mxCell id="ckt6Bek-00qLGqmXfznw-9" value="" style="rounded=1;whiteSpace=wrap;html=1;fillColor=#f8f4fc;dashed=1;dashPattern=12 12;portConstraintRotation=0;container=0;collapsible=0;backgroundOutline=0;movable=0;shadow=0;comic=0;resizable=0;rotatable=0;deletable=0;editable=0;locked=1;connectable=0;" parent="1" vertex="1">
          <mxGeometry x="450" y="185" width="2019" height="1475" as="geometry" />
        </mxCell>
        <mxCell id="ckt6Bek-00qLGqmXfznw-14" value="" style="edgeStyle=orthogonalEdgeStyle;rounded=0;orthogonalLoop=1;jettySize=auto;html=1;entryX=0;entryY=0.5;entryDx=0;entryDy=0;backgroundOutline=0;flowAnimation=1;movable=1;shadow=0;comic=0;" parent="1" source="ckt6Bek-00qLGqmXfznw-7" target="ckt6Bek-00qLGqmXfznw-10" edge="1">
          <mxGeometry relative="1" as="geometry">
            <mxPoint x="374" y="685.5" as="targetPoint" />
          </mxGeometry>
        </mxCell>
        <mxCell id="ckt6Bek-00qLGqmXfznw-7" value="" style="rounded=1;whiteSpace=wrap;html=1;fillColor=#f8f4fc;dashed=1;dashPattern=12 12;comic=0;treeMoving=0;treeFolding=0;autosize=0;backgroundOutline=0;fixDash=0;overflow=fill;movable=1;shadow=0;" parent="1" vertex="1">
          <mxGeometry x="94" y="525.5" width="190" height="320" as="geometry" />
        </mxCell>
        <mxCell id="ckt6Bek-00qLGqmXfznw-1" value="" style="image;aspect=fixed;html=1;points=[];align=center;fontSize=12;image=img/lib/mscae/VirtualMachineWindows.svg;movable=1;shadow=0;comic=0;" parent="1" vertex="1">
          <mxGeometry x="161.53" y="600.5" width="54.95" height="50.55" as="geometry" />
        </mxCell>
        <mxCell id="ckt6Bek-00qLGqmXfznw-2" value="" style="image;aspect=fixed;html=1;points=[];align=center;fontSize=12;image=img/lib/mscae/VM_Linux.svg;movable=1;shadow=0;comic=0;" parent="1" vertex="1">
          <mxGeometry x="161.91" y="720.29" width="54.57" height="50.21" as="geometry" />
        </mxCell>
        <mxCell id="ckt6Bek-00qLGqmXfznw-23" value="" style="edgeStyle=orthogonalEdgeStyle;rounded=0;orthogonalLoop=1;jettySize=auto;html=1;flowAnimation=1;entryX=0;entryY=0.5;entryDx=0;entryDy=0;movable=1;shadow=0;comic=0;exitX=1;exitY=0.5;exitDx=0;exitDy=0;" parent="1" source="ckt6Bek-00qLGqmXfznw-10" target="ckt6Bek-00qLGqmXfznw-32" edge="1">
          <mxGeometry relative="1" as="geometry">
            <mxPoint x="580" y="360" as="targetPoint" />
            <Array as="points">
              <mxPoint x="574" y="686" />
              <mxPoint x="574" y="360" />
            </Array>
          </mxGeometry>
        </mxCell>
        <mxCell id="8vwtGECagpZSi29SmRZv-19" style="edgeStyle=orthogonalEdgeStyle;rounded=0;orthogonalLoop=1;jettySize=auto;html=1;exitX=1;exitY=0.5;exitDx=0;exitDy=0;entryX=0;entryY=0.5;entryDx=0;entryDy=0;movable=1;shadow=0;comic=0;strokeColor=default;align=center;verticalAlign=middle;fontFamily=Helvetica;fontSize=11;fontColor=default;labelBackgroundColor=default;endArrow=classic;flowAnimation=1;" parent="1" source="ckt6Bek-00qLGqmXfznw-10" target="8vwtGECagpZSi29SmRZv-4" edge="1">
          <mxGeometry relative="1" as="geometry" />
        </mxCell>
        <mxCell id="ckt6Bek-00qLGqmXfznw-10" value="" style="rounded=1;whiteSpace=wrap;html=1;dashed=1;dashPattern=12 12;movable=1;shadow=0;comic=0;" parent="1" vertex="1">
          <mxGeometry x="404" y="520.5" width="100" height="330" as="geometry" />
        </mxCell>
        <mxCell id="ckt6Bek-00qLGqmXfznw-11" value="API Gateway" style="text;html=1;align=center;verticalAlign=middle;whiteSpace=wrap;rounded=0;rotation=90;fontSize=24;movable=1;shadow=0;comic=0;" parent="1" vertex="1">
          <mxGeometry x="381.5" y="670.5" width="145" height="30" as="geometry" />
        </mxCell>
        <mxCell id="ckt6Bek-00qLGqmXfznw-15" value="Microservices" style="text;html=1;align=center;verticalAlign=middle;whiteSpace=wrap;rounded=0;rotation=0;fontSize=24;movable=1;shadow=0;comic=0;" parent="1" vertex="1">
          <mxGeometry x="1439" y="221" width="145" height="30" as="geometry" />
        </mxCell>
        <mxCell id="ckt6Bek-00qLGqmXfznw-28" value="" style="shape=image;verticalLabelPosition=bottom;labelBackgroundColor=default;verticalAlign=top;aspect=fixed;imageAspect=0;image=https://www.linuxnaweb.com/images/post/2018/logo-docker-compose.png;movable=1;shadow=0;comic=0;" parent="1" vertex="1">
          <mxGeometry x="475" y="185" width="90.1" height="88.6" as="geometry" />
        </mxCell>
        <mxCell id="ckt6Bek-00qLGqmXfznw-29" value="Client" style="text;html=1;align=center;verticalAlign=middle;whiteSpace=wrap;rounded=0;rotation=0;fontSize=22;movable=1;shadow=0;comic=0;" parent="1" vertex="1">
          <mxGeometry x="159" y="535.5" width="60" height="30" as="geometry" />
        </mxCell>
        <mxCell id="ckt6Bek-00qLGqmXfznw-38" value="" style="group;movable=0;shadow=0;comic=0;resizable=0;rotatable=0;deletable=0;editable=0;locked=1;connectable=0;" parent="1" connectable="0" vertex="1">
          <mxGeometry x="620" y="293" width="310" height="117" as="geometry" />
        </mxCell>
        <mxCell id="ckt6Bek-00qLGqmXfznw-32" value="" style="rounded=1;whiteSpace=wrap;html=1;fillColor=#dae8fc;strokeColor=#6c8ebf;movable=0;shadow=0;comic=0;resizable=0;rotatable=0;deletable=0;editable=0;locked=1;connectable=0;" parent="ckt6Bek-00qLGqmXfznw-38" vertex="1">
          <mxGeometry x="20" y="17" width="290" height="100" as="geometry" />
        </mxCell>
        <mxCell id="ckt6Bek-00qLGqmXfznw-16" value="product-service" style="rounded=1;whiteSpace=wrap;html=1;fontSize=22;movable=0;shadow=0;comic=0;resizable=0;rotatable=0;deletable=0;editable=0;locked=1;connectable=0;" parent="ckt6Bek-00qLGqmXfznw-38" vertex="1">
          <mxGeometry x="75" y="45.5" width="180" height="43" as="geometry" />
        </mxCell>
        <mxCell id="ckt6Bek-00qLGqmXfznw-36" value="" style="shape=image;verticalLabelPosition=bottom;labelBackgroundColor=default;verticalAlign=top;aspect=fixed;imageAspect=0;image=https://static-00.iconduck.com/assets.00/nestjs-icon-512x510-9nvpcyc3.png;movable=0;shadow=0;comic=0;resizable=0;rotatable=0;deletable=0;editable=0;locked=1;connectable=0;" parent="ckt6Bek-00qLGqmXfznw-38" vertex="1">
          <mxGeometry width="40.16" height="40" as="geometry" />
        </mxCell>
        <mxCell id="ovP9QQK4FYpeXRbglFoB-8" style="edgeStyle=orthogonalEdgeStyle;rounded=0;orthogonalLoop=1;jettySize=auto;html=1;exitX=1;exitY=0.5;exitDx=0;exitDy=0;entryX=0;entryY=0.5;entryDx=0;entryDy=0;flowAnimation=1;movable=0;shadow=0;comic=0;resizable=0;rotatable=0;deletable=0;editable=0;locked=1;connectable=0;" parent="1" source="ckt6Bek-00qLGqmXfznw-32" target="ovP9QQK4FYpeXRbglFoB-4" edge="1">
          <mxGeometry relative="1" as="geometry" />
        </mxCell>
        <mxCell id="ovP9QQK4FYpeXRbglFoB-9" value="" style="group;movable=0;shadow=0;comic=0;resizable=0;rotatable=0;deletable=0;editable=0;locked=1;connectable=0;" parent="1" connectable="0" vertex="1">
          <mxGeometry x="1077" y="293" width="115" height="117" as="geometry" />
        </mxCell>
        <mxCell id="ovP9QQK4FYpeXRbglFoB-4" value="" style="rounded=1;whiteSpace=wrap;html=1;fillColor=#dae8fc;strokeColor=#6c8ebf;movable=0;shadow=0;comic=0;resizable=0;rotatable=0;deletable=0;editable=0;locked=1;connectable=0;" parent="ovP9QQK4FYpeXRbglFoB-9" vertex="1">
          <mxGeometry x="15" y="17" width="100" height="100" as="geometry" />
        </mxCell>
        <mxCell id="ovP9QQK4FYpeXRbglFoB-5" value="" style="shape=cylinder3;whiteSpace=wrap;html=1;boundedLbl=1;backgroundOutline=1;size=15;movable=0;shadow=0;comic=0;resizable=0;rotatable=0;deletable=0;editable=0;locked=1;connectable=0;" parent="ovP9QQK4FYpeXRbglFoB-9" vertex="1">
          <mxGeometry x="40" y="37" width="50" height="60" as="geometry" />
        </mxCell>
        <mxCell id="ovP9QQK4FYpeXRbglFoB-7" value="" style="image;aspect=fixed;html=1;points=[];align=center;fontSize=12;image=img/lib/mscae/Cache_Redis_Product.svg;movable=0;shadow=0;comic=0;resizable=0;rotatable=0;deletable=0;editable=0;locked=1;connectable=0;" parent="ovP9QQK4FYpeXRbglFoB-9" vertex="1">
          <mxGeometry width="40" height="33.6" as="geometry" />
        </mxCell>
        <mxCell id="ovP9QQK4FYpeXRbglFoB-10" style="edgeStyle=orthogonalEdgeStyle;rounded=0;orthogonalLoop=1;jettySize=auto;html=1;exitX=1;exitY=0.5;exitDx=0;exitDy=0;entryX=0;entryY=0.5;entryDx=0;entryDy=0;flowAnimation=1;movable=0;shadow=0;comic=0;resizable=0;rotatable=0;deletable=0;editable=0;locked=1;connectable=0;" parent="1" source="ovP9QQK4FYpeXRbglFoB-4" target="ckt6Bek-00qLGqmXfznw-33" edge="1">
          <mxGeometry relative="1" as="geometry" />
        </mxCell>
        <mxCell id="ovP9QQK4FYpeXRbglFoB-11" value="" style="group;movable=0;shadow=0;comic=0;resizable=0;rotatable=0;deletable=0;editable=0;locked=1;connectable=0;" parent="1" connectable="0" vertex="1">
          <mxGeometry x="1310" y="293" width="122" height="117" as="geometry" />
        </mxCell>
        <mxCell id="ckt6Bek-00qLGqmXfznw-33" value="" style="rounded=1;whiteSpace=wrap;html=1;fillColor=#dae8fc;strokeColor=#6c8ebf;movable=0;shadow=0;comic=0;resizable=0;rotatable=0;deletable=0;editable=0;locked=1;connectable=0;" parent="ovP9QQK4FYpeXRbglFoB-11" vertex="1">
          <mxGeometry x="22" y="17" width="100" height="100" as="geometry" />
        </mxCell>
        <mxCell id="ckt6Bek-00qLGqmXfznw-26" value="" style="shape=cylinder3;whiteSpace=wrap;html=1;boundedLbl=1;backgroundOutline=1;size=15;movable=0;shadow=0;comic=0;resizable=0;rotatable=0;deletable=0;editable=0;locked=1;connectable=0;" parent="ovP9QQK4FYpeXRbglFoB-11" vertex="1">
          <mxGeometry x="47" y="37" width="50" height="60" as="geometry" />
        </mxCell>
        <mxCell id="ckt6Bek-00qLGqmXfznw-35" value="" style="shape=image;verticalLabelPosition=bottom;labelBackgroundColor=default;verticalAlign=top;aspect=fixed;imageAspect=0;image=https://cdn.icon-icons.com/icons2/2415/PNG/512/mongodb_original_logo_icon_146424.png;movable=0;shadow=0;comic=0;resizable=0;rotatable=0;deletable=0;editable=0;locked=1;connectable=0;" parent="ovP9QQK4FYpeXRbglFoB-11" vertex="1">
          <mxGeometry x="-3" width="50" height="50" as="geometry" />
        </mxCell>
        <mxCell id="XJ0c2Fo6NnEcJoMAfdMu-12" value="" style="shape=image;verticalLabelPosition=bottom;labelBackgroundColor=default;verticalAlign=top;aspect=fixed;imageAspect=0;image=data:image/png,iVBORw0KGgoAAAANSUhEUgAAAGQAAABkCAYAAABw4pVUAAAAAXNSR0IArs4c6QAAEiBJREFUeAHtXQeUFtUVVmPv5Rh7iRo1x2jsJzFRY0+MsURTTDSmaqyxxQYqUlRUVBBRAWlBIoiNoiB1Wcqy9LK0hYVll6WXpcMufPm/Yebnzf3fzJs3M7sU/3vOf2b+mVfuu3fem/fu/e6bPfbIU14CeQnkJZCXQF4CeQnkJZCXwE4sAQBnALgLQPPMeVcA/QAMANAbQGcAbwFoAOA2AKfuqKYA2A/ABQD+BKApgHYAerq8kt++Lv9sx4MALgdw0I7i16peAKcBaAagDPa0AkB/AE8COMeq4oiJAewJ4CwAdwNoDWAMgM32rKIWwEQATQBcGLH6+kvGJzyjjC6Aw2iM9mmzlLu96KKwlmTSHAbgagAPAWgBoC2AHm4vfNPthY0BfA1gubam5BdLM2U/DODgMF7r5Z4riLXJ2xRawjQATwE4ho0CcASAxwAUZAReE5qzfm+udHtN/Q9pAPYH0C2svUvXbsZXM5bhvVGVePbr2bjv0+l44PMZePGbMrw7sgKDZ6/AsnVWIwYTDwawLqxe23tbtm5F6bL1+HzqErwzogIvDSjDv3vNxJN9SvHMV7PxekE5ekxajLGVq7G5dmuU4ucBuLleeoT7hB7gjvc5zK3eWIvWIypwddvx2OfZwdjr6UHG38kvD8dtXSbj/aJKzF2xIafMur7AB+fx3rNwQIMhRl4PajgEP39/HF4ZPA9ly9ebWOPk4JA6VYz7YuwuOdm6FU5POPqlYcZGmZR0TosiNB5YhtnLjA122Fi7qRaj51ejy7iFeHNYOZoPnef82o5egM+mLMHkhWsiPdms75q24yPz/51nBuHyNmPxZclSsP0BNJMTiTpTSubF3VBWvGpDDW7sMDFyQ0wK8e4f/kJBoFI21GxBu9ELcF27Cdj/OfOTvd9zg3HZu2Oc4WjCgjWyCdn/FOxbhfOxb8Te7fF6/tuj0X9m4JxhGYArU1cKgHPlNHHl+hpc2HJ06so45PmhKJzLd6Sfardsdd4/xzYpTFTnpe8Uo9PYKtRs0T/ag0pXIE5v/0uPaViufy+yu1+dmlLcoWqUKh425qoPxiUSjPeEqUc+zXzhS5q/agN+0npMqvWd+dpI9Jy8WFbl/J+zfD3OfbPIuj6+EwN6IWejl6aiFAA3Sa5f+GaONbOq4IPO+cKUNK5yNZL2iqD6eP2WzpOwaM0mWS0Wr9mEs18fZd3OQ58fit7TluaUB6AKwEmJlQKgUC191tJ1kcbuMCHo7vGlymmoSnzajmpUYC0UXflh105sNhzD561Sq3bO2TO/9+oI6/o5y+RUWkMDEykEwNmy0Ls/LrFmMEwYvHdww6GoWLXRVxWf2lNfsReGqa6g+5z66oYwPoBx3ikHNhiifRdmTC+3xlYKgEaqlBZUbwTH+aBGxb3+fP85ajXO+e3/nZx6PSb++GR/onmv9Jm2FJzqmvLL++zdmjVLnyQKGa9KitNCWWnS/8c1KQQXlSr1nb4s9Xqi8smpNGdakv7TtzQWT3/4aKosiiYfe9sXgEOl0fDK99OfWdE8oRKVw9lKVAHWRTo+2SWL/WY6mk4ublVszReHLvnAZcxAV1j3EgA3qILaWLMlkonBRkA0R0ibVoth5daNtqkzalpaDbgIVWlMxWrs/Yz9kD2sLGdd9UAchTyuMjNi3qrUBfWPntPVKpzFWn2+yE3KoYFR0l97TLOWw4fFC2QxL8VRCB05Weo4psqaEVOD5VTz44mLUq/DxEPYfb7ki+ZXZ2XAk6rVm8BhKCyfvMdeL6h1HIXQhZklzoRkRUn+n9C0MGfdURd2sSQ8Mi+NiJLu/2yGlSyaDpori4ilkJFqKf/sOd2KCZMgHvxihlo8aBuLYiw0lVsX9zntVYnW4aguBvKj6SGt4vSQEpWJ3380JVWFyEZ2Hb8w1fLTVAztaJKubRfdXP9BUaXM3jSOQnz97Fcpmtm5yJKWUVpL0xRi2mXRa6hS++IFkfntVeLvYQAejaMQ3xTj150mRWbAJIwftihS2+ac0/pKXwSfvOf6zQYnEVw1d5uwCK2GV+DP3UtwfNNkpncTX/L+j1uPcVzPbUZW5vhnaOqR6YP+S2UCuDOOQnyD/G+6pGfKoD1MpU21W9B5bFVOr1HT8JyLs/9NXISTmtXdwpHWWuIAZiwxu++PaWz2knLdsmaT3xKRwXxdEkchE1SB8AkNegJsr2tmHWpVxnNOAOjftq3XlP5nbcbmGDnDmKHZx1TmD97wuZK84g6Po5BeXm4eOYyYKo96X2dVVeuKcr5ucy3Oi+FECuKRZqH1m/0rcxMfR7xodg1obFlV1spghgwGqqXKECE9QY2xvT6yPNf34NVFbyStAi2Hz3eGjmaD5jpgAp2w6C+JY4WV/FKwldV+87/Hz/Ql6xwfvmbqGmmBSOCFoN5xFfKAWhBxVrIhcf/PXJo7PnNu/6/PZuCwF4Zq6+HwMLA0F0xwa+fkkw3ixSTRr3+JYkyUU1/6+KPYtfrNJM7BR43iKoQwzSwRNxVXATIfzQ8qEcajWxTSREF719uF88GeQh+JzNt9UnJzC51QKi1ZuxlNBs518GKNBpTh+6+NxM2dJqlJQN+QbJf8zzZpLL03xFXI8SoH9K4SniMrjfNf9pCgGRxNFCYi2C0OD14emnBMxDUTEY0qFVdUG+slaFAQ0YAHxFIIM2UWML7B/qfvjjUy4TU07MjGqBRkQT3r9VGg2d9EFGpYfWH3OLMyEfFncmZIS0NYubz3Wu77o19sZbgK8c3Z7v00HXuWhPrw6Qtq3F0fl/jQhwQeyGGAoLmg/KbrBFeoJHAWzhqCwxUnGSpFWalPWeR3cgF4PKlC3lOZ4IrZ1MAo9yUio6HBkkxAHsf0p/qW4shGBc4sTOXr0V6zYvPFqbNKnM2x1xDqRND1KS9vA1rQNaASIUthbaXXU0PJ4l8y5v971ULTclJxVa4Su3ZY4+Q9mT/K0yrL8P7TXStJ50KWvfqx3uEPgeb9Rwvjnkl7yMUqs3Rp6mZDXuOiHhmSoBJtRVHzMl2Dfn6USlJQBGdVKt3ZbWoOP3wYVTK5I6TzDUCbRMpw3yGMw/NxS2ysjfB0aakAlaggXbqga3//hHE824mND0ob5bqE/uhcARKJEvbeo6FUvosAXJZYIa5SGFOXpYe/DH4BR2k800j/AF+YUfMy3W+7Tsnyw5Opi9Za5Zd1yeGFYQ5ygcrQA5W4PpHleP/5vhPEC8mGK0+bADqqheueHo+RqEea1lV6o8AOafKLD312T8cgGLVuXTpCSbnyVom9UE3LCCuViKBX73vnNOVogo/sQQ2eAuTRDQnO8sJVrVd53KP0FtoaLul7V4lT4bi8ePm+meU3y8hh8Ik+jO/cTkPnrNTWedUH/mm0m+NMKdfY/wGct50NOGNjUjS6XBj+TTyNnpCCjtKCmnTIYj1/7JaDMHQADh4PdGGrRIiod089cgQRVBRb+LqMbnyIbwAl8yoTtuflK/3xhLZoEy5QVaL12JYHmZ6YZcmXOnu74r1xapXOYlUaF7lm0QSH3qeTa6JrmQiqT1VuOiTEaElEoO3MTYKzaVGVAo7znwtPlThT8qLEaGCUJPFZxD4L4jiYfqg0gEfUipKM2YTPSKJXzUaAdOOqZDttDqqLxlMaK1Xy3A7fbTxMveycM/zOK4sWBGnSAdA4UU8IyizfI+TGVoge4zzKHsKgTPW+6XxSlT940xa4Fla+fHmzrXxR63oI41q8suiHF0SP17FBMk10XfceeeiL+OsRBuur9IjF2obAAhlpxfHdE0zSI4chGTxEOKn0h9Ak79XFYB/pp8mEr32YSOimzPI9woWSx5DtURoXuVtC1DIkYoWLuCiB/1HLZzqaRSQx5l0l2ra8MrlLhYZ+ZJJpovtyPVK9sSaST9ljWj1KGCmFyjFaTRN0LgMqkzwYQXUQHyadaFLgnoWaK3pN0GjfRMKOkhnAyQB8y9m4/mxaU+XKmDs4BAnIu87hSk4r6wrx+DthnlEVwtnX6c1HOvy+PDjHTEKP2gVRZJo4DQCfzYKoQk9YtkdpGyLWyhTxyn1JVNLZnGz5CEpPE0hBbqCNUz2HXObjukODhumaWNBRC5BBoETkMQoqqFFh14nokBZRwnrCypNhZmnY1cJ4ZPAQHxRJN7Tf5qHUrMo5Zz49qjwTpwNwvmTujgTRstLRxLLZ63T7jehsRLwWJtA07tE3Iok9h7hfOdsD8E5iIdsWAMBn1LGZIUkBcTHFRaakrzN7bUncLOE+KhHAlgZITvKk+0+YkqQVuT2H07Dj3N9VAO5X9p3sAIA4tyNs5W1MD+BplTmO4+qKVdegsGuMbNWAkZ2ZC2djHMJYvhyruYALKzfNewRgByEbFVlwbMtBVSv3ecp46+uMQrZJAOBEAD5sDsFsSQRA1IjG7OC0hcqS1mHeSHMxaOJduoyFkG3/EgN1to3MjWndrV+zjIxfsDqRQiiQi1oW6+bz2Tp0Jxy2iDipi90lPCVd3943sdSxEedaB6OQbRIAuFFyweBIrxFxjhe8PTqwl8i65H+a35P6aHQ807yuixOhcZOTDzmMenxxZsad7jgLI1xoyJycnSFKbeRtTOvatnz2AtV3oGtc2DUuFCOM0V57tcdR5dWpIGJUPnWoRnWLDVquia5kKAOn8fzpHgzpvwFQYRSybQJ31uATTpxNxmjylnYiX6HuH5pMuJci4/U0PmsnFW1KqkCTnssQBCIRbWd2lAnNTIJ62srbmJ6gYQA+jwyhMjZC4Ng/QPiyVcaJl2K3l+Z5CoVrEOnh49YXNvWb0nLYUYkmdlMe7z555Pa4AcPa9UYBx0kA4B6VYZ5H3U+LDEv0CWMNCTYghJOeOtPTyBWzSrSP6RaVnpBsj9xVTqWoGGL2CoIgAqhjHFlHypPxiO3l7oWerZsetyixd2qQDH0L9IlwoWgjNMJ3JIWZXmzKZjnStOMZFHXlEJJ6T/cSDJm9IiefwuNXAPaNJNy4idyvBvgWROzqYYtFYp7UxrIhukaarp3RPNfPHSXuz1Qu73MTTElE4rOX8EdrMHsyQX+0wWnMKDJ7q8xXGPaOK2erfO7nHnwMcOjRBfjQ+SNN79zoktPeKIJiGuKLGVMiMblkIM52fLp6GQuTEjFe7pdWAk2amJoHkPNI0U7FoYhj6k0dJzrBm2GN5Pas3MqIcFW+tGlWYS/gj8gUGvqIC14oQuLUMtPaXIBT2YTEPWgJDqnbISpIeZkPopyQecnneGsSNso6uy6UQNcDTNe4L3EMooHxy4wB9vYdpghVQe6HXXwLRkOj9DsZGzKF3U5rlweNQriYYNuIteKOZITgM0CRX+Z5wn2X7qPKY6c4d7/xwU8dhRE3tb3DXcvw80d+9HVYzu33aOAcsv3vtjPOvExPf5T7GoUs2SkEHJcJAAz2aZ/5HhUBS8QoMWCbaDN+kMW3K6driiGG+FH3u09EUzO9alXmE0of7ufuV234dR9u1OmjvELiaixiPgCHSwV6Wd3PHvkUkiQiV+05u10P8YRWl0d3ePQpJK1ZVl4hMTQH4EifNug/jbBDj9oTgs7zComnkKOkQnTm7yChh13PKySeQo6WCpHgiDChh93LKyQlheSHrBiCTCsLV8MS6WFjEwvrITKwlGultPjercuhO1QdtvjFnDBBR72nQbQX79aCTKtx7mIzq5Mk+56oyuIeXYK6p8Xzbl2O+y3erOzS2opQs7Vrg91akGk1zv3KdFYhjOtQn/Q45/SpSJ9NrG9+pNXIXakcHQD8tBgf8lIV93TuZyq4B+D+u5JcdhivrmHSh4ZO8h6hN1IDM6rbeMEdJr06qti1EGeHLe6yYPP1ArV3yK383ELtd6Kuo7buEsUycjmrDfeE22+ogo5yTlezDJmjE2qXEMLOxqSMWyGIzgaBwo8Myy82uIvOi3e2tu4S/GTiH2+RvYRxjFGAc4xBlx8nc8uy/87HLiGtemIy49ceJJXCAE2C2HRDFtEs3K9RxYgp+fsD2Pl85PUky1Sq4cd/XdevIlc4cSfcaJM7YxOORIwu9+zSrDW8fIREHpIKU9/2QjIv4WsA+Pfu8MQc7cidjw78tssx1fYzjg9AINo5QC/8ptFDXNekyky+sG0SyOwVeUrmo/IEN5uIq3B+s/GEvOzqQQIuHOnVTK8ZAYAf8yA4j8DdToyeIJSoHtjIV5GXQF4CqUrg/33xu64It6r5AAAAAElFTkSuQmCC;movable=0;shadow=0;comic=0;resizable=0;rotatable=0;deletable=0;editable=0;locked=1;connectable=0;" vertex="1" parent="ovP9QQK4FYpeXRbglFoB-11">
          <mxGeometry width="50" height="50" as="geometry" />
        </mxCell>
        <mxCell id="8vwtGECagpZSi29SmRZv-3" value="" style="group;movable=0;shadow=0;comic=0;resizable=0;rotatable=0;deletable=0;editable=0;locked=1;connectable=0;" parent="1" connectable="0" vertex="1">
          <mxGeometry x="619" y="514" width="695" height="153" as="geometry" />
        </mxCell>
        <mxCell id="oRYPA-zYWW4v42led7em-7" value="" style="group;movable=0;resizable=0;rotatable=0;deletable=0;editable=0;locked=1;connectable=0;" parent="8vwtGECagpZSi29SmRZv-3" vertex="1" connectable="0">
          <mxGeometry x="-1" y="-7" width="310" height="127" as="geometry" />
        </mxCell>
        <mxCell id="8vwtGECagpZSi29SmRZv-4" value="" style="rounded=1;whiteSpace=wrap;html=1;fillColor=#dae8fc;strokeColor=#6c8ebf;movable=0;shadow=0;comic=0;resizable=0;rotatable=0;deletable=0;editable=0;locked=1;connectable=0;" parent="oRYPA-zYWW4v42led7em-7" vertex="1">
          <mxGeometry x="20" y="17.16" width="290" height="109.84" as="geometry" />
        </mxCell>
        <mxCell id="8vwtGECagpZSi29SmRZv-5" value="auth-service" style="rounded=1;whiteSpace=wrap;html=1;fontSize=22;movable=0;shadow=0;comic=0;resizable=0;rotatable=0;deletable=0;editable=0;locked=1;connectable=0;" parent="oRYPA-zYWW4v42led7em-7" vertex="1">
          <mxGeometry x="75" y="43.08" width="180" height="58" as="geometry" />
        </mxCell>
        <mxCell id="8vwtGECagpZSi29SmRZv-6" value="" style="shape=image;verticalLabelPosition=bottom;labelBackgroundColor=default;verticalAlign=top;aspect=fixed;imageAspect=0;image=https://static-00.iconduck.com/assets.00/nestjs-icon-512x510-9nvpcyc3.png;movable=0;shadow=0;comic=0;resizable=0;rotatable=0;deletable=0;editable=0;locked=1;connectable=0;" parent="oRYPA-zYWW4v42led7em-7" vertex="1">
          <mxGeometry width="47" height="46.81" as="geometry" />
        </mxCell>
        <mxCell id="8vwtGECagpZSi29SmRZv-17" value="" style="group;movable=0;shadow=0;comic=0;resizable=0;rotatable=0;deletable=0;editable=0;locked=1;connectable=0;" parent="1" vertex="1" connectable="0">
          <mxGeometry x="1074.5" y="515" width="120" height="115" as="geometry" />
        </mxCell>
        <mxCell id="8vwtGECagpZSi29SmRZv-13" value="" style="rounded=1;whiteSpace=wrap;html=1;fillColor=#dae8fc;strokeColor=#6c8ebf;movable=0;shadow=0;comic=0;resizable=0;rotatable=0;deletable=0;editable=0;locked=1;connectable=0;" parent="8vwtGECagpZSi29SmRZv-17" vertex="1">
          <mxGeometry x="20" y="15" width="100" height="100" as="geometry" />
        </mxCell>
        <mxCell id="8vwtGECagpZSi29SmRZv-14" value="" style="shape=cylinder3;whiteSpace=wrap;html=1;boundedLbl=1;backgroundOutline=1;size=15;movable=0;shadow=0;comic=0;resizable=0;rotatable=0;deletable=0;editable=0;locked=1;connectable=0;" parent="8vwtGECagpZSi29SmRZv-17" vertex="1">
          <mxGeometry x="45" y="35" width="50" height="60" as="geometry" />
        </mxCell>
        <mxCell id="8vwtGECagpZSi29SmRZv-16" value="" style="shape=image;verticalLabelPosition=bottom;labelBackgroundColor=default;verticalAlign=top;aspect=fixed;imageAspect=0;image=data:image/png,iVBORw0KGgoAAAANSUhEUgAAAGQAAABkCAYAAABw4pVUAAAAAXNSR0IArs4c6QAAEiBJREFUeAHtXQeUFtUVVmPv5Rh7iRo1x2jsJzFRY0+MsURTTDSmaqyxxQYqUlRUVBBRAWlBIoiNoiB1Wcqy9LK0hYVll6WXpcMufPm/Yebnzf3fzJs3M7sU/3vOf2b+mVfuu3fem/fu/e6bPfbIU14CeQnkJZCXQF4CeQnkJZCXwE4sAQBnALgLQPPMeVcA/QAMANAbQGcAbwFoAOA2AKfuqKYA2A/ABQD+BKApgHYAerq8kt++Lv9sx4MALgdw0I7i16peAKcBaAagDPa0AkB/AE8COMeq4oiJAewJ4CwAdwNoDWAMgM32rKIWwEQATQBcGLH6+kvGJzyjjC6Aw2iM9mmzlLu96KKwlmTSHAbgagAPAWgBoC2AHm4vfNPthY0BfA1gubam5BdLM2U/DODgMF7r5Z4riLXJ2xRawjQATwE4ho0CcASAxwAUZAReE5qzfm+udHtN/Q9pAPYH0C2svUvXbsZXM5bhvVGVePbr2bjv0+l44PMZePGbMrw7sgKDZ6/AsnVWIwYTDwawLqxe23tbtm5F6bL1+HzqErwzogIvDSjDv3vNxJN9SvHMV7PxekE5ekxajLGVq7G5dmuU4ucBuLleeoT7hB7gjvc5zK3eWIvWIypwddvx2OfZwdjr6UHG38kvD8dtXSbj/aJKzF2xIafMur7AB+fx3rNwQIMhRl4PajgEP39/HF4ZPA9ly9ebWOPk4JA6VYz7YuwuOdm6FU5POPqlYcZGmZR0TosiNB5YhtnLjA122Fi7qRaj51ejy7iFeHNYOZoPnef82o5egM+mLMHkhWsiPdms75q24yPz/51nBuHyNmPxZclSsP0BNJMTiTpTSubF3VBWvGpDDW7sMDFyQ0wK8e4f/kJBoFI21GxBu9ELcF27Cdj/OfOTvd9zg3HZu2Oc4WjCgjWyCdn/FOxbhfOxb8Te7fF6/tuj0X9m4JxhGYArU1cKgHPlNHHl+hpc2HJ06so45PmhKJzLd6Sfardsdd4/xzYpTFTnpe8Uo9PYKtRs0T/ag0pXIE5v/0uPaViufy+yu1+dmlLcoWqUKh425qoPxiUSjPeEqUc+zXzhS5q/agN+0npMqvWd+dpI9Jy8WFbl/J+zfD3OfbPIuj6+EwN6IWejl6aiFAA3Sa5f+GaONbOq4IPO+cKUNK5yNZL2iqD6eP2WzpOwaM0mWS0Wr9mEs18fZd3OQ58fit7TluaUB6AKwEmJlQKgUC191tJ1kcbuMCHo7vGlymmoSnzajmpUYC0UXflh105sNhzD561Sq3bO2TO/9+oI6/o5y+RUWkMDEykEwNmy0Ls/LrFmMEwYvHdww6GoWLXRVxWf2lNfsReGqa6g+5z66oYwPoBx3ikHNhiifRdmTC+3xlYKgEaqlBZUbwTH+aBGxb3+fP85ajXO+e3/nZx6PSb++GR/onmv9Jm2FJzqmvLL++zdmjVLnyQKGa9KitNCWWnS/8c1KQQXlSr1nb4s9Xqi8smpNGdakv7TtzQWT3/4aKosiiYfe9sXgEOl0fDK99OfWdE8oRKVw9lKVAHWRTo+2SWL/WY6mk4ublVszReHLvnAZcxAV1j3EgA3qILaWLMlkonBRkA0R0ibVoth5daNtqkzalpaDbgIVWlMxWrs/Yz9kD2sLGdd9UAchTyuMjNi3qrUBfWPntPVKpzFWn2+yE3KoYFR0l97TLOWw4fFC2QxL8VRCB05Weo4psqaEVOD5VTz44mLUq/DxEPYfb7ki+ZXZ2XAk6rVm8BhKCyfvMdeL6h1HIXQhZklzoRkRUn+n9C0MGfdURd2sSQ8Mi+NiJLu/2yGlSyaDpori4ilkJFqKf/sOd2KCZMgHvxihlo8aBuLYiw0lVsX9zntVYnW4aguBvKj6SGt4vSQEpWJ3380JVWFyEZ2Hb8w1fLTVAztaJKubRfdXP9BUaXM3jSOQnz97Fcpmtm5yJKWUVpL0xRi2mXRa6hS++IFkfntVeLvYQAejaMQ3xTj150mRWbAJIwftihS2+ac0/pKXwSfvOf6zQYnEVw1d5uwCK2GV+DP3UtwfNNkpncTX/L+j1uPcVzPbUZW5vhnaOqR6YP+S2UCuDOOQnyD/G+6pGfKoD1MpU21W9B5bFVOr1HT8JyLs/9NXISTmtXdwpHWWuIAZiwxu++PaWz2knLdsmaT3xKRwXxdEkchE1SB8AkNegJsr2tmHWpVxnNOAOjftq3XlP5nbcbmGDnDmKHZx1TmD97wuZK84g6Po5BeXm4eOYyYKo96X2dVVeuKcr5ucy3Oi+FECuKRZqH1m/0rcxMfR7xodg1obFlV1spghgwGqqXKECE9QY2xvT6yPNf34NVFbyStAi2Hz3eGjmaD5jpgAp2w6C+JY4WV/FKwldV+87/Hz/Ql6xwfvmbqGmmBSOCFoN5xFfKAWhBxVrIhcf/PXJo7PnNu/6/PZuCwF4Zq6+HwMLA0F0xwa+fkkw3ixSTRr3+JYkyUU1/6+KPYtfrNJM7BR43iKoQwzSwRNxVXATIfzQ8qEcajWxTSREF719uF88GeQh+JzNt9UnJzC51QKi1ZuxlNBs518GKNBpTh+6+NxM2dJqlJQN+QbJf8zzZpLL03xFXI8SoH9K4SniMrjfNf9pCgGRxNFCYi2C0OD14emnBMxDUTEY0qFVdUG+slaFAQ0YAHxFIIM2UWML7B/qfvjjUy4TU07MjGqBRkQT3r9VGg2d9EFGpYfWH3OLMyEfFncmZIS0NYubz3Wu77o19sZbgK8c3Z7v00HXuWhPrw6Qtq3F0fl/jQhwQeyGGAoLmg/KbrBFeoJHAWzhqCwxUnGSpFWalPWeR3cgF4PKlC3lOZ4IrZ1MAo9yUio6HBkkxAHsf0p/qW4shGBc4sTOXr0V6zYvPFqbNKnM2x1xDqRND1KS9vA1rQNaASIUthbaXXU0PJ4l8y5v971ULTclJxVa4Su3ZY4+Q9mT/K0yrL8P7TXStJ50KWvfqx3uEPgeb9Rwvjnkl7yMUqs3Rp6mZDXuOiHhmSoBJtRVHzMl2Dfn6USlJQBGdVKt3ZbWoOP3wYVTK5I6TzDUCbRMpw3yGMw/NxS2ysjfB0aakAlaggXbqga3//hHE824mND0ob5bqE/uhcARKJEvbeo6FUvosAXJZYIa5SGFOXpYe/DH4BR2k800j/AF+YUfMy3W+7Tsnyw5Opi9Za5Zd1yeGFYQ5ygcrQA5W4PpHleP/5vhPEC8mGK0+bADqqheueHo+RqEea1lV6o8AOafKLD312T8cgGLVuXTpCSbnyVom9UE3LCCuViKBX73vnNOVogo/sQQ2eAuTRDQnO8sJVrVd53KP0FtoaLul7V4lT4bi8ePm+meU3y8hh8Ik+jO/cTkPnrNTWedUH/mm0m+NMKdfY/wGct50NOGNjUjS6XBj+TTyNnpCCjtKCmnTIYj1/7JaDMHQADh4PdGGrRIiod089cgQRVBRb+LqMbnyIbwAl8yoTtuflK/3xhLZoEy5QVaL12JYHmZ6YZcmXOnu74r1xapXOYlUaF7lm0QSH3qeTa6JrmQiqT1VuOiTEaElEoO3MTYKzaVGVAo7znwtPlThT8qLEaGCUJPFZxD4L4jiYfqg0gEfUipKM2YTPSKJXzUaAdOOqZDttDqqLxlMaK1Xy3A7fbTxMveycM/zOK4sWBGnSAdA4UU8IyizfI+TGVoge4zzKHsKgTPW+6XxSlT940xa4Fla+fHmzrXxR63oI41q8suiHF0SP17FBMk10XfceeeiL+OsRBuur9IjF2obAAhlpxfHdE0zSI4chGTxEOKn0h9Ak79XFYB/pp8mEr32YSOimzPI9woWSx5DtURoXuVtC1DIkYoWLuCiB/1HLZzqaRSQx5l0l2ra8MrlLhYZ+ZJJpovtyPVK9sSaST9ljWj1KGCmFyjFaTRN0LgMqkzwYQXUQHyadaFLgnoWaK3pN0GjfRMKOkhnAyQB8y9m4/mxaU+XKmDs4BAnIu87hSk4r6wrx+DthnlEVwtnX6c1HOvy+PDjHTEKP2gVRZJo4DQCfzYKoQk9YtkdpGyLWyhTxyn1JVNLZnGz5CEpPE0hBbqCNUz2HXObjukODhumaWNBRC5BBoETkMQoqqFFh14nokBZRwnrCypNhZmnY1cJ4ZPAQHxRJN7Tf5qHUrMo5Zz49qjwTpwNwvmTujgTRstLRxLLZ63T7jehsRLwWJtA07tE3Iok9h7hfOdsD8E5iIdsWAMBn1LGZIUkBcTHFRaakrzN7bUncLOE+KhHAlgZITvKk+0+YkqQVuT2H07Dj3N9VAO5X9p3sAIA4tyNs5W1MD+BplTmO4+qKVdegsGuMbNWAkZ2ZC2djHMJYvhyruYALKzfNewRgByEbFVlwbMtBVSv3ecp46+uMQrZJAOBEAD5sDsFsSQRA1IjG7OC0hcqS1mHeSHMxaOJduoyFkG3/EgN1to3MjWndrV+zjIxfsDqRQiiQi1oW6+bz2Tp0Jxy2iDipi90lPCVd3943sdSxEedaB6OQbRIAuFFyweBIrxFxjhe8PTqwl8i65H+a35P6aHQ807yuixOhcZOTDzmMenxxZsad7jgLI1xoyJycnSFKbeRtTOvatnz2AtV3oGtc2DUuFCOM0V57tcdR5dWpIGJUPnWoRnWLDVquia5kKAOn8fzpHgzpvwFQYRSybQJ31uATTpxNxmjylnYiX6HuH5pMuJci4/U0PmsnFW1KqkCTnssQBCIRbWd2lAnNTIJ62srbmJ6gYQA+jwyhMjZC4Ng/QPiyVcaJl2K3l+Z5CoVrEOnh49YXNvWb0nLYUYkmdlMe7z555Pa4AcPa9UYBx0kA4B6VYZ5H3U+LDEv0CWMNCTYghJOeOtPTyBWzSrSP6RaVnpBsj9xVTqWoGGL2CoIgAqhjHFlHypPxiO3l7oWerZsetyixd2qQDH0L9IlwoWgjNMJ3JIWZXmzKZjnStOMZFHXlEJJ6T/cSDJm9IiefwuNXAPaNJNy4idyvBvgWROzqYYtFYp7UxrIhukaarp3RPNfPHSXuz1Qu73MTTElE4rOX8EdrMHsyQX+0wWnMKDJ7q8xXGPaOK2erfO7nHnwMcOjRBfjQ+SNN79zoktPeKIJiGuKLGVMiMblkIM52fLp6GQuTEjFe7pdWAk2amJoHkPNI0U7FoYhj6k0dJzrBm2GN5Pas3MqIcFW+tGlWYS/gj8gUGvqIC14oQuLUMtPaXIBT2YTEPWgJDqnbISpIeZkPopyQecnneGsSNso6uy6UQNcDTNe4L3EMooHxy4wB9vYdpghVQe6HXXwLRkOj9DsZGzKF3U5rlweNQriYYNuIteKOZITgM0CRX+Z5wn2X7qPKY6c4d7/xwU8dhRE3tb3DXcvw80d+9HVYzu33aOAcsv3vtjPOvExPf5T7GoUs2SkEHJcJAAz2aZ/5HhUBS8QoMWCbaDN+kMW3K6driiGG+FH3u09EUzO9alXmE0of7ufuV234dR9u1OmjvELiaixiPgCHSwV6Wd3PHvkUkiQiV+05u10P8YRWl0d3ePQpJK1ZVl4hMTQH4EifNug/jbBDj9oTgs7zComnkKOkQnTm7yChh13PKySeQo6WCpHgiDChh93LKyQlheSHrBiCTCsLV8MS6WFjEwvrITKwlGultPjercuhO1QdtvjFnDBBR72nQbQX79aCTKtx7mIzq5Mk+56oyuIeXYK6p8Xzbl2O+y3erOzS2opQs7Vrg91akGk1zv3KdFYhjOtQn/Q45/SpSJ9NrG9+pNXIXakcHQD8tBgf8lIV93TuZyq4B+D+u5JcdhivrmHSh4ZO8h6hN1IDM6rbeMEdJr06qti1EGeHLe6yYPP1ArV3yK383ELtd6Kuo7buEsUycjmrDfeE22+ogo5yTlezDJmjE2qXEMLOxqSMWyGIzgaBwo8Myy82uIvOi3e2tu4S/GTiH2+RvYRxjFGAc4xBlx8nc8uy/87HLiGtemIy49ceJJXCAE2C2HRDFtEs3K9RxYgp+fsD2Pl85PUky1Sq4cd/XdevIlc4cSfcaJM7YxOORIwu9+zSrDW8fIREHpIKU9/2QjIv4WsA+Pfu8MQc7cidjw78tssx1fYzjg9AINo5QC/8ptFDXNekyky+sG0SyOwVeUrmo/IEN5uIq3B+s/GEvOzqQQIuHOnVTK8ZAYAf8yA4j8DdToyeIJSoHtjIV5GXQF4CqUrg/33xu64It6r5AAAAAElFTkSuQmCC;movable=0;shadow=0;comic=0;resizable=0;rotatable=0;deletable=0;editable=0;locked=1;connectable=0;" parent="8vwtGECagpZSi29SmRZv-17" vertex="1">
          <mxGeometry width="50" height="50" as="geometry" />
        </mxCell>
        <mxCell id="8vwtGECagpZSi29SmRZv-18" style="edgeStyle=orthogonalEdgeStyle;rounded=0;orthogonalLoop=1;jettySize=auto;html=1;exitX=1;exitY=0.5;exitDx=0;exitDy=0;entryX=0;entryY=0.5;entryDx=0;entryDy=0;movable=0;shadow=0;comic=0;strokeColor=default;align=center;verticalAlign=middle;fontFamily=Helvetica;fontSize=11;fontColor=default;labelBackgroundColor=default;endArrow=classic;flowAnimation=1;resizable=0;rotatable=0;deletable=0;editable=0;locked=1;connectable=0;" parent="1" source="8vwtGECagpZSi29SmRZv-4" target="8vwtGECagpZSi29SmRZv-13" edge="1">
          <mxGeometry relative="1" as="geometry" />
        </mxCell>
        <mxCell id="oRYPA-zYWW4v42led7em-1" value="" style="shape=image;verticalLabelPosition=bottom;labelBackgroundColor=default;verticalAlign=top;aspect=fixed;imageAspect=0;image=https://www.svgrepo.com/show/353978/kong-icon.svg;" parent="1" vertex="1">
          <mxGeometry x="376" y="492.5" width="61.95" height="61.95" as="geometry" />
        </mxCell>
        <mxCell id="oRYPA-zYWW4v42led7em-2" value="" style="rounded=1;whiteSpace=wrap;html=1;fillColor=#fff2cc;strokeColor=#d6b656;fillStyle=auto;glass=0;movable=0;resizable=0;rotatable=0;deletable=0;editable=0;locked=1;connectable=0;" parent="1" vertex="1">
          <mxGeometry x="2109.003374689826" y="283" width="248.61662531017373" height="514" as="geometry" />
        </mxCell>
        <mxCell id="oRYPA-zYWW4v42led7em-13" value="observability" style="rounded=1;whiteSpace=wrap;html=1;fontSize=22;movable=0;shadow=0;comic=0;fillColor=#fff2cc;strokeColor=#d6b656;resizable=0;rotatable=0;deletable=0;editable=0;locked=1;connectable=0;" parent="1" vertex="1">
          <mxGeometry x="2152.81" y="306" width="161" height="43" as="geometry" />
        </mxCell>
        <mxCell id="oRYPA-zYWW4v42led7em-6" value="" style="shape=image;verticalLabelPosition=bottom;labelBackgroundColor=default;verticalAlign=top;aspect=fixed;imageAspect=0;image=data:image/png,iVBORw0KGgoAAAANSUhEUgAAArIAAAFqCAYAAADm/LlfAAAAAXNSR0IArs4c6QAAIABJREFUeF7sXQeYXUX9PTNzy3tvayoJaSQkhBAgkNBbKFJVEERp0hQEBJGO/hWpihIpIiIKIigiCCgIghRBaoCEQEInhBAIIclu2pZX7r0z8/9+M+/ubkJIsiUkm537fZvNvnfL3DN39537u+d3DoNbHAIOAYeAQ8Ah4BBwCDgEHALdEAHWDcfshuwQcAg4BNY7BLTWPvA+x4Iqr2VwQeAhipKWnzdqTICRijEWr3cn4AbkEHAIOAS6IQKOyHbDSXNDdgg4BNYOAlrPDLEsyKGhkIWOMmhsrEZzw0ZYtrQ/8k290JyvSYr5mmKhqUZGcW1TU2MGWodKIVBa+koprrX2tNbQWjMitxqIOYPmXIALnjAwyZlImNClkIeRCIJCmM00eNnKZX62YinPVixDZeUS5Crr0at2PjxvGXI1JahMHkOjPGOjSmvn7N1eHQIOAYdA90PAEdnuN2duxA4Bh0AHEdBac2BuiPnFSuQbh8mP5w1PCg2bFJY0DGpetmyjpmWL+xWWLR1QbGzoL4vNVbxUynAZgSURhJTwICG0ApcaSktQwVVrCfpDqrQ23zXQ8p0zZn6G1gBjy70OzZEkCmAcmjMoxiGZh4RzKC8wXxEDWCZXCnKVDV5F5YJsVc2CXHXtworKyvmoyM7rNXTYHNGr6kPken2IAV4jsEnEGFMdhMdt5hBwCDgEuh0Cjsh2uylzA3YIOATWBAFDWmdNG4GGhcPw6adDmxbOG9lYv2Bs0+L6UY3LlgyRzY0VntQccQyZJOAa4JzD4wKCSCdxT2gIMHBLVcGJpBpOan+WqggwZV7TDHY9brel71DavL7id/M+ODgLocwKdqH/Egul7xJU1bVEmH5OtIJSCkSXhRCAJ0D6BOYH0g8rmv2q6rlVffvOqh0w9K2KjYe+h159P8LAQXMweMwHjDG5Jpi5dRwCDgGHQHdDwBHZ7jZjbrwOAYfAZxDQ8+dXoFg3FIvqhy2eN3eLRR9/OKGwcMHW+bp5g0ShsYblm7gXFxGoCCE0As4goMEFLDmkiqnhnqm8lZvXiEgSudVMmPeV0mZ9qq4ST2VcgukYVF0lQruq7xpUuRWt64EjUUSN7ULkmEgz43RcWR6TgmDcvEfb27HSV3l9RscV0MxDSTMU6Yt7iESIkh9Kv6bP0rC2b131gMHv1Q4c/HLtRhtPFwMGfICqvnPYgAHN7lJyCDgEHALdHQFHZLv7DLrxOwR6IAJ65sx+yC/aFO+9vFNx8ac7zv9k3mb1C+ZvVmhoqEQiEQDmq0IICJlAKJIFaHgaEBrm/4opJCyGtuXRlE6WCazRuFriWSaZ9J2IbdufvXKllqqrRD7bfme2LGsqt22/p68TOW2rASCiaqqvdFwqDwOQUpo9EJm2VWAajLJVXKUBycCIZHM6I46EaUjGDGWWRqrAEWuNolJIwOAFISqrqxtre/d636+tebfvFmOnYNCwyRi0yQfov+UixlhrY1oPvK7cKTsEHALdDwFHZLvfnLkROwR6HAJ6yexazP5wu+KHH++47ONPJiz+8KMJDfM+GJpL6uDrgn38z7mpXpIu1fBApcEU6VIVPE2EVBnayYgAlhfJE+gyabRVWW41rlwb4khSAXrdVEJTHlkmlMRTufasjKAtFU4JZ5vX0opv2/U0U4a6ErGlTWy11a5hzkWIlmpxuj2dp2r5q83BqRJM5FfR65YwG6JM8gbGEMvE7AvCrqdUAlmWKBS5QIMfIq6oglfda37VxoNf3WjEmMl9x2w5GQOGTkGvEQ3Msm63OAQcAg6B9RYBR2TX26lxA3MI9FwEtJ7q4105Ln7/7fFLP5y1V93MmROL9QsGeqUCApkg5Bw+U+CK6oyf19u0fCXUVkZbF6aJCNqKa+tClVpD+cwXkU0jGTA61bacrkwaFW3fKg9o34wpaE5VXEuw7UGMCrfl/zRGWixh5WXSbN+n8RjySkVUTfKHtue7wlm1+UufEmENDzHPIQE35FYqhZg4b0UOub795oe9+k0eMm7c49hk5CsYW/MqY9s5y7D2TbBb2yHgEPgCEHBE9gsA2R3CIeAQWD0Cuu7DgfhozphFM9/Zf8Hbr+/fNG/OKC/fmPOjZmRljCxnxjUASWydAow29LNEsrV3KiWgyx+byF9ayeTSX46Gmi1aCGuZyKYEmLVWZVv2qElT23Eia0goVWVbODIrk1lDX8uvE+G2P7eQXEtlP0NkifguT2hbpQ2ffZ1D6Gy56YykFDGkShDrGLFgkGGIZZpBVfVqDAYM/rD3iDHPDho97kFv1BYzWL+h81Y/o24Nh4BDwCGw9hFwRHbtY+yO4BBwCHwOAnrBBxvh3Wm7zZvx2qH177+/W7RgwTDR3IAcFCp8QMsIAD3+Z9TTBEnESilw7sHzPOjEygGWfwC+fOX1szSTXAZSwrdilTYljHbAqbuA/SkllPYnqmymXx2ZYOOSUP4q77GNbMAcoSxnaB2jIenlCjFTdN7c0mjNDaklgp5KDOz2lsim3+kczPvl7XRk6bEp+AqyAdOQOjFyCmMqxjwo5iPhPkpMIBIZ5Hr1/mjwyM0m12y2xaMYt/3jGDTyEydB6MgV4LZxCDgEugIBR2S7AkW3D4eAQ2CNEdDz3+/f/P6bB85/d8b+C159aU++tH6gKEWoFgK9BIcfR9ClArSK4YcBIqoQUte+8KA4h1Sk9bRM0jNErU0Rtc0oeBspwWd0rMYuS0FyInnW/5VYYwvp1a3VUEuU00f8rY/9iRDStm3cs9YYg3RFrtoc05ySEfe2IbDl/5fJa8v7ZUMwIf2y9ddnm8pWbDJLf04rs0wrBNzqcBOloAgLsmIgRwdSLGjSHHsolWLoRIEHIVl9oaS1sf3KB1k01/ar7z96zFMjxm3zsNhk9H/Y8C3ntxsEt4FDwCHgEOgEAo7IdgI8t6lDwCGwZgjoOXN64cO3dq9/dfJXFrz31ldLS+sG+HEeGRZDaAlOBE5JwGhepSGovkcWr7G1uwKHJwIIQc1VHDKxDVgeNTK1Waw0wFYwyz1c5v+tDVJ2ZXrPVFO5akN3l99X6+N8s8VKT5TI4Ira2zVDJN0nVYZX3CKtwNrvrWMvv142rbXbpXTdElmqyFrNMFWPbeXZaHBNBbas6zVjLldqyT5sBfcEki/YxjOGwM9YBS/ZjplquDY3ErRIn0NUBFicL6LABCoGDF0weMy2j/YaO/4+bLrp82zwmEVrjoVb0yHgEHAIdAwBR2Q7hpvbyiHgEFgNAhTPitdf2nrxq1OPmD3lxa8lixaMqtURwqQILypAqMjIBZhHsgFqOCp7p4qyb6rW1naKnoRLBeNuJSmUoOxQIASktBXMFmK23F+01tdXJLI0dLKrMt/LhPCzFczlT5D2kRLglCQTke3oH1EbdECP+j8LJJHQ1S20XRqgYDS/ZckAEVmrAV6eyNL7K76e6KjF2ktqCn+wKWNGf6w1oli2vE+vGVcI8tUl6YGMEZeawTwBHeRQZB4aFEeUrUbl0BEfVA/d9D/D9tn/Dni9XmXDhxdXdz7ufYeAQ8Ah0BEEOvo3uCPHcts4BBwCPQAB/fFrg0qvvPT1+W9PO3ThzLd294p5kUkSZIkEJQl0nMBjPnLZEFFUbLG3IjLqc2H0r7GSKEUk4GRGC2uSrOhRvqQOfWkiYuk9avZanoi2BfizXfwrVj95SyDB8o/mraZ0+X3RtmmCV1eZUn2eLOHz9v95r6+ojTU2Ym1cDNpqZFPCTiQ84/mm2hopiURJW30te9Yy8rOlOF5O1VwGpRMkkgzDpMGewiMCUQEpqapNsgRtfGzN3AGIRIACD/TA0Vs9N3yH3e7F6An/ZCO3+rgH/Aq4U3QIOAS+QAQckf0CwXaHcghsqAhoeg49/bldF0ybfPjc16ceES+cMyAsNaGSx8gSN5IaSkoI+PD9EEpylEolBJnQJlilnq8tZq3CNB9RICsRMisv0EaCQE6vTEsbH2CIbFvSuSorLot+Wlk1cgVpba2WkwfQ8coTlQ5nRcKZEkpLbls1tK3mA2muQKp3tcdJiTOdk93nyprNWq+SVuK6MtnD8h4GtFV6/BaLrVTSW46+bXv9mRHFykoLGIempAjuEY81GuQkiRB4HCqR5uaBbibMuCnxjGkIHiAhvy5KIyNyS5VgJuFx+kmC+vBiEaBJCzTyHIKNBtUPGLvtPwaN3/FebLfPky42d0P9a+DOyyHwxSLgiOwXi7c7mkNgg0JAL5pZjZefO+ijqS+fXDd79h6sudHLqhihTuCbLClyKS2TtXIDlfVvtcTMPh6376cNVSlAK69WpuumkoD2w5lWVi2RTX1kiRS32m2ZcZVlB4bklQ+Tetam0gJ6jysPIrFEVVPwgCCKXYTSsSWFxt0gADkEZLSPJEkQVuVQiAoGm45Ud1e3zcqwWxkZbyXkn3U3sNKEFfFdwUGhLM+w6y0vs7COYQIlclLwfCTCR0OSAGGoR2y2+bO9x+9wC7ad+AjbeHR9+2fRbeEQcAg4BCwCjsi6K8Eh4BBoNwL6nenD66ZP/mb9a08dw+oXbFVatgxBLFHJBQIKdiWNJ0XA6qSsAbVaUCKARHpE+ZG+7fxv9+G7ZIOWQAQiWuVgAkuqyyEIaWpWWcfalsy2ElkbVuAloSGy9Fg9QQTBY3ghNauVjI2V8EJwKVDFMyZ2tuhr5IvNyPpBh4hslwDQBTtpvQkpf6CUMWt7M0LEnQkP3POM9IAkI1QFLlRUIxoy+r0hE3a9q/+48X9mo7ab1QVDcrtwCDgEehgC6+gjpIeh7E7XIbCBIKBnvLB549SnT/rozaknNC34pA+PShBSIgOBCi4QUoNW+VE0pZuSvZV9zL08kU2rrykRWjfw8HIiFlVMW1O8LNG2d/mmckwuCfRthb+WjPxW6fwSoqo+fHJVKEfa0qN1TsVeIsnkeytCJMUSMtT9zxSirEIiNEQsPlOJXjdYdOyoqyOypKWlhSTNZPFlfibJCFl4aYai5MgzHxUDhizZdMed78rtsNctGDPhVedL27H5cFs5BHoiAo7I9sRZd+fsEGgnAvr1l3epf+Hp4+a88twRWDK3thJ5k7AV5npBk5+rIvInweLEvO5R9dX3EMNWZOkRvKGz5bKm1ZW2ygraOZwuW924BhDRKhNukg7QuAIJCPJRLVeOJeOQZZcAOriVGJC+VJvmJ6PzpUwB8+TddvUb/1kjOQACP0ScRBCEhRcjzyII3wNPrJ1Yd11WR2RjmSAIAtPAR81kRGbJoYKcEUwYRBRDhCEalUBdopD0HtA0cMIO/9x0591/z7bd+/nuiosbt0PAIfDFIeCI7BeHtTuSQ6DbIaCnP7tjwzNPn/bhlMlH6qULwowXIyMk/LL/aDEmjagA9QlRAZIkBWQdRZ3u9EKkZQuRJWqXJlERWVwfiKypFnIg4coQVarAEsEiIuspIrKWmCbUwMRoXUtYU4mEVgl8X4BxiUgWjSWVED5CFsJHAC8RxhWrJGOUhESS4VBCIynmIRi1vnUm4nbdX04tvXktNyjLj8k2hpVfK9t6kc0XVamlilERBIijyBLbIERRAY1aIOw3OKocttm/Bn/1a9ezsbs9u+7P1I3AIeAQWF8RcER2fZ0ZNy6HwDpEQL/65K6zn33qB4tfe/XL4bLFuaqkiOpAQKOEYlwwVUhGHe4iB50QgaWnxuRDahkNWTXFpJOlx8jlimxbIsvT/q9yo9e6OlWqrNK4IkHhCOU0KwX4ksMvp1sREaPmfCqupk4DVIE2wQyKvG4pYSyGYsR+SU0gkMQMUUkZkl+RyULm8+AhRz4ke6rYVLArvAwkVbC78bI6IkvWaRRqQbpgY9nFPVORpRsdIRiKzU3wfRuzS1paI0/2A8QIsFRzNOdqigO32/mhYRP3vAHb7vuMkxx044vFDd0hsJYQcER2LQHrdusQ6I4I6Nee3nbRfx85c/7rrx7NGxcHWaHBZQw/9RQl4uYJKK4RS2UiTI2nK2ljKRyAMTCuQVU3oystVzzT8AGrO8VyNlTrCieqCPuaNLwKMUXfloksVWX9xJIrYlZUiSWim9jyrKnSpkSWe1nESQkioUqsrdoWNFAQISLfR5T1dK9splF99El1bcZH4gOlmCQGATxN+lhpvFq76/J5RDYVS1DllQnyBrYJZkRoDaml6jzT8IRNEWM8gO/7xvaLbNm0jo30AqGPukIJqlffZNiE3e/pvfNe17Dx+03trni5cTsEHAJdj4Ajsl2PqdujQ6DbIaDfmzxm4TP/O2PhlBe+xes+ra6REULj1SqhPQ7GqWkJkLEyAQVEZomQUOKWx40a1JyzpnQu8lZlltRRvdNaWdk11ifXAqoie8af1hJVS7atdpe0saSeJe0sVWIjYd0ViHSSdjYT01YcMTxzjj4TUF6AJVKhmMmievjI1zYeNfLfudFD/4dPPhn70T/u/xVvXOwhpMYnBd+rQlyK4Au2QRNZS1iZvbEpV2Xp+jG3CEm5Ic4EtnEkdEMkuPGuZYigZAQtS+BegJLwsTgJEPcZ0jhix73v6LvzPr9lY7d5s9v9orkBOwQcAl2OgCOyXQ6p26FDoPsgoD+cOrDh2adPmfnic9+Xixb0rtESoSrBS4oImdEEmJNJuGcraoyIHpE5S+psaW35imJqU2XiU8sNUmlDk3EDoIpsi4/surTfshVZWui8KPzWSmBNjpXxt5WmWiuhQmHkEqqQIMc8VMKHLEk0K4lsdS8sKSRoDHLIjhn71qYT977Kn7DDA6zX8KVaaz77olOelK9Pm1jDIqgwMdICX2fNjcGKgQjd58pZ+UhX9J1tqcx+7onZSq25CUpDG9r4+TIKxEioqhuC+zk0JBoNCUPvIcMWD95m+xszXzr4d2zo5vO6O25u/A4Bh0DHEXBEtuPYuS0dAt0WAb3wjcrSW9OPfeffD5zPFn46XDc0opIzVAQekJRMqhOROZIOGLpVJnppmABVMomkENFrG92aAtI2WcqSG0sSSRtrsqC0DRlYlz6yhoOTKNOQ6lYSa88hlRzEgA/ko7zpvq8MctBNEfwSMwllSRCiTkoUavomw3ff++qqfQ+exAaPWZTioB/751Fv3PXXO3MLPkCtFyH2I9O9z3QAremRe7e9hFY68PYS2baWZmlCW9vbIqr2mxsNqv5riiS2UgQq3haDKvDBW8zedK8vXe/vMPZmNmBc84aFpjsbh4BDYE0QcER2TVBy6zgENiAE9HP/OnDOk4/8ePFbr++ajRoRMmk0jEwxiEQbCQDpF5mgJidpyGoqC6BIV/NHI62olpOriKSm5NW8XcarpWG97FJgqrGGyLZW4NZVIIKtMNuBklyAKao2G/2AjWJlCWJqO8p5yOfzEOSV62Whiwqe8qC9DJZKhnz/fnWjj/7GGeHeJ/y97WWi9czwg5/e8kj02pS9avRSZEXJBC/EUKaZycTBGruv7quRtbPZdmlNXlvtr4yp5FspCrUJKnjgRjdsbc/oJsO4QGR8RIxuAGIEnjBfuhQjX1JoFpVY5udQNXr05LEHHHAF2+3wh1d7XLeCQ8AhsEEh4IjsBjWd7mQcAp+PgJ75+qZzH33g/xZMe+nYyqUL/UzcjNADhEcPcMvG/Uq3kExyHVB++eE3U6bJyUoK6Bi2omp8WFf4K7IqEmu3bF2IyqwrImttt+xYiKCT3MEQWXqcbXxlyQM3gseZIbFxKYFWHgI/B6kEFkkgHLHZnM2OPvo4tsOXn1kRef3+KxOmX3bl830WLQhzYR7QzcZfVnHy17VElqlSN5cXdI7IanJ6MNcAA1PkqUtklrVJfgM0NdqxGImmJjm6Y1IImIIfZFCUAkXmYYnkiKt7x0N22OXOgbvvfRXbco+33N8Ch4BDoGcg4Ihsz5hnd5Y9GAG9cGElXnriu+88+OC5xbkfbNwnADK+gtYKJSVt8pRK4AkNn8xg6bG6UtBUFaMmJniG6FpyR9QzKdNYkscKQ2bNVoYDlokNIz9ZS3pXfNzcdirWFYmlMaT+sUStW4ksnYI9T6rIUhCVLBVREeQQxQzKC1FkAZaSRdeIzWZvffy3j2Bb7jllZZfXp3def+nC++756cayAOXlEasSFDkiUFU38owVlUZkjtNdl9aEthXP4POqzG1fJ31submOHC/If9gETVjNMn0JHkJKm57GBTPOEJEqIlLUBMbgcQGfB0DsIR8zNLEs/EHD6obsudcvKybudJOTG3TXK8uN2yGw5gg4IrvmWLk1HQLdDgE947GJ7z5w/6WNr02fOAAKlYycBiIUdYxCHKOiug/iuASWROBUHSM/VJUYkuWzANp4aHmQjPSJrZVKTj6yhqSSc6wlr5aU2v+nj8tTKUEKXEpj1iWBTcdi/WHtiHyqBprH2eQna5u8qImNmsF0nCDLM4i0h2YvgwVSwxs8uG67bx1/JNvx4CdXdlForb23rvj+//S0ybv2p8fiKJjQBWqa83kWfoGZljLJ6dF695UWdAmRpeAJJPaaoRuI1LKNbiISBl+QxZv9qKK0OC20uX6p+U5GEXzNUEHREjyLQgIsUQxR337wh494bsxBX76U7fCVJ7rdL64bsEPAIbDGCDgiu8ZQuRUdAt0HAf3u1L5LXnzqwneeeOjM3rI5CEpN8MjKiPw8ISBFBoGfQam5yTyuFUKYaheUtUmixhrTAEXdSG2qrCs6FRj3AW3lBW3JqXUmsHjZPzK2KSyVErRGm667bifrqmArx570zDiJlJPlFn3RaANJZFaAw0cBPhYyATloULL5Afsfm/vKd+/6vCtCv/vyiOm/nfSi/+msfr0RIUny8EMPeXpszgSCAj0eJ+1nm+Sr7nN5tYx0xXjd1mvAkvPP3rC0knZzI1TWU0tGrhit14J1xkgAGSEbUmOcRilOkJD8QwTUhmgs4TKhh1JUgIxiQ3hDP0CUSDTGCnk/g6imd2nTPfb+fe+Je13Jhu8wvxtC7IbsEHAIrAYBR2TdJeIQ2MAQ0E8/ctD7jz30syXvvLbNRiICj5Yi4Ao8YCiRFyw5EbAAKtHIUFMXyQ7J77XMMUz6ElVgKV6UGCo1e5UlAumj3xbIWmy0PgtiSmQtm7U7X5+IbGp9ZdwZlHVnsESWCJh91G2CDyQ1u/lozlThQ1GBzfY98JcDv3POD1d12ejn/73HK7+/5unKaCkqdQmqWEAmk0GTNAa08COJLCVYUSf+Zxqmus8F2XkiS1ceyQio6k9SA/LVJS22htARPLrRYBJSkdyD/Ix9KO1DJTZkIU6KIGWBuWdiVgSDRIFLAe2FaBYeFmiG7GZj3972wK9ewHY/7KHug64bqUPAIbAmCDgiuyYouXUcAt0AAT1/ev+l/37kR7Oe+d/pwbLFfr+AgUclMCSmwkiPzFubq6w20epYV1UVpfeWr6KtDIqVSQVWpo1dHyQFreMvd9iTg6xxXaBqdRqKQBVBsh9jKMUxREUOH8kAbPx+T0749hkHswEDVmn1pB/94zGv3H7zHbUx+fLGprpo8SDCrKAENXlZjfFnO/+7wcXWZUOkOUi9ZO1tUno10o2EsUcrX3+thN/OkcEPibnpSCiZzRhOcNOQ6EnbmCjJpytbiYWxRL66Nh6xxz43999n3yvYJtt92mWn4HbkEHAIrFMEHJFdp/C7gzsEugYBPeVfB7724AOT8u+8PbavilElY3ike6VELkbd+faD3n76U7NWmcSpVlLQNSPpTnuxtmKp7IEkEpJbP1kbQQuEwkNTkmAp1ygMHLlowhkX7ce22G7a6s5S3//r81658/ZJvbVAKBNSw5YTw3xLvLyC0ccK6a/mRmJ1R+rJ79P8SdAlLEnyUb4RofkjSQjNoSCZDL2eyWGR5pivBapGj3l73AEHXODt/g1Xne3Jl4879w0GAUdkN5ipdCfSExHQs2fXLnv6X+e9+cLTF6glC/0+iFDLNTwZISkWIPzAEFhjk1UGyGRYGe9S+1i351YELZFtsREjLMoSCPIxJbsxrjSKQYiPmcC4rx9zccWRZ162JtdZ4c6rLn3zH3/7aR94CElOYJwJuCGudAwisoppcGV9U93SEQSUdZgwLgdlZw1rA4yAnDioop4k8H0fhZJEiRwQMtVYkgBhv43l0PHbX1Oz39d/zoYPX9qRo7ttHAIOgfUDAUdk1495cKNwCLQbAf3W5PGz7rzzhqUz391ZxHn0rQigmhcjKTSiMuObD/BiQhUpz8Sv0mKkBKQJpUYaQ2VbI0LbPYBuv0EbIoug3LBmH2dz42lKTmMSjUEWavNt3tj81DMnsiFbLl6T026+45dXvH3/3T/urxl8FZcttih0wbe4k7SASSctWBMwV7FO2jRo1LEtrhlphHKCUHCUoiK1LcL3KyERIp9oxMpHUxCidtwWL2yy75fOZTsd/GInh+I2dwg4BNYRAo7IriPg3WEdAh1FQGvN8dg9p8y8597Lok8/6VsbcOikACmbkctweD5DHMeIkgTcD40PbFp1NTGxbfw612UgQUfPv+u2SzvrqUbtm+o0A1VPKbaWMKNStodFYSW2PPHMY739Dr1jTY9duPu6n7xxzx2XD9DSVGQTkdj9q9DughGRbY3HXdP9uvWWR8DcdJiSeus1nsYekz+vJlsvqnxDQEsNllhbOY4QkdZYRCEVgwYvGXngoReFh0z4A2Pb2W48tzgEHALdBgFHZLvNVLmBOgQAvWjm4E/uvfvnc//zyLH94wjVgQ8ui/QMHIziT5WN8mSegPACxAl9ynstFlqmyljuyCc816/mqy96htsQWW0JJicf3TKRTZhAs+So3XaXJwcddcZBbNQo26G1Bot88ObTX7n95hsG6hhZWTJ+tdRMBh3aSi+LTeW3OzsWrAEMa3UV61FM7hI2lY1+SqOPyQdY8gQRImRyoYkYJpeOfhW1QMxQaighkw1MYtgy38e8sAb9tpv4t1GHH3sBGzxq7loduNu5Q8Ah0KWxUKduAAAgAElEQVQIOCLbpXC6nTkE1h4C+rWndpt1+59vys96Z2yfHENSWIpQ+CgVGhHmQghfoDnfCOF5yIQhmpuKCL1cuRpbDi2g4ZnUqnKzV5onu/aGvR7v2Xrbmmq1to/8mSbtBQUiAEURoiGsxfgTzziE7X3Iv9pzIvrZ+w6d8tvr/jEwbkJWFhBzDWVS0gITwcp1bEhYz5Z2tAfRla9rK7KkZ7YklkgtzanxAqYbthxHc9QM7lm7rigfwdMcFX4WiKV5rSQpGCyLpV4IPnjTN7c6+Igz2cSDVhp00fkRuz04BBwCXY2AI7Jdjajbn0NgLSAQPXjHyW/8655fVi6Y16sXlyghAve0STciLWyiJWIZmWAD41SQaPCEwyPj+HJoQRoAYJOr7CDJomhVEbJr4VTWm10SmSdHB2tBRprYNKHMBiI0+BXAqK1f3OLYC/ZsTzWWTlBPf3LHl6/55QsbNS/klYklsgmnFLQATDN4yhHZrrgQrN8vXcdEZNPKrA26ICKbl0V4Fb55SpFohSwRWKkgizF8To4RHgImoJUC1ciX+SGK/TZu2nifg/5vo8NO/i1j3Th2rSsAdvtwCHQDBByR7QaT5IbYcxHQH3/ce8E//njlwhef/G61bAJXEaAlPJFBTLZOXJoP7baFVZPJpTk8aStV9CFPi+nuLvvJ2uQqtFSyeiLCRIIkNDwyK4g0Qj+DYkHCy4QosiLmeSF2PPXC49ie3/xLe/HRH74zfNrVF79UM++9flUyDwQCJakNkfWFD10qwhcMkkIn3F/h9sJr1k8jhum7qciWr2d6z1Zm7ZMHq5m1Ny202KAOm0gXSw8ZPwCP8+BkU+FxfNJcgOozEP222+2Wod86+gJWu/WSDg3QbeQQcAh8IQi4P6FfCMzuIA6B9iOgZ7429u07br4pfnfGbpWNC1CTEWgm1Z8CAq/apG+BiC19SLfoXe0jVqq0WjJrq1WGyJY/0JOWCFYiAOXu/PYPr9tvkVaoDZEtxQiEjyj2oXwfy3QBetPR748562c7scFjFrX3ZPXs2Zk3/3TNc+ytyRNqkwYS3xqfUzDSyDLwhCJVHZFtL65t16cENqq6ko9sKiuga94GfRCxTQ3nWgM92t400HzESiAIAuhiE5gqoTLno6QSNMUMzdV9EW2yxeTtjjrpVLb5TjM6M1a3rUPAIbD2EHBEdu1h6/bsEOgwAvrFR/d95e5bbw7mfTCsotiAjA8EvkAp0ZCKQ3EfWipkTLOLrU4ZYpbabJWPTIVXa7llqKxdx3z4p4EINpq1Jy4GM84gyAYrKsBDAI0cCsJDPRJs9tVDr6s84adndxSbT2++5tZPH7vrxL6qEVAJwD0IL4e4FCGgFjwiYq4i21F4y5VsW2m1174lsLQYmQH9vNz133ooKsoSEY61gh9mIOMIMi4h6wGeBxRljOaEoyRqEA7ZYu6orx55GvvSl12AQodny23oEFh7CDgiu/awdXt2CHQIgeIjd3xv+v13/iK77NOqWpQQaoVESkgJeCwE93xExF6lQphQxdV2xJvggzKRTStPVJWiqM9Wy/3WR6w0uJ7cNW+agsjnVWgIWQBTDEpUYxk8NNfUyG1OP29HNmH/Vzo0iQCixx/49rRbr/rjRnKZSZgSpFf2MygVish4AlDk8dvRvbvtLGEtNy+WialFJfVM5mUia2Nr2y6pHEcJbbwj6OmG9Q2mSGcNL/DhCR9xkWOp9rGs98Dmbb92+A/FIcfe4JB3CDgE1i8E3J/R9Ws+3Gh6MAJaz84033HfZa899I/z+4sSAplHJIsIRQgvCYyO04egUE7EXgTP5xCR1cGmyV224pqmVdkPeapV2YauNJK1VSfYk31kCbNEwRBZX5UgpYQSFVjMsxCbb/P85t/54ZfY8OHFjl6SJA156Rfnv9arYYGXo1sGpcFEiCgqIut7SOISGO+5FfGO4ppuR9e0X1YNpN6xLTHMZUKbygwM6S1v2JbTCo8hKhbABRAEPpRk5okHyHeWfpEEUJIRdOChMZPD0D33vbZ6/5N+zIYMKXR2/G57h4BDoGsQcES2a3B0e3EIdAoB3Tiz35y/3HH9J/999MghgQaKi0EN05IaUXiAIPLKjVsKsY4QsSK4RxpYciUok6Gy9VALkTXepZbImjpV2aEgfexqqW3P9ZK1RJbB43SDECFWMWJ4WJLpi6EHHnVZn+POuLgzk6oXLqycef0FT0TvTt2xmh51Jwpc+JAqRuh7htByR2Q7DHHqVkDXdWtDV6setiV6ebkIYCKpreuY4GZN1XL7USi1D8Z9EyISxTFEKCF4AhZHaGYcS3K90HeHPR4YeuhR32NDx8/r8ODdhg4Bh0CXIeCIbJdB6XbkEOgYAnrOjBGz/3zrrQunT5nYVzYjI0uoqqpCvliA0gKS0mS1hqACkQcwQd32ianM6rK9liWpttGFFquZTfWDrR/caYWKm6qTXaenLraKLaC1QsAiSC1RZBrNvYeprU65eBe23e4vdRab0u0/n/TeI3efVxkDPskLvMAQWSG00Ti3kK3OHqhHbs9bpDEM9Eti44Xt8wha0o83Wi9dWomsphs9RU13AYTySVUARY14vgcd0N5iCGqMjCN4LEBBMhS9DJpEgNqRo54fecJ3T2Ajd3m/R0LvTtohsB4h4IjsejQZbig9DwH91jPj3//Ln29b/NbrW/X3gSqeQMdFlOIEXpCDLhNO7jFDuBJdMpGbjHxJFTVtCQMaORO0JbPWeshWqlJiaz7aV7Jez0O9ldTQo/0kSUzVTXoMRS5QGjjynbEX3rgdGzCgubPY6Gfv/dK0W657vDrfhAqp4HFhbNMoPpU8f7Xs3BFaNaLWbiolxraLv3Xfn6fFbXvjY9dulZ+Y66Z8U9S6L1v9T6Uq61Lja29EynpYI59Jyql1y2O6om685V36HaFEPHqEEftgCBAISvuSKKkCNI8gNOlnednujiHWzOrRAwE5YMh7Y0794bFs9PYvd24W3dYOAYdAZxBwRLYz6LltHQKdQEC/8ND+r992423ZxiUDWLEAeqDpExlRloHQB7Wx2FpuabUUakmlKr+/smCDlRGNnhqAsLKpogqeojQvIrDcx8JEYfODvvHH2pN/clInprZlU133TtVrv7ryNW/WjBG9JbkVWOJV0ImJEU7lHh05ln20rgx5izm3HsGw3fo+2a6Zjn1uNNOmEdB8pV39REaJ/Enb6BSGaGpqQmXWB5OKHgCYhLiiTqCYLnuvMjCZAdMCghh4OXRgXZNZS6w/a7XVimlrq+OKv0s0dvv7kEbctvrPtmrL7fspdmkaW97zUazpWz/uuJNOYLt+/d8dmUO3jUPAIdB5BByR7TyGbg8OgXYjoJ9+4LDX7rr91tpln9aExUbTaESJXPRlSCwxCbesZQSo+kglUfrXR9HPok6EmHDE8d8JDjnp1q46eN1ffj1p9v13nDdUJPCS2FSAVSCgqZou00a89h/NNDsZxwqFhAMJJbqVKZklsrZK35bIphVbSz4VfNKHCoF8iUH4HhSPoGUMlJTxV00E7Z+IrN0zk1kIRf4LhBsR6DTmt/3j7+5bkA9tSfhoqurTNO6oE09iXzrq7u5+Tm78DoHuiIAjst1x1tyYuzUC+om7j3/prjtu9BctzPURETyy/GHMkFj63pbEOkK7NqdaGYkGJTxJ0j+GOTRU9462PfXciWzCvi921ZH1jKf3mPLzi5/eWDZDoIQ4yiPwM1CqcxpZo3du07hElcKyEsXYTtkqoq3E2uqr7fIn/9SIODRT4EkRPgvgqUrkpUY+pyF8pnqxgBcbGkCSFsUScEijOGUyBDfNhbYS3KObBeEhnwjIXCXyVWFh28OP/j7b/4Q/dtV14/bjEHAIrBkCjsiuGU5uLYdAlyCgH7rzey/fe8f12XyDqCFykOTh0fc2EgIir/T1WVlBlwzB7WQ5BJSpSEaRQiGoQDxk2IItzrlsbEfSvD4PWK1nhrN+dNXLhXde3bomjMBiCl+gJjNimFbj3PGFCGrqk2qbmtKAAOOTS4egljZl097oO71f8ojQJkZXypQPX/dBg2KQAyvmjxm3xYPvPPzESf3CDCPrKTD6is0QaV06XrqsS1lBxzHroi21B86ykIKjAUUszubktkeddkHuwKOv6aIjuN04BBwCa4CAI7JrAJJbxSHQFQhE995y9hv/+Os1VYVGBAxWD0tEoixaTQlseixHZLsC9VXvg3wfPM9DEkk0eBl4W2774maX3LxzVx85vvuWH710960/H+gXUIESVGQDElK9ZUePl2o8PSMjsASTyKupuJbT20hHS1HFafU2tWej97nQSJDFsqgaFUOG1Y846pCvNLzywvEL//vsaTXS7kPzGFKUbDOZccZgsMezSXI9lcwSoQ+0QJRIxGGIRsFQ7wns9M0TfhQc8t1fsvQXu6OT67ZzCDgE1ggBR2TXCCa3kkOgcwgsveO6H37434evrFiyABUqQuDnUIwjU5BrS2RN1Yuab1aQGHTu6G7rlSFgKpZEZEVAWaWo5wJ99tr3tkFn/OLErkZMvzFti+dv+NmUmrqZub4sgo6kIdBSi04RwZREepIIJlVmmdHLljxtpANEYg2RLfdC0Xu0GEUFYJq5moMqxLWj6rc94cSvYHSfd1665JLpAz9dPCyXL0ARyRfkBlCC4tLsm+67wsQ2qvVsIgt4kp6cCCgvMFXuZsSo93OYcORpP8l+5bifdfV15PbnEHAIfBYBR2TdVeEQWMsILP77b3788WP/usKrm4vaUJi4UqYEOPOMCT+4/TVM9bBpwxdpKF1Vdu1NDpHABAyCUdgEsIB5GPbNoy/vdcTZP+3qo2qt+Xs3Xv5g/r/3H9RfNbXOK/M7dajUcsuQWEVfzGhgichSE1ggW8ksVWrz5nAcFRHJEDw0BQGWVPZunnDKD77OdjzwUT35voOfuv6aBzYtlVCtFArU1sUVPB0bO6oSKSGYRhiTc0HPJrJm4ihQw+OIk5KRbCDMYkkSY5mXwQ5fP+bS4PCzLmOUbOIWh4BDYK0h4IjsWoPW7dghACy978YfvfnQPT/v1VSPaiSmY70izCBqLCIMs4iUBBPckNhUF5tWY8nJgPSbblk7CJCdEnWemyYocHzKBDb/9umnZA864Q9r44iLn/rHMbNvvvaOjfKL4PvCXAtUzevM0hpowUEhFzau2EoLiGZ6OoFPN0TQiDhQ8Kn7y0M29pCwEAuCjJ5wwqnHswOO+gttseD3l9708f8ePWWIjKCaGpFkKs3wshTfyxIUfWUqvUG5AtyZsW8I21pLLpJcxCCZOwWUxFTqzgaYKzm2OuKUS6u/9l1HZjeEyXbnsN4i4Ijsejs1bmDdHYH8P35//hv//MtVNXETApWYqh9Vw6iS5anIkAvJREs6UXc/3+42fkNkNTM3CyoqYWFYgfHnXXIw2+GgB9fGueiGeX3f/MnZr2Q+eW9oQASTDPk7ITC1yW1p/LBXTnZrm9imEHANmcQQTKOoNJIgA8/PIi5JLNEZbP61I6/OHXfmeXS+Wmvv7fOPnYFZM8ZUiiK1oyFGBXwpUBGTS4FEwVOIy9ybPjw644O7NjD+ovdpQ0fIGYJq+9pokU17HfNAPrP1XoBtDj7iosw3z/6Z08x+0bPjjtdTEHBEtqfMtDvPLxSB/N9vOuftR+69uqa5HllVhARZFlH1z5rJkw0TVQIdkf1Cp2W5gxGR1coSWZkUsTBbjW3Pv3xfNn7fJ9bWqJr+NOnq9x6+75zeLEKQRJ06DBFZ29CljberdROwFWbb2EVhDyQJsBZjQZBFQ1OEoLoX5hcibLzTLk8NPOb8L7MhQwqGyM58eexbV13+XK9lc2tLcpHR8GpZCT/xkU1sVbfoKVPtTZvM6Dg9OWCjNQbaaodJymE+VLVnCH/RZ6jzK7Hl4adcWHnICVd1asLdxg4Bh8BKEXBE1l0YDoEuRiB59K/fffPu22/y6z5mVaSJJe9ORkSWIaDmEMqFZxRTqskYqUdXZFNd8LrRArchsqqEBZW1RGT3ZFvv/XQXXxItu9NvTR4/+ZorXujdUBdWyWJL1GtHjkckKhbSVEWpakquBS1SCYprhULkSSTQJuo461UibgQahI9k5ND6LY896QA2Yf9X0mPnX3jk0Pdu+Nm9G8slfFmpHhUVVRD5DIT0wbWG4pbEktY2dUggay/zaL1HLjbi1jo52Iq4eerC7O+30SRLjSiXwwLtqYknnPEDdsDxN/RIqNxJOwTWIgKOyK5FcN2uex4C+sm/H/3CHTff1qdhgV+tiEzYKhk0VcxgEpE47IectUH6vPjMnofdF3/G3EwChakliLCwuq/a9twrdmdbTXxhbY2Fmr7e/dUPH26c/L/9NyY3ABW3iVdt31HbEllyESAiRUTWJnaR7EBCBQx50lrDA9cZhOiFj2KJLb595Dm5r512bdsjLnn4jnNn/enaXw1CI5qTJlRlKuDlQzBlnQvIsYAayYi4mQowEWQjbejZRJYpDk8G4Jo0FzYJTfOi+c68AEXNkIfGsorecptjzzg5u883/tS+mXZrOwQcAqtCwBFZd304BLoIAT35kYNf/sO1f801LKzMsQgh2WhRNUsx+BRwoBUSEdnuZu2Vs9t7KgmwoK+sEvtFpZkR8aPKItmfRbyABdX9kvHnTtqVbbnLy110Sax0N6WnHzxm6o2T7hik8hAqMvZYHVlSaQERyqANkaXXqVJqiK4xGGPwvSoUI4HEq0Xl2K2f2/g7h+3HhuxiJAXpMudPv/zd/If/duoQEYFRE2IEZGRorteiHyES2jQzCeUZ+y0jjeGyTGY7cgbde5tUo0wNdmESWMcIxpEIaX/PuUTIPeQLERBUIu9nsDj0o11POOVbbM9j7uneZ+9G7xBYfxBwRHb9mQs3km6MgH79qT1fuP66+3ovm9+7RhWh6QOeyCvZbClutHMU6ZlwqmyRstBqZq3GsGNEphvD1TL0FYnsF0ViDYk2ka3cNExFooi62gHxNmdfsyvbcocpaxNb/fHHvd+65oJX+Jx3NqngGp6p3Ld/SYkUFUn9xF5P1DBPulmrnaUYLwVPZKB0iCWJR1XBeJczzzmA7bjPk22PqPVU/61r73qg8OITBw7QJWREFlFzCSELDFkt+QUk5jG6b6qPgXRENm30IjlB6uJAr8WcblhJOkQRwAq+CBBFHCrIoAExmmv7LNvxexd8nY3f77/tn3W3hUPAIbAiAo7IumvCIdBJBPQH08a9+uurH/Tnzx1SXcojQzZb1GRDH2TCNsOQUwE9kiXvzkTA+nESAVE2PrSnLisS17bEdm2HQhj3CMmheYKCX8Li3oNLW5/3q53ZqO1fXdvzIW+76ldv/Pvuc2u0NI4WHV9scxFXVqNJSyIUSiYBQSErGXwEKMU+6oIMKvfY668jvn/JsSt20Ot583Kv33LpE/rNKTv3iWN4OjSOCqbqK0oAbyaKDOgsuPLBJRnSEnYUXdtTL2D6fbaYk+7dVMHLE2lJLgdTGrkgg6g5No2dUZjBUkr1GzTgk7EnnHIwG3fAtI7PvdvSIeAQsL9/bnEIOAQ6jICeN23YtKsnPYCPPh7XW8fwSyUEnMELPBSiZjBDKEhWwGyDjPbM40fy4zRaRoUeS2QNDpoqWPR43zYrBUojIB0xNcwQMdBEDcgblbCjWKmky7rk7Q0G7TtB7CdY0mdQ85bnXrcTGznujQ5fEGu4oZ7x5ISXrvnZC30Ki4OKuFTWUtPGbTXTqyaIqVuA2aLsWED/Jf110bfEKlNSYCpALKqxqFffpeMuumgiGzFhxorD1HXvVE27+vIp2Q/fHt0rlkiKHvwwRIwStCiAsYJp+GKKNLM+NMpBDoz8phyRTRu8WnAtzwfnHuJCyXpHxxI6rERBJSiwEvgmm7095syff5UNHTVrDS8bt5pDwCGwEgQckXWXhUOggwjopTN6ffDLSfeyTz7YO17agKzHkfEEkigGpXIJn4IOjLGkrdqUK2bGv9Q8+u3ZPpxF4QODhswdMnare2fNnrddob5hJ7ZwqVfLY3iqHmGoESdU5RJIeA5RKUHGVwh9gWK+gCDIQHWqmkkTYBt04iSPaMjopSPP+tUObNMtZnbwkljjzciz9Y3rL344eu5f+w5UBUMMFd3U8MDsQxspiizHF5PetXXXRGCtxRPdADAwo78uywoYJXGR9pjCYxPQ3pojjoagL4bu95Xf1Hz33DNXNkj98Ru9p1z1f+9Vzp/VpzZR4KwWkprvRQFaFCE5NaVRBTtscUewFlw9lcSmKKY3His2vS3fxGlvOkjGQl9kX6bQ6OUgRo57dvQFFx3KqgcvWuOLx63oEHAILIeAI7LugnAIdAABrd8IPvntX29qeOGpE6vzDaZySH6kRCyIxNJijPbL/+/AITb4TcgwPt+3//ytTj51Z2zztTl48YmJcx9/+vSGWW8eHjZ9CB4tQbayAvl8As+vQcbPICk1GM9XjwtQlG/rw9z2w0VEzNhVkQ1aXEAybIuFI35w3Q5sxIg57d9b+7dY+NQ/T5h1yy/+NDhuMA1UUmp4IoRM6DuD1nR29tG9sXlKyWtKZMs/pyEbxJWM/tr8VScVtgaTCZq9LJp6j1i69Uln7cZ22O3NzyWyP7twdq/FH1bnogiC94WUCpwXoHnJyBWIOIeJb75bHW7PfZrQ/tn+7BYlHqLRq0L1+O3vGHb+Vd9mjNFku8Uh4BBoJwKOyLYTMLe6Q4AQKNzzu0um3fvXi2uLS1FLDTueZ0grfaU6zzRy1iG2cgRKwkOdVtj+uNNOZQef9nvDy7QWxQf/cuzsB+68prq4pFciS0giiYwKEQgPUdxsKo2ZwEdMMapE1zr4Vyxt1qFsUZlEUJuMfX/4+TfszDbeuP6LmDO94IONZvzs7GkV8+dsHFJlOZbwvABJrOD7gb2WYLXWKZElqydT2S8nelmNZtm/1DR6WWkBfSd/WRErLAty6L37ATcPOPOy737eeVFF9oXLz/tgo8ZPajL5AgTvDW0qvvkWIkvHDRyR7bJLQzIfBWrCCysw8uBDr+hz1BkXddnO3Y4cAj0IgQ5+BPQghNypOgRWQKDpv/ec+Mqtv795QNwkcipCwKxDgZT0KJh8SUlSoJEkianKumXlCFD1MO8J9B6384P9f3TjwW3X0lP/tdv0m393u1xUP6IaGtWkk81TdRDwMxRkEEGRST+lc3XQi7clXhRAJBPwUdu8Ovz7k3ZNk66+iHlb9ofLr5v95IM/qI6KyJroAm4kBsy4WsBohVMiS2IBsnoyj6mJ3BLxN76x3DhjcE1V0qRMZqkeK8AlQ766f37z75+7D5uw74urIrLPXnHB7MFNn1QHTc3weG8ozYw2VvMICScTL7QQWarQUuW3Jzcqdv76oBuFEIs1Q0NtrZ5w+NGnBged8IfO79ftwSHQsxBwRLZnzbc7204ioF9+eOKUW3/3z4q6+l61LIGgvHtZapEQEIltW5Ht5OE26M2pahhzoGmjTWdtdeFvd2SDl9cJ6vef2vLd39/6QDJr9og+KCIDiZgCBMj1oVSAFwaGbC3fINU+yGhzaosqKoXsljs/P/TyW3Zr3x46t7ae+uSOr9507bMVSz72a7mEkjGoQShJBAQji6sEyli2kbSAiCy5E9AxlUnaIiJP7N6jZC9I4zBAuCoKMWAh8rGHATtNfKjvD686hJFw9nMWPWdOr8mTzprdb/HsmmxzEwSrsbgaIkvkmGJuKZnOM8dzRLZz805bmyhhxUyz4xKu0VDTr2mX0396CJswcTlrtM4fye3BIbBhI+CI7IY9v+7suhABPWvq0Nd/88vH/HlzRlfECXyZmBx7RV32nLdUYtPKrO/7pirrlpUjYCqivkB95UaFbc78xT5s6/GTV1xTv/j4bm//5bZ/6g9e77tRBUPCqJFOgp7EC+53WFaQHoduOiJqiFIMfXfa55H+F1570Bc5XySleP/ys/9bnPHcxD4oQKkifB4gSQLjMkzklHxujUYV1GxFCV3WK9ZYY5HGlx75E5Et++HS+kwGKLEK1LNK7HDq6d9gX/r6vas6L71oZvUrV10yvfKj1zepLhbBUWkrwzyyRJZiaYnamuM7ItsV14jxMSYdNGNIQoZPEwa96YRZ4088e1+2+bjZXXEMtw+HQE9AwBHZnjDL7hw7jYBe+EblB7fe+Hf1+rQDs0uXISRrojimzFl6/tsiISBdI5FXIrau2WvVsBORjZTEAr83tjv5omO8fQ+4c2Vb5P9951Fz7/nzX73FcxivVFBJjKyuhI6JXVF5suOd8ybVCx4amI/h+x56a+UpP/5Opy+Wdu4gevBvJ7/199//oTq/EL4ugcJfmc5BSQaPMyiWrJTIWj2s1cfmJF2ICfJ+ZCQHQczRIKogR273zubfu3AXNmzYklUS2XnzcjNuvuQZ9tbkCf3iCAw5QFLUKt2skbzBuiSQhMF035tqsJMWtHOql1vdVmQl4qQEvzJAM/cwt8QwbPevPjr0iDMOYxtvnO/M/t22DoGegoAjsj1lpt15dhgBrTWrv/XyX3369CPnVC9djGrOESeAn82hGBcNkSVNbNrc5Zq92gE1F5jPKjDq8NMurTri2Es+b8slN1x8/exnHvp+VViALjQjq2vM43RKUOsMkeVMowAPy7wKjP7yNy/LHnfWxe0YfZesqt9/f8iMq897JVP/Qb8KCh+IEmS8WkQlCWGM9VdGZG1VlqQVHhiyRDqZQsFTxskhiAUWezXY6JDjJ/U59pQLVjdQcuF4c9IfH46nPL7PAJ3AUxkkiQK8ska33FRmzRMskaUl9bJd3f7d+59FIA1K4Z5Gc5IHsgEK2kM9q8Ym+x9/3aDjTzlnxeAKh6NDwCGwkt8lB4pDwCGwmsrh//557NSbrrq9d2ExqwhIgEh2TZRfHyLR5WqVA7HdCFhfUo06vxKVX/rqbUNP+9JR1MoAACAASURBVMmJn7cTPfftPm/86apHS69PnjCAMXgqh6hItlydq8hCS+SZjzpRhZ1OOvsUtv/h66TZZtnvrrjtrcfuPr6fV0Il55CRT4pYA4dp9jLyVgWPKqLG/spIVkENYD4VpqO8eQoQ+wFi88iaoT7bL97yout2ZaO3XG3kLt2svf+HS+9ofOpfR/ePm8EihkyYQ0Rxy3TsssF/Slzp2NZHtt3T7jYoI2Cuf+ahKEvgWY7mqIAw9NEkAzRkBmPC4SeeFBz8zT86wBwCDoFVI+Aqsu4KcQisAgH96vPbTP/jdY9UfzprQC8RoSBjRFoi51UiKsbgnvsV6ugFZCJiE4l6Pws2cb+HR5155VdWVYEqPnvvV9/80/X31yxdwnlJoqaiCqWk0ImKLBE0jWYvRL3fBzudcf6BbJcD/tPR8+nMdvq5f+87+fdXPdZPN8AvNMNXPjzug3IRjEMB6V61slHHpJwltwYikhDGwcGHlbMUEg4eZtFQLKJi652fH3L8BfuwUaMoOmy1y9w7f3vFxw/c8uNhiKAKFDzh2xs1s2XZLaG8F0dkVwvnGq0gWIBSFIFnPXMt50JAixCLmgX04M0Xb/Wd0w5k2+zx8hrtzK3kEOihCLhP4R468e60V4+AnjWr5tM7r//3vOce3XWTPlWIi81IjMUR4IsAxDJcRWr1OH7eGkJTRK9CXRCiMH6XF8f98MbdGTPZtCtdtNZ8/nU/vmvBC098o6pQQk3oGRcDW63syGK3o8CAhZUDsMu5F2/Jxu6w0sCAjuy9PdvoxbNqXr/68mfU7Le2ro6bISKJwPOhtK3KUtwsg43ttQlR1j1AMI4kLsAPFQQECs2AqOmDuVEe2x9z8vnssFN/tabjWPrYXae8+aerbxqmChDUAWeixihgmSqv1g4slXE4IrumqK56PcKVmkPDIINYlZCoEoJQoJTEWJh4qNxmr6mbn33hfqx21RrnrhmN24tDoHsi4Ihs95w3N+ovAIH6P/3m+g/+cev3R1ZwlOIioiQGeGCauIg8cUbO847MdnQqiJwJLbEoyKJhs61f3eGy23dYFZGl4+ipz4yfevPVT/VbUlcdFBrBPNY5IssUGvwqLO69yZKdf3TFVmzI6E86ej6d3W7pXb+9YsZ9t/94WACo5gYETEBx39BYT0kTBKHIs5gCHBAY9wBqDEso6SxjH//rgo9Srhp1vXot3e7c/9uFbbbz22s6rmTqk1+e+ptLH+rXuBBVJJspliy+phqbEll7n+GI7Jqiurr1SKrE4NNMMoZ8nKcUC2SzQAE+5pVy2PzAI2+sOfm8M5xednVYuvd7KgKOyPbUmXfnvUoE9GN3f2vKbb//c6/8EtY3K1C3dD6qa3tBlugDh4MKYlGcNxo3V5Xt6MVE/k4Ki4IMGjcZ+8bOP//RBMa2pFrgKpcPfnfFH5qeevjkvvShX9aOrm6blb9PFUeNJSyHwrBxr0/44aTdWJ8+DR3bV+e30jOnbPvcFT95aWC8zA+jJghywGChtddSEmQUJkVs3AKUzprKrGeKygkUNYmRXlZWYL4OkNl59/9uduGkL7VnVHru25u9cvk5U6vr5lRVc8942hrT3nJFlgwiqPEsDWOw+yYXA7d0FAEKtBBUdS9EtgIfCJRUHswnb2qCugZ1YV9sceL3jwv2O/gvHT2O284hsCEj4Ijshjy77tw6hICeM22LN3718yf4nPcG9vE9QBYQ8wTc88FVBkpRylHnuuU7NLANbCObrKWw2M+hNHKr6dtfdvr2jG232rx5/faLE1658qLn+jQvygQUZ6A7IS0QGnU8i8y2+z6y2YW/+CpjjCZ2nSxazwxnX/7r/zS8+vyefYMYTCaIkTWV10wiwVmEyCsZT1etK8C0AFcJPLqpkkUjPghZJebqLDY97pRzen3tuGvbcyJaa/+dC458J/jwnRFBEiMQ3Gp0TUWWksMckW0Pnqtbl67/WGrkgtAQWXI9EWFgvJKlLpqs4UpRgblFhubNtv50+9PP2I+N3P6N1e3Xve8Q6GkIOCLb02bcne8qEdCzZ2c+uO/6e+tf/N+XB/kMurkJoSfgZbJY2twIP6Tnvgy8CGSCDCIddeLRds+eDPogp6alxV4GYuwOL275k9/stiZEkjrsF117wR2fPvffo2s4dfJ3NHRCQXOFhaISg/c96nf9Tjr3e+t6RvR9fzxr+t9uvrY3azAkNeY5Q1hzcUpkC7bRq0xkmYwNkSV9JVX3GM9gcdWA0tbnXLEH23L7djcJLbnmvPvqXnj8sKyM4XO6XbPJadwkh9Glv6Im2VVkO3rNmFQ5cjjzSSKikcQlQ2apyU9oH4J5xmO2kXE0VtYiM2abx8ccc/bBbPjwYkeP6bZzCGyICDgiuyHOqjunDiMQ33vTOdPu/9vVVflFqBYaAWcm+EBJDu4JgCXgWsBXoYmlTROWOnzAbr5hW1mFMc1vx5IS2UWmIrr7E5v/cNL+q4pRbbtr/fJ/vvTyr698tH/UwDOyZHScrZ311OVv16bxpXpO+7NtlqIvY2ulJeqCKmz6zdPOrT7sxGvaMfy1sqp+44WRb/z2l1Ny9R/U5nSMIssYIptNqN5aQlKuyIKkBdoDkxGEYJB0Xp6PZi4gB28xbcwPfrEbGzKELB3atcg7rzl3+r1//lVfj4NHRUOmLLYkMZBgjDiUhrZJIO3at1t5eQTouhSBj3y+CUHggQsGHSUkGAES32hmSRPNAw8FxbGQZTH668f+qPbIU37hsHQIOARaEWjnR4+DziGw4SKgpz674/Qbr/lPZum82tpAIS40QAZWI0gZ96RHpE57GxFq+7fbS942JPRMMlGbE2r7gD/FpS2hbHvulmCSBlSiXlSi317f/NuQ0y48ek3xIQP/t372x6e96U/uVFVsgJ/rjVIkIaRGJuMjHzebG42AhUZTGlP8FaPmMgWmOEUGmCYqMImPeQY7/vjqr7Jtdn9oTY+/Ntd76/r/+6d+/pGv9SnlkXgV0PAgpATokbPRwipwZX1mNegmC8hmatCgND6KipjwzROvqzz67LM7MkY9/T+7Pzfp8mf6FAuolhIZSQ4JHCXBoXkMH8usxEBVANrvdCBFR8a44WxTvuFKXTd0anFGN1mm/g0t6Rr2gRJDs1eBZb0HNow7/XsHse33fn7DwcGdiUOgcwg4Its5/NzWGwgCuq6uatYNV/67+Ma03XvrIrRsAiXulDglJnF4khpruLGLoiUWrf6aGwgE7T6NriCyVNGez7IYftBJv+574ulntWcQS+6/7cw5d/761xtFTVCciJUAj2OEGQ8FWTCNXF4SlIms1eP6OmklslpAC436qr7RuJ/8cku26bYz23P8tbVu/RN3Hz/nlmtuG2BcGTKQmtkkXiahSNPCNISiGFtuInplosFZ1vjhzq/IYLeTztyP7XbY4x0Zn/5w6sCXfn3llMr5cwf1jmIEMXlLcBR9BcVjhLqhTGSrbVXWSIo7qlHuyAg3pG3szZVZWgIn7JMCulE2ARiMQxUTVKosYp7FkmwVkpEjnt/8rNMPYP23bNqQ0HDn4hDoKAKOyHYUObfdBoVA4Z5bfjLt3r9f3jdpQg2PIBMy5NTmQ5zqjkLZhhe7pElLGxQE7T6ZzyOybavUK1ZkV5QiKKExV4XY+pizz80ddmy7Hu3rd2eMeP3qs16uWrygD0sEskT6SgV4HkfE6JG7oIZ+M3+xKBNZldqleZBMICGiMGzz90ecO2nc+pJtrz+cPnzGlT+cUlU3r4/PLIk1FWyKpGWR+YErYV5jXJuKrJYeGoMsmocNmz/hrB9vx4Zs0yEbMdIfz7zmnIeaX37uoH5RDF8JcwMQe3SwCL4qmeYzCZI2OCLb7l+a5TawGm3zO0EykZaGOoWE/HvLjhw8BipZFoWIoSlTgU99H6MP/fKlGx1x7udGOnduXG5rh0D3QsAR2e41X260awEBPeN/O//v6mse61NqrOyDElBYCkY6AooBpc9vZT9krBF9eQDlD5mebr214vmvKLVYFZGltFXqwP+E57DTGZd8g+1x0L3tnd4FV3///oUvPnNItRTIcYEoLhjHKJOExRiYJJ9ZjsTadZqKeqqTlcxDkxbovePE+/tfcPVh65NP57yrzrl/8ZRnD6nWMXxJbDyt1JH9FRFZ3xAgRa4FQpjmoAXMg7/Dro9sdsF1nXJfaHzgljPe/estv+lHQQvmRk5DUkICk/AkFYEZJAusv6ypxrqKbHuv23T9NMyDK8/esBi0gURQVTZBoiVC4SFIBEpFDZWrRlMmi7kc+X0vvPBAtsX+z3T02G47h8CGgoAjshvKTLrz6BACeuEblbP+dMtDC6e8PLGPilErEqhSE6Sn4Pk+qCGeiCyoAUMzEPlShr3ZD29Opkc9OG++vc1ebddXnINahxZX9i1td94Ve7OtdnmhvZOoH//LcZP/eMPtG8cKlUoi0iUjF6CFOsCJahGRpU5/Wuj+JE3IirmHOhVii4OPuix7wnkXt/fYa3N9/ejdx7986w239U8akZUlMCYM6SdyY647HZQrebEh7D4L8bEWGHz4ty7rd/RZnToX/ebLY2dc89NXq5fV+Z4uBzFwqsTCEGiqHprfA3f9d/oSSG/0uCJ7M6uRtdICqsomgM+hkhheDHg8ACd5QSlGUxCgeqttXxj5vXMOYP02b+z0QNwOHALdGAFHZLvx5Lmhdx6B/L03njPtvr9cPYBzhMVmsGIDchkfMVeIJaV32Q9uk2ykiRTRN20+aGgxzUOOyK5x01tbrBLO0UzVvSGjF2xx/s+2Y4NHzW3vjOo5L4946aqfT+k3/9Pe1ZS+RpVDIrKUcqV1ufObmrusNIR6vgTpDVgJeS9EveiN7U76/jfZPt+4p73HXpvrk7xgypWXT+m1+IM+FFlLZWaqKEvqbCeCbq5JS8rpZ60E6ipqMe4HFx/Adtz30c6MTc+bl/vwpkseb3p9yi5VQsOn2w1WMvgxSc1nwjR5keQglT105ng9eVv6e2Lm0cgKUiJr/XqpKqt8jSSJTBNjRZCDLEqUJBBUVGF2DGzxjeN/VHvk6c7FoCdfRO7czZMMtzgEeiQC+s3nxk67YdKTYd1H/SuYRiU1zjQ3IZf1ESmNYiKh/cAQWWr0okeqTBOJBUqe1ckG1Ezeg4lsey+ctljFwkMjfFRutePUoT/9DcXTthtJrTWfde2P/hU/88yX+6pmQ2S1rwHis0KQmtkQQEP8FKUoUdMUEdkCGv0sltWOaBp//kU7r29G83Rec6699J785H8f1jtZBmZkLdwQWWMzJssaWSLlnKEQKyTDRi0a9X+TxrCBo+raOy8rrl/4228uefO+Oy/uy5oRqoJxLDCaWFllrLjMzyaMwllwdQ5rW9dOpUumqc/49VJznUIM0npzaJXAJ//gkkY2zCEpJVgqsmjoP6R+/Bln78O22mNG58bhtnYIdF8EHJHtvnPnRt4JBLSe6n/86wfuqnvuscMGeQoyLkBGBdRksiaas7FQRLaqCoVyspF1LSA6oSGZQsG31jnGkstJBNd4JtpS1ZLwsVRUoP8ue92y8Q8uP3mNd7LCiov+cct5c/96+6SBSRNij6QF/8/edYBJVWTdU/VCd0+AIeekYiIoSQkGzP7mVdFdXbOiYERUQBRJKkFBEMScw5rWrKur62IAUaIgioqIREkzw4TufqHq/269bmZgQaFnhu6Zqfd9803q9+rWqXrvnbp177kCMiZgW2F4QbaX8qgHHllygbmQPIoCOxvFrQ79qeuEOzsx1p50rTLqKHn71YE/vXD/9EZuPkzaDeAM5MVOElkI8jy7sCIhFMY9hDv3fL/lyEfP2J2iEn/WUbnos67zp038ql7hKivbK0rsQFCVu+xAU5YFRFZryf4Zkn/2/+DhkSSy5fGkhTJRWcNkEMJXUlwUL+tFHWSHslHkMWyxspHTo8+bbYdM6McYrdD0oRGofQhoIlv7xlz3mOInP3r57988/dhzjZwikKC+eikndEYDwXdKaKEkIYqPJfktBlPQBnUQv0YeWXoFWUrNoPZCumNy145YUPym7/uwbRulpaUIhULBVriUcKwI1iELvS4ZcBk79W9Pp4qi/H5et29HD5/boGQjEIrB9WKoG66DWEkMzOLwPA9ZVrbK9nJdD9yQkFYca2Eh78hzXml3w6jzU227Ks+TK386eNHIaxfkFa62bUnFCAIiaxgWZBwwFKn1EIPEVmnhoHMuHG39vXJifUmnd9nYRz/2F848shFK4HMqV0s7EhGVAMmVPYlYZP0WSXkaBMly9MQJFiiBDFeQ9KX0gtUOAqlVBDtASilE0qKaEiVNxCnJLzsXHS4fcGnk+POfSdkQfaJGoBojoB9B1XjwtOmpISDX/9x4+ZRxn/s/Ltk/R7iwZLLsZvBSIaedUsRJJAmRt0SJGCRjEpmAk3DDBnFttXd79c+ILOFJRNayLEUoTdNUldI45yg2wtiS01z0vHFoN9alz8LURhOQK1bk/Tpl9Bds1fcdGCjvxUGEh+E7PphhBETaNCF9BJqrJkPccLHeysIBF9xwbd0zLnko1bar8jyKVf35wds/FT8uPCyXPKAy8C8bRghwmCKykqp/mSbyjRx0uWLg+eyEC16pLJsK33jqpuUvTZ/cDKXqkoQdM0IQrkCY2oYPnxYl+i2SMuRlRJYukSiEkIiVpTCYIG8xWDyXFWChwh7BAtqAgU3chtO+008dB998FGvccX3KxugTNQLVFAH9CKqmA6fNTh2Bza8+NnrZcw/f2dqgcpBMvSySMkKUGZ6UhSrTjy3zkCS1HXcUMk/dmpp/JlXYYgYP5LAYg+M4ithuhg233aHfdRk+4kiW1ya/IkgUTBn72LovPrjSFkUIcReU3E8veVXmUwgYpBcrBAQpT5gmovCRn9dEdL95VE/Wsc83FWm7Ks/Nf/juab99/Na19YwYTC+uiCxjlirQoSiO8BANZ6Egt0lJt5tH9mQH91hSWfaQTu+3k4bPzd70W70QJ/UtlSkH33ER4SGlTUdhNprIVgTxRGhBwiubVNegBTItnCkGXy0ilGKFUDJy9OxR/xcCEYOjIC6wCXXQ4dwLxkcuuW5oRazR52oEqiMCmshWx1HTNqeMgPzpmy7fPHDfx1mrv6/f1JJwEhWSSH0geGEkxMgTxVctn14otLVXJoujZIgSpWopASfYFtTHzhAgIklhBJR0RV5Y+tmTQhHZdcJEw75nP9vm2uGXVBQ9+faLA+c///D0XGxFNiUheQIWC7ywwUEeLaqMZcA3LBQRoW170A8dRow/gtVpubmi7VfV+fL9ly+f+8yMJxqiELZfCl956DhsaQN+UOK3yM6B07bDss5X3X4Ia1+5sb6/P3jXC6tnvn9BnvAQUQUZPEjPh0WJX6QMoSrfVVXva/51A9UCEYQSSJ6QNQueJ1SExSa5OCXJBbgc8HiwcFDeWHoGCRecheGzXGys03Brp8G3HMc6HTG35iOne6gRKENAP4L0bKg1CFAm+PqpI15ePfOjcxvxOLKYC1dVOKAY2MDrSkQ20MjkQdRaIqSAHGBJfUd6idh+8PIhD4omsrtWbqCXLhFYP7lQoKCNhGd2nRFB1/63X2Iee9azFZ2Ecv6Xvb6YPOqLRm4+j3jFSshfaXP6RtA+nGBsDQaHWShEBE16HfNq80H3nFfRtqvyfDnvq55fT713Zt3oKjtblqjYbQplsUjP1Q+2nDeaEeT2PvW1fQeN6lfZtsg5/z5p9oxJ/8or2IAGloBHlb2IwzoMnJtqcaCP1BCgeyNQ1EjoG0siqgFpJQ8shQ/Qc4m+0zKbnkFJIhssvIUK08mO5MB0LKxyJHKPP+6ttjfde05lJPyl1it9lkZg7yOgiezex1y3mCYE5Oy3zpg3Y+o/84o2GyEKK1Ce1mALT2lkJsiWco4or0eZp5WkcIKqXkECBsXMJn7THimVdb3zQSUCS0SSJKKUDqqg7WmuwgtKG7Ys7Tzigc6sdaflFZ0SFCc7d+rtP4TXLW+S5RQhRKEMpCcvbCXDFSMSaAIekyiVNmKhBuhy9sVXsLMve7KibVfl+XL19w2+vX/S9+aa+Y1yZTEYC2KybT8RKsEZ1plZaNdvwND6/S4bX9m2yPXrsxfPuOcTLJ5zeCMWgyepBLAJ4QZEVpa5vCu76Rp/vYCwBpJwIco1BYUOBOEDKnIkEZtPnlk66G9EcFVSKt1HAFzTABcSZqkLL5yD9bl5svslV5/Fjj3v7RoPoO6gRiCBgCayeirUCgTkxh9yf3506ofRRV/1qieonlTwcgh0G5OEVgSVnyh0IKCs6sVRFjMbJF8EAuYBbLV9W/XPFBvUy9r3YVimko8iIkuElohsXtc+nzYacfv/VYb0lZSS/TJ5yDuFcz49tZ4fUxn1pk9fliJeUVEMZjM4kCiGDV6vbbzDdUM7so69f870G2D5mOGfFy/+8Ig8sRWck34sh+UFj26XSWzMqo9DB4w4jfU54b2q6Ev03Zf6//rSo4/ULdkEweKqIAh4CFIwmCotUh+pIJBMJqW80bBHCVwU1iTgcMBRZZaT8n5lC2qlXIDgOUUk2LVDcLw4Qp4LywyhECFY+3f5pt11o/uy5s2DLD19aARqOAKayNbwAdbdSxDO91/oP+vJKY+04HGEpYOYRyVoQ0ECiyKywecouSJJVulF4tC2NG33JSRx6KWTjFnT2JYR+uSrNsisLov5Mywb0WgUph0kXlF8rMc4ooaJ/U85e6R1yZ2jKgvHDc9OGrPy3ZfuaIyYSoKiGFliBZZpIO6XgIeophdDIY8ALQ/+svOEUccz1o5WNRl9rHpw0iNbPn+5f56Xr7zbhCN3g+9xBuTnNSs9dOiEPmz/LikrP/wRAHLtsoY/jL19TnjjL/uYLAbfcxGyc1TSFwXW0FGmg0q/BVJR5Rd5yf+XLQC1+HJ5IhuiKoJ0byTCBzwjKAFMz6LkjhEhS7jS5+jvRGSLyZsbCcN0o2A+A4OF1TwLB/W/4brsE/82PaMntjZOI1BJCGgiW0lA6stkLgJy7dqGP99785f2+p/3N50YuCHgkci4D5gq5rDMs5qoPJvwyAZ/3/6FnLn9TIdlQWnNpKoDxfB5kDzQu2TChGlFlH6sqpYWK4UVimCzL1HUsJnfY+Dgo1mXE7+sLLvlf968+OtHxjzTwC1ATiQb0WgcppGFeDSGnKywIlixmIP8rLpocfp5YxtfePOdldV2VV4n/51Xbl7x5MT7m4tCCJuqlUHF/roUU2mYKGm238+d7pnWh+U23VBVdkSfnzJs8Xv/uIe8wiHPQZiH4ToOSGaZSQYu7ESFqkQsueHA577a0aAMe0NY4MJU1fFoWZjURa0qe6vLdYnMBjs8tP8TkNc/f+YEC0VaQnhKJ1kgwiKBzrXvYIthYmvb9r90HTKiN2vS6ffqgoW2UyOQKgKayKaKnD6v2iBQ/Npzt654+bEJjeOFisS68CBM0mwkQhAQWX2khkAyjpg8ROrFagSFJRSmlKQirSBG1ndgGQzCk9hkhiE691jcccTgHpURVpC0XM7/8qhFU2+bWadwPcJ2GK5PXkGLRLgomACu48ODiaJGTWTHa286gnU5aVZqvd67Z5V8+uFZy6ePfqOFm68KcXiQMGApQfwSZsA+uPvn+4x8+OhUSvzubk/kb/Obz3tg3Nzw+uXN6noxcMeHRZXGGFEvBiZscBmUzaXQA9+Iweeu2s1QRNYPKSJLldVUuAmnJDHtld1d/Hf2OcKRVCsoxMOWIeWlNWUcxQA25eZh/9PPuzP3/JvGVqQNfa5GoDogoIlsdRglbWPKCMg1i1vNv3/i59bPy9o0NVww7sEVcaVrSlEFnIQx9VEBBBKViBSBSW4nB3F8dPjklbVtOG4MIXLfuRLrmY2W5144tuHfK9cjKtd93/bHsYPnhdYur0+JSESgvUQxBub6iPsMjpkLa/8OC9v1v70Xa5f5YQWEoVz0Vc8fJgz/snHJBh7nvlqIEZEVZggF4Gh97KmP5V0zqn8FBnG3Ti3450NDlrzw1Lh2NoMsLVRE1if5LVoqKI9sQGRVaAGPQ24jq6QeYYFTth3NDCYhSOgXtODR0nW7Bf4uPkSqEZTMSAtEpaZC8eBSYrPgEG32X9vlxmF9WLsuv1akDX2uRiDTEdBENtNHSNtXIQQKX35w9JLX/3FnC0iEvBikkg8SgTi+EOCGpevFVwjhHRPekiU2neCqLIhLVYUJPAmb2fjdzhWH3Hb7MazrSZ9VsOntTpdSWiuHXrBA/vhtBwoZoRe8B19VoKICAg4PodDMw74nnTY29/LKJdGV2Y8dryVXLW3/0123fF13y+o8n3tKyowWYJ4dxgafofvF/W9gZ/R/sCptUIR6/aLGC8aM+Sby+2+tGxo+3FghYJrKMwzyvKtyzVQ5gbzyrvrOqJ4tykIPyvSYAyJb2yvjVXTMiLyaFqmAxJQyiGGSpqyJqCfUzsc+p507vvFFg3WRhIoCrc/PaAQ0kc3o4dHGVQQBufLbfeZPuGN2aN1vjfPsEES0FJy5sC0DnkPxkxZ8MK0DWwGQk1qYiq6oeNlEzB9zIBnFSDK1xW9bYTgegxQWrPYdv2t129BerNGBVE+2Uo91Ywd8UDL/y5MjHgM3GHzbg+c5iDAbW5GFLXVauYcNvOlI1v3IOZXacBVejGK8V95742z+2w/7mVZiAQYDMSOE9dxGrxuHnMx6n/VhFZqw7dLy7edvmvXMjMntTAc8vjUoMEFElnY2Et5VUj1l6s7ykKjkDIpGJ71lVaHK8CCJ7CZE/7VXNrWRC2JrqdAIbXTElCqIQAhCGrBNA/k+EGvScn3XAUOPYJ36VFjiLjUr9VkagapHQBPZqsdYt5AmBFY9O+nede+8OLQVF/B9CdeNI2KRBIEPL+4gEonAoThKXZkrpRGiUILAwxbEwxJZMVXmNL1hGpCoTgAAIABJREFUAyLrUogBafUyGz5CyHc4Opx+7mT7yttuTqnRPzmp4JERD63/6N0B9YjISg9RizxVQJiFsNaxwDv3nd1p1H1HMKaCO6vFQYU8fh9+5aySJXMOD4UYuO8rj+xWZiO/TgN52NCRB7MDev+wNzojC1bW+278PTOdJbM6tQiTtBpV9iLqqmqnJtQ9pJKSSn6pWGlGJJYqVwlVmCLw1gbxs5rIpjZyCj+KOZYuYNPeA4MvbbiORI5tBooWPIRWx582vn7/u7RXNjWY9VnVAAFNZKvBIGkT9xwB+cOidnOmjZ7VYMNvTfOkC0fQg95HmJtKNoi2uplpqDhZfaSGgCKynLbuic3aYNJQlYiojhYlfNE2OCUDccMAXCDGslBSp7nsfMUNvdkRJ3yVWqt/fJZ8++FbFj33+MTmLofhxRG1opC0eIGB9bIODrx40PW5p583rSrarsprFk649a21s/59Rq7lB2VJZQhbuIV4q/3WHXrjiG6s7cHrqrL98tf2Pn3rrwuffOClRrFCWD4RUoqNDircUaUxOlT5VCpFrJT9A6ko+iKdVFIsUP8nz60S+9dxsqmMnSpTSyEmlEgZAVw1FmG4rg/bChYVLrNQ2qj1xgOuv70PO7jnT6m0o8/RCGQ6AprIZvoIaftSQqDg+Snjf3zzpduawQErLYaRbUNID4bHlEB/KJKNuOsoQquP1BAIiKyrCIzhRxSRNajSU2LbmDxvvikgpYTlG9jshRDp2vfrfa4Zcixr2rQktVb/hMh+9vI5Xz80+bVWMR8RLwbX9uBYDMWCYWte64IeYx7uxpq2+aUq2q7Ka5Y+NGbq8o/fuL4ud2AIFwbC2MzD8A/uOqfTwLuOqyo8d9YnKZfYK8c99mbB3Fn/1wAebOEq7yqFDRBRDariQYUVmAmimiws4irOKmCJhLKFJrEVmja00xF3ooiEg2p5lhlRzzemEu0Uk8WWSC7qn9pvUrNLbh1cocb0yRqBDEVAv8UzdGC0WakjINf+0mbuyJtn1S9Y2zziOuSzSGxnUmlHui6Hx2y1LZ6sWZ56a7X3TCKyPilBUClNNweqlCaPBlnrMJV3juS4FJH1TGw2ctHy/P6j6513+V1VhZpc+Mlhs+4bNad5tBi5LqlTCEQtC2sF0KLvqU+1uO7ey6uq7aq8rnz1oSHzX3liXH3pICI9OC5DYTgPuUee9Hqb60b0q0rprZ2S2W//c/TsSeM/alyyxc52ShBiJKslECVpO4Pik014DgWTkFpBUFRExccqOa6yCnp07dpeHS/VeaPi00HxyQK2WhgEiwgV7pMs4OIJxLPqYmWdRuv6jJrYmzU7SCsYpAq4Pi9jEdBENmOHRhuWKgJrX3962IY3nrun3tYNsFWZrmQcrIABX6WieCyi4jop+YteAPrYcwS2EVlhIORmKyIrDXK0kiiQHZAXQyoPkc1C2JzTKN7x1jGHs46HL9rz1nbvDLl49kGzp45Y2Khwi12Hqh15QHHIxsYGDXHYldcfwXqcWWkFGHbPosr5lPzXcxd/88xDzzR0ixERLjzPwqZwHTQ67bzJLS++sUrijf/M8rWP3/3Y6g/evLIV88FixQjZBlyKi+Y+aPloGCZMJ4iBDbRjKT42qFRlqRCUsgIAf9aW/v//IhAsDoIEy7AbLMpp4Ug40y4JecUtyVAkOPKz62O/U88dVffC60dqLDUCNQ0BTWRr2ojW8v5QOc2vJo2fXffXH/er4xTCMCmGk7Y6SeeShGOjQSwfsgBpkky+yq7Wx54jkIyRpWpNIScbFB4pjajyzBGR9UjHVSkXcAhhI9yhxyctRk8/hTGW0Oba8zb/7Az5y/w230weuyBr84p6ddw4LDeE34WB7KOP+HC/m/9+OmPd3T+7Rib+X3713glzpk34qFG8AFl+HEKE8Hu4Ltr9beBN9c7865R02CxXzD1w4aR7PrdXLW9YDwJhUEy0p8ILopLBtGxwj6p6BdYpMkthB1QK2uPqO4WfaI9saqNHRNblXMme5TiU3CgRt2KgjRGqqqdUsg2GEteHZ0RQ0rTNykNHju7FGu29eOrUeqbP0gjsGQKayO4ZXvrTGY5AyTtPX7vo5WenNSkpRi5c+Cy+HZFVQu20/SaJyGqPbEWGM1AtoHANDtu3AyLLqTQpEVkTgogsJDwS7vdC6HrhVdexsy+t0vrvct1PjRY+MHY2W71o32w3Dht52GTWQdcBA85mR571RkX6m85z5YJPD/1y6t0LGpdsRB3hq4pp68J56DhwaL9Qn5NeS5dtJa9MHTX/H8+OaGuaCLsl8EUMzOaIEmkVEjbschJc5DEM4mdtj4gWbYNrIpvq2BGR9ajELYAc5fkWcExHEVnu22XJd6QvKwys42Hsd/HVN9U9/ZK0LHxS7ac+TyPwZwhoIvtnCOn/VxsE5PpF2UunTvpM/Px919y4h2wD8BALPLHKI0teIdKwpB+C34MKVDq0INVBTib2mFRcQgEcxEN6PIjV48xEEULYmtd8S4/BI7uzAw9ZkWpbu3Oe3LAh57vpoz6JL5t5GG3BF3t5aNLt6C9a337xcYx1rDJP8O7YVpHPyOVftZ81Yczi+vmrQ/WED1ea2JjdGF2G3tuLHdytShQgdsde+evcZosenT5LLF3atgnzYCMGbkhESajCl7CloRY4pFBApJXmBR2mH3gMaTGkj9QQ2NHDnVQKoXvQEKaSPHO4BGMStmAoMEOI73fQt51vuLk3a3pIlSRbptYTfZZGoGIIaCJbMfz02RmEgJz1Vr85M+57pVFpIUIeYNHsZp56gSqOpaiWuS2rWhPYig4eafIGlZwY3EBJVIQS2evBgsGCjfW+jbp9Tnp1n8Fjzqtoi392vpTS+H7c0PdL579zYphLbDCa4JirBvdjx5yeNq/ln9m8O/+Xqxa2mDt57NysVT82rSd9OB5HceN94h3unLYva9Vqze5co6o+E/vwhUGzZ8yY1Fq6qGf6EH4pSjhgmCaoEi3FblL4jmQyWOBQpS9pJvRjNZGt+LgkMKTnHOny0hJBUMU1DlgGYqRqYDDEuIUNdhYOu+z6v7Lj//ZyxdvVV9AIZAYCmshmxjhoKyqIgJRzrWX3vfh26bzPTm7oRhH2GVV+h0d13Wn7ksdVTCxElmqJUchB4sGvdSxTBZ+IrBWUI+VFQWUvP1cRFdeKK0+34RnYEmmIjlcOPpcde8brqba0J+ctu/+uN0pnv3ZWyOII9zjho3YnXn4661h9vbFqEVawst7i++/6lC+bd0g94SLmGmD7dFnXbtik/VnjxsV7gk9lf1au/r7Bz9OnznKXfrt/IxIM9ksRNSUMywL3koURKAnJh2sECUok1ZasAlfZ9tSW6wXJXIGnO2ZREisQ8iwV6kMY00LSNGzE3CgMW4K2I0qFgXpd+37UbNjU0xijG1cfGoHqj4AmstV/DHUP6EW/9IueM+8dPrOpU2jn+R7g+TCYCSFZQGQNkoUCmJ8bZJ0wF5LcRURu9ZEiAkRkKeiRUtADfA0vW5Wl9cyoCi0Qng23Wftf9x9+Tw/W/IBNKTa0R6ctnXL3y4VfvnOeGbbc7jcMOYl1P+3TPbpABn5YrlgR/v6l+z4QCz/vW084KPUthDv1mdVy1IxjqjJ5bnehkG+9MOCb5598qIlbgAjFpnNDibCR1JZB+s1UjoQJTWR3F9Dd+BwJslg+aTkLFNtUYQ0I0QInoRJBl+BCVU1Qes6U0uq6HFtyGns9ht19PDuo98zdaEZ/RCOQ8QhoIpvxQ6QN3B0ENk4b9fBvn7x7dSPbhS0cuLSlaVgqTZriYInIUjIEF5YKL/BB3xWz1TGyuwPwTj5DL07OTbiuC5ubYELCtDg8Kg1LST+hbGyOcex3cr9H6lx9+zUpNrPHp/36xPTnZ7/7xoVHnnzScy3633LJ3tZY3WODd+MEKSVb9uCIf8b++8ZZjbiHAuSgYa/jX28yeNy5u3F6lX9Ebv6pzvzx4z4Pr5zfuY5bgoiVh1g0qrLmKeWPCmXQwoY8sip2WjJd1auCo0JE1qRoAgBxkxQMFHVV8mYUyqFCOnwfhmGAmyaKXBcxM4x8loX9jjruiUYDx1xVE+6NCsKoT68BCGgiWwMGsbZ3Qa5Z0vr7e0d/lf376mamVwhQ7fFQNjyPKghRzJivQgvo4U7bmQIWpIwEWou0FZqoRFXbcdzT/hORlZxBCgbTJ0+QUBWFJOmIMh9RMwvFkUboetGAvuzYs/ea92fBQ5OeW7N85fmnXnbVwaxjx5/3tF+Z+vmfHhn/ZOzf/7isjihBAa+D1if8ZXq9q4dflyn2Rj944dJvn5/yVDMRhyj2ELFDEIL8gJQISLHqUmXUKyIrjGAdSTHW+kgJARVaIAI8ldQdp5ACuhTpZXugBEzSLhCeB2mYcLiBuJ2DAlcir3W7DftedW1PduDRVZp8mVLH9EkagT1EQBPZPQRMfzzzECh679lrFz/+2LR9bAk/TrvXAszODmqOUyweFUHgjiJY9PCXMiCy5L3QRDb18UxWETK4BeFSZGyQ1MOIo3CGTdKCdcBh8w644ca+rHHHvRbH+d2rL05tUr/+jw2PO3la6r3LvDNXPT9twtb3nrk1K1qIfCsPnfpddId13vV3Z4qlpBqyfOqk/0Z//LZ7lhtDjmlB+IZK8gKPJXY/KA7IgM/MQP6O5gy5FPWxxwgoWFVkbJLEBr/RsY3I0sLBc+BTiJVhwQ/nYKsHlEoD3c+/+GZ27oDJe9ywPkEjkGEIaCKbYQOizdkzBKju+6K7Hp5pf7+4Z268ECHThWA+PEmpXhZMQaEFPvwEkQ3embS/GVT2CvIddOb0nqFe9mmfvEKhkKr3bnFy0frgSj+W4XeWjf3OuHh03b9fV2UlaXdmd/GKJYdmt+3wXU1LZvn9jSdv2/zaY+MjpQXYEqqDrn8fcDU77dJHUx27qjhPfvDsFZ8/Pv3x1iEfVjQKhnBQ6c2Iq+IjtO1NRNblYRWrTrGzurJe6iOhwqaUrCCRWA6pUlxpr0mASw+m76nQAk8KxH0JFs5BHCYKYy7qdO7xzb4DR/ZlzZuXpm6BPlMjkH4ENJFN/xhoCyqAgJz/n+O+nHjve/swLyQLNsAOUzwsQ9yjjN0wDFc95uEbJBROcXqq/BS4oBdsQHI1kU11ADiED1hhE6VuCSyLw/Ap6YSh1DdRVK9l6aE33dWLder5baot6PPKENj64cuXr3z2gSdy4sXIj9RHl8uuP5cde+5eUYLY3XGQq1bVXzjljtnhNUv2z42XgskctfUNXqKILMV00sa3yyJK59QSvq6st7vg7vRzyYISFKJB9JXUIKTaHaEYWSkcWJwH8cmeD2ZlwREAM7Ow3orIHtffdiLrdfLHFTJBn6wRSDMCmsimeQB08xVDYNOMcQ+t/vi9AY1lHLZfCo8TYSVVAluVaTRUTXcJdxuRJVpLlW7o/6qWoyayKQ8BV/GxBlVy8ophhwxwx0VcmChi2cjteuS/2gx/4HTGdBByyhCXOzE258PTfpw6+p0ctwQFOY3Qpf+Nx7KemafIUPzm07csfWHaxEYyDkPaQegADzyyFLcZRHBmKy+iIXWJ6NTnBskKJuv/BgUm1DNNLdEpoU6AU4lo4SqvrUr64jZKoi5ycvPwa9RDs5PPeLz5gDuuSt0GfaZGIP0IaCKb/jHQFqSIgFyxpOl3E++em7txVQszWoBQSMAFhRZQjcYQmG/A9AIiS6EFpGMZVBai5KRAkF1XFkoRfHUavTgNJcPrsGKYJmC4LqIIoTC7BQ7565VXsVMveLwiLehzyxCQP8zpvvjeId+ESgpR1KhFvNu1w3qyjn0WZhpG8rcfmv84ecQ8uXJZ0zAnskpb3RRsQl++2hERMlvdp0RkdbJlqiO4PZGl51kyeU6FcFDYAZcQ0oOUPkyTlEUYhCdhG2FshoHSVvus6TxwyGHswK5rU7VCn6cRSDcCmsimewR0+ykj4H367hULH5r4eEtRCu5H4SMOHjbhCAnf4zC5Bdsl+R8kiKyAT094GRBZpWCga72njH8g9WNS8VEIHoVhCjDXQYmRg8JGB27oMnhUD7Zvx98q0IA+tRwCcvWilt+OuPUXc+sWq7RZm4Lut9zVjbXp/EsmghR78r5JS955cVB9SyDkO4pgBeWgKZSHbUu2VMU0dIx6ikNYRmTJE6sKkpTTxaZwAp/iZG1DEVnfcyiEHTmhCJzSOJxIDlabYfS8eMDV7JQLMyrWOkVA9Gm1FAFNZGvpwFf3bkspzWUTbn9LzPvslPrxrQBzIEj0W5XADCpOEVENecELlDyvPqfqQgGRtf3gwU9yNZR9r49UEAi0lDzPQ1Y2h+fHEXdKUBRugNw+Z7/e5saRGaFxmkrPMvEcmb8ib/Ht1//ibvy9nt92//U9bhzWgbXquCUjbV06u+u8SWO/yCtZHQnFimCbuWqemIaE70uYCJMoXuA1TJSQzsR+ZLZNZUSWCyKx9NwrK/Cinm08qPxFGFOIB8XNGoK+c8QNE5vNMLI69Xx/3+FTztQhQJk92tq6XSOgX+F6dlRLBOTi2QfNfWTK7Lz1v9St4xXCoy00eklSaUYVIWaqUo2mT9uXlN0QPNCpCg4d9HdNZCs69BycmZDCU1vH9NJ0mMAGOw8dLh5yYeTkc16saAv6/DIE5Pr12T9MHPT11lW/Hszbd1jefeyFBzJ2DAm1ZuSxatLQd/NnvXNqIyoHTXJ3FE+thC1ccBhBbr3eEanQ2CUJqvLGJnR5A1yDQgk+D5LBCOdA6oySwKDIrMdNbJUGoo3bFne5/p6erEOH7ypkjD5ZI5AmBDSRTRPwutmKIVD6+iODF/zj+fuaiyJERCl8gyXEwMn/SrGvAVElwXDiriqDlwUeW0VkE0kRRGu1Rzb1sWCMCiEAcKKQtokSy0RBg1aruw2f0pu12G9V6lfWZ+6IgJTSXjlmwPu/LVl0XKRT9/k97nywWyajJGe+c/78h0f9o7FXBCFMmKQrTBn1Pi16gpKqwb2ayb3IdNuChXlZbGzwgFPlodXuVPB8U2otCu2kZ1Yqqa44s7BeRtDtggHDQ+dcck+m91bbpxHYGQL6EaLnRbVDgLRjV4ye8Un+gi+PaMR9mDIOzwy8EOSFDdK76CAyG5BYypamg4isKq1KW3GJ6Dz9Ik19CgQLBgHT8+DZFjYwGw37nPByy5vG/TX1q+ozd4YAland8ODtz337xcwLGx929MeH3HLvCZmMlFz/c+NlE4fM8X5e3DbXzobhe7B9KlBCIT5U6Yu8hsH9qo+KI1BWWCJYHAQLheDYFr6hQgzKdLO5EcLvDkdOpyO+aH/RDcez9u3jFbdEX0EjsHcR0ER27+KtW6sEBOT3n3ebP2HUzLpbN2aHpQPGg5ACKnBgUS4JEVQO5aFNytAk/05lHOkBTw99VeVL3wEVGxFOxSV8hCFQbIax2sxBrysHncuO/UtG6ZtWrJOZc3b02fvu/fS9N4a2Ofqk1zsMHJHxMcgFT42f8e0/n7umXU4EvDSqKu2RN9anwiUUBJRYeGYOwtXNkuQiYOdFXWihWXYEnwm8s8HBGEOUhVEQqhfrfuOwPqz7cfOrGwLaXo2Afo3rOVDtENj6z0du/f75GRNaG56SlqHDRyCnFaZKXkLC5QKeEXgiKB6sPJH1SZ0rQWSrXeczyODA62OomMcIB/KlicIWHVZ3u3l4D9au4/oMMrXGmCLffWzAey8+/9ABJ5zxZPvLBl+R6R2Tcz489vPpEz9p65YgXFwIxiyl8+xaRGR9tYOS3BbP9L5knn3B4l0txhM5AKQdqwgqJX6V+560PbhnKV9AUVrAFxB2FvI9A4f85a93sL8PzpiSx5mHt7YoUxHQRDZTR0bbtVMEpJR8yT3XzWQLvjiisYwqZUqK9aLa7ZYwEPbomS7hmAKuQUoFQYUbywtCCRxOSgXBQz5IjtDlaVOdavRSpBruBpPgfhybWBgNj/vbP5peO+xCxnQqeqq4/tF58rNXz/zgyUff7PR/Z09tdf6AG6uijcq8JiktfDv5/s9yvvu6UwOnFC4z4BoMjukoQpVUD6nMNmvPtSiEKhkTm1AmSAQT0EI9qWQQ7EolEuu2SwALiiYImIhxE6H9D/mq1djBRzPW0ak9GOqe1gQENJGtCaNYi/ogf5nX+fO7h37esmRznXB0K0iFnx7mklnKu0NEVkoJz6DEroDI0kM98MhyFSNLRDa54aaJbOqTh4gs1XC3bRt+LIZNoTx0vHzIleZJf3ki9avqM/+QyC74uMe7j8z4utvJZ97d/KyL76gOaP3y+AMPlrz7/HUtZZyUnuFZVOPLAWMSlvLIVodeZKKN2xPZoEph4GndRmQTXln6PalkECSCBZ81aFHheGpnpahei5ION448ih3SS4cXZOJwa5t2iYAmsnpyVCsE5KtTb1r42rOTG5AXMBYF5wElDeJeuQojUI/yhKxP+XjY5OeSf6tWHc9AYwNtXoCbNuIxYGte8/xD753UjTU9cEUGmlsjTJKrlrV4fdIDq/uccsptzU44fWJ16JScO+fUheNvebeFXwBhU4nUUpgGg6XiqzWLrdgYJp9/2+8sJRcHO1skJPMCVJgBqUd4PiJGCOtkCM3Pv3Jwg/P6T6qYTfpsjcDeRUAT2b2Lt26tAghIKa2N4wb8c8ucz06LGJYKGaByB7oyUAVArcCpSs6M+YAZQtzLRqRzz3db3jmJhNV1vEYFcP2jU6kQyOt3Di898vhjbmzS94QZVdRMpV5Wrl7dYPn4mxZba39qRsSJCR/ZVgRuPAgv0Ed6EEgSWYqTpdyCjYjA6n38J/veOu4ERu5yfWgEqgkCmshWk4HSZgJy7dI280fcMC8vf30DGyYoqIDCCDSRTc/sUEQWLlwWQonRAJ3Pveha1u/Kh9JjTe1p9YNJ9/3SrXf3MY179n2qOvSaZMMKJt7y3Po5H10YkgwhBoQsG/FoDMyoDj2omTYm9WUNMHBHosjIwobGrTf1vn3k4Zla+rhmjoTuVUUR0ES2ogjq8/caAvGZ/7xw3rR7n29r+IBL9buEJrJ7Df2dNSTATIkC30CsbrviQ68feiTr0mdhWk2qBY1/9dLzr7c9YJ/Xmnbt/VJ16a58bfp1C1994sH6VJzEdRI7KSoLqbp0ocbZqTyy0odhGOAeEDOysIpH0OeK6y9lJ537TI3rsO5QjUVAE9kaO7Q1r2O/zhj57Ob/vHNRM+lBuBJGoriB9sima6wFDEtgo2/BOOCIBQeOveJwxrq76bKmtrS7YubMG7Ob5K1pfOAhr1WXPsvvPjz86/vGzGxaEg+FHReucGFZFvyEfF516UdNsjNJZKk6nyENeMxCPg+jYZ++TzW7aezlNamvui81GwFNZGv2+NaY3snV3zdYOGXMzOw1yztEigrBua0ybklUXRPZdA2zgJAuNps5aHrSJZObXHnTzemypDa1W7h8eQ8ZMUVe8zbzqku/5dq5WfPuH7swd8Vv7RuDIe47kJzpGNk0DmBZjCxVPzTgSQZhh1HUtO3yDoMn9GBt2uSn0TzdtEZgtxHQRHa3odIfTCcCct77Pb9+cPyXTWNRHoqVKLkt2pbUMbLpHBUBX7jYktMYnfvfeRo76uT30mlNbWlbShlRQh2MxapTn3+YOugV/7+f92vie/BJ8YIWoTq0IG1DqGJkaTEhBCyYEJ6vVGA25DYQBw8ccbTV85gv0macblgjsAcIaCK7B2Dpj6YPAfnWI4PnPP3Qfc04kEOi6hBwXVd5ZfWRHgSUjI/BkV+/5cYOg6f0Yu3bL0+PJbrV6oDAurceuLXwlTcm1C8sgDSZkn4iOquP9CCgCpqoxydHiLLuPBfwYtic2xDNzrl2RL1zLhqTHst0qxqBPUNAs4A9w0t/Ok0I/DS2/wfOoq9PricYTCEUkSVvjhaJqdoBoVrsgdc7KDRBvycPqqpW4vmo0+3oz5uPeOh4xpiuCFS1w1Gtry4Xv3fCgrvHf9SkqBCRLBul8VJwU7+C0jWoRGSjQiASicArKkWWbYCJKNYiBOvwMz88cMg9pzJG+nr60AhkNgL6KZLZ46OtIwK1cWmz7+4ePjdr7YrmYReBWoEhVVUpko7RZLbqp0mSzJYnsg43sVUaaHv82ZPrDBiu42OrfhiqdQvyl28OWDzurq9y16/Jy7ZNeF5Q3Ssp0F+tO1cNjVeV+YxA/8x0PYS4hC9Kkc+z4LQ5bF2n627rxfY5eGU17Jo2uZYhoIlsLRvw6thdufjjE+aMv+Nfrdw4Z3ESUBdACHA8V8V2aSJbtaOaJLHUChHZpJc2ZoRQYOeiy0UDzmUnn/961Vqhr17dEZBbltf9efzIL8WyxR1yOGAoHWhfE9k0DayKkbUseHEHEarQBx++H0fUzsUGuyEOv/a2E1ivkz9Ok3m6WY3AbiOgiexuQ6U/mC4Etrw17dYfn35sQluDQfqB9qG0JTzhwpSGKk2rj6pDYGfeWGqt2AijMK9FrPugYZ3ZwT1/qjoL9JVrCgKrxt3wYf7XM0/MA2CrcBVNZNM1tpJx+IxD+h5s5iki6zEJ387G2piJLudffEforzfenS77dLsagd1FQBPZ3UVKfy4tCFBVoJ8nD3ojNuvzMxt4DkxmQTAJl0dBrlguNJFNx8AQuS2wshFr23l+1yFDjmEN2m9Nhx26zeqFwKbHRkz99d9vX99YAJYf7K7o0IJ0jSGH6wlEwjZ8pwicAx434NEC1fXRoEffj1oMe/CkdFmn29UI7C4CmsjuLlL6c2lBQK5YkDdv+pjFeatWt8yJxcGoMK0h4LFSwGBgPtce2SocmfLJXslmiMTS12Y7F+Hep7y0/40jLtS12atwEGrQpZ1/Trl2wavPTmviS4RcTxPZtI4th/AkciJhxOP5EAaDz8NwBXlqXcSatV/ZYdDkw9k++/yeVjN14xqBP0FAE1k9RTIBwxhqAAAgAElEQVQaAbngw95fTR/3ceOCokhdX8J1JJgN+EYpbYTBkLYmsmkYQSEENoTqotW5/Uc16nfZyDSYoJushgjIz18+fdZj973dLOoh4lFCvPbIpmsYKSTLEAZMLuGxIpAKiTTqIOo6MG0PmyP1na7XTjyBHdbns3TZqNvVCOwOAprI7g5K+jNpQ0B+8PjAuc8+PD2v1EEjO4zi4iiskAFpenCFAwOm0kHUR8UQoIQ5VemH0XYvRW2Qp5tiGINHBP2dMsyTHlrSi1gfqoeD+w/7W9Yx//ePirWuz64tCMjFH3f+76RRi1oXlaCO78KjhC/9FkrL8NM9bjMLTqwUoYiAIyRg5qLUjcOyXGy0ctDxkmED7ZPOnZEWA3WjGoHdREA/QnYTKP2x9CBQMuXWGWs+//CakA+EEhnzvu8GZMvg2zRO02Nd9W+VEj6IsBoCEEzAM2i7l37nMCSHJUNwCO8Q4Mm4WjIQ1fV8G4UN2sQ63zm+N2vbYUH1R0L3YG8gINcsaf3FhDGLm/y6rE5j4SBu0jb23mhZt7FTBISEwVTAlvq3y0z4zIfPHGyxslH/iNOfaH3t6Cs1ehqBTEZAP0IyeXRquW1yw4acDVMHf1i65JvetmGDtrPNhMcQ0lTeQV0ZqGKTZEci65rBIsGkwhO+CVOElTqECEs4iIH064Vg8EQWSpvvv+mguyfsz/J0TfaKjULtOVuu+6nRF5PHz2n644J2TUQpYpRcpDdU0jgBBIgE2CLQk1WqBaQvy1wUWmGY7bsvOnD037szdkywwtWHRiADEdBENgMHRZsUICBX/9Ty+zE3LIr8vqJ+2AqrkrQUSGCYDIKSvDSRrfBU+SMia4iAyLpEZENCeWlI+9OXJlyZBb5/1zlt7nnkKF3Rq8LDUGsuIDduzJ07ffR/8hbN7t5YlCgiqz2y6Rz+gMjSDgw9T4NQD0GRyyiyIiiu33pL91tHdGX7dNWFEdI5TLrtP0RAE1k9QTIWATn/s6MXTB7+34alW0AeWSKyBgMMkolxAcMwtEe2gqNH8YlB0kcQWlDeI0tElksbvhQQFmlMuuDKI2sijizUO+zoFxveNvHCCpqgT69FCEgp7SUTh75rzf74hMZ+FK6hQwvSN/yJeHjKMkhocfssSL6j2PgojyA/Ut/pccPgs1iPkz5In526ZY3AHyOgiayeIRmLQP67L960/MWpk5s4xTDIFygpnovMFXDjApZlaSJbSaNnyASRJUYLqUILmDBhwIYnBHzLg2Seiqd1pYkYz8K+J5w9IdR/6JBKMkFfppYg8NO0kS/HP3nnvKZ+KXxDe2TTN+wBkaWDSdrrEhCGp2LgDWEjzkPI5xF0ufCywezMyyalz07dskZAE1k9B6opAssfHfdU4SevX9rIL4H0GEzTBISvtsB814Np2prIVnhsy1QKaEvR5+SRkTD9oNAEA2Es4BtOoFwggThslLJsdOp3yU3svGumVNgEfYFahcCvj417vPC9l69oLmNKgF+rFqRz+JNkNiCyvuEq+RLDD8NnIeR7Aq1POuOxvGvv7J9OK3XbGoE/QkB7ZPX8yEgEpJTmwrE3fYJFnx/VBHH4fkBkPYekYSxIVRUokIzSR0UQ+F8iS2zVSBBZSfnMDPBZHIzyQQRDFBZKjFwceumAv7H/u1BLb1UE/lp47ppn7p/6+5vPX98KTqBdqu/htM0CSpeVSouEq4Wqb8TVAtZ0swAWQqnnwujY7dM29ww7hbF2sbQZqhvWCPwBAvoRoqdHRiIgN6xoOm/CXV9Yvyzat6klFZGlmNhYaQnC4XCwxe26SoJLH6kiUH5rMfEi48HfVPKH5BDMJO4KiTi4aWwjslvtuuja/+ZT2dGnv59q6/q82onAuhenjF/72tO3teEeXF/ryKZzFnAmIQWD4HSvC0geEFnLywaXdO8LFDRpveqAEdO6subNN6XTVt22RmBXCGgiq+dGRiIgv5/VadaEMV83LN0QznWjJAi1zQNLJJZJ7ZGt+MDtSGQTBRGYABcckBySW/AhIWRMecSZYCgUJqJ5TeJdrrn1RHbYcbrqT8UHolZdIf+NJ+785YWHRzf3o9obm+aRp2cpHURkKdFL8LjSjyaPLH2HcLGpXhPvoKH3dWEHH7Ikzebq5jUCO0VAE1k9MTISAfnFO6d8PeP+9xq4hcjy4tsRWTKYC01kKz5wf05kXYon4OS1cWBxii3g2CpDKG3QbGuXgbf0ZYcerYshVHwgatUVNr/95C0rn3t4YjOvVBPZNI+8SvIk/VgjWdXPB5OkIR2GIRi48PB7Vj0cfMOIfqzP8a+l2VzdvEZAE1k9B6oPAv5r0wctfOW5SfVlDCHfKSOyFM+lPIZCfQ/iu/SRGgJlRLbM400JXYG2JHlkXcZAmlvMd2AaDFJYKOIhlDZqveXQQbccwfbv9X1qbeuzaisChe89PWjFsw9PIjUSHR+b3llAIUQUPiB4kOhJQUREZCnZyxSAyXysRgRtLrnuzrp/uXhseq3VrWsEdo6A9sjqmZGRCGyZMnzGmpkfXFOXezAFFZVJhBYkiGxAtjSRrfjglctaVqEEJLElEHhquNL55Grt4MAEh+8Z2MrDKG3WZmOXQcN6s/26/VxxG/QVahMCRe8/f/0vz06f2jhepIlsmgd+G5El2S2KM1ArC9KVNlUegi0lVvkmGv7fBc+0HHjrpWk2VzevEdAeWT0Hqg8Cq0Ze/XF00VfHRbiEKanejCayVTN6RGT5NnxpcUAUNrnlmCSy3HdgJYhsoRFGcYt267oOGtpLV/ypmlGpyVct+eDFgcuffWh6o9hWlSmvj3QhQIS1LMlLcVgZhA/RQUTWkAK/ixDCPU78pP3wcScypgcsXaOl2901Atojq2dHxiEg5RJ7+c1jvjVXfn8AqZgmPa9UTpW2uymkQHtkK2vYyhNZBialwpsr9VjAobAC7sPwPViMQ3oGCs1sbG2xz+putw3rxVoesrqyLNHXqR0IlHz4Qv/lT894pGG0UMVf6yNdCOxIZAUgQ4rICuapZwDVDy40siHadv22w/XD+7I2bfLTZa1uVyOwKwQ0kdVzI+MQkGuWt146+sZv6m5c2Zh8hTsnsqRASRFdOka24gNIKJMnhrwwAd7kiSEPTYxLMC5huC5sboD5JraYWShose+6HoNu683adfm14u3rK9QmBEo+ePHqFc889HD9mCay6R13IrIGBPMhDVKGoc2YgMj63Alcsh5DNJSHorrtNnQdNLQnO/CQFem1WbeuEfhfBDSR1bMi4xCQyxb0+G7ckP/Wz1+XxUjnUO1mkc5pmakJuVMdY1fB0UtiSuVoAUby9Cq0IOmR9QwBGgPT82EwA0JYKDCyUNi01cYeg4bqGNkK4l8bTy99/8Xrlz/74NQG8QIwKj2t30JpmgbliCyPq52uJJGV3FE7MvA53HAetlgNvG43DzuMHdpbq5SkabR0s7tGQD9C9OzIOATkFx+csmTKve81d4sQ526QTSsp1YiUClzlKGAJz0FAcnWcXSqDSATC5URaAcszVbwc/exTJS9VqpYSQASYLxAxTPiCodS3EIvkorhuvYJug4f11qoFqSBfu88pfPvZQb+9NHVSI3crpDD1rkrapkNZaIEwSBmGnquJ+Fj1TOWQ0kaM28g3Q+g68IaT2NH9PkqbubphjcAuENBEVk+NjEPA+/erly17aMqTzUQJYkZcaRwyYQdJSCzYAjO8CP0G0LaYzj9IaQx9Dnic4o2BkMdhqWpeBnwm4ZokxxMoGJDUWVga8GAgyiMotcMozc4p6TZwUF/W9cS5KTWuT6q1CGx69fE7Vr/64JimogRCmmqRqo/0IMAU9iS/5QW5B+WIrKrsJS3EuIFCg+OQS66+kp12xRPpsVS3qhHQHlk9B6oRAgWvP3H76ucev7uZiCJuOrsmspT8RRJcmsimNLrlPbJEZMkjS1nLPpdwDCpXmZTikjBdCcEteFYWiriFolDY7THw5pNYz9M+TalxfVKtRWDtc9PuX/v2Ize3ZDEIn5T4NZFN12TYNZENdKQhLTjcQD5jOOis80aGLrp1VLps1e1qBHaFgPbI6rmRcQiseeb+qQVvvn59E68EjuVuI7IUWsBYVHkQISKJuFkdWpDqABKRpRACqq1uE5FVLy62HZGF8GFRUQTHB2c2fDsbW8FQZFnofs2NZ7Gj+r2Vavv6vNqJwMqHJz666d/PXdWcxyB9IrE6YTNdM4Hu/SBG2YOkZ8E2j2xAZCn0wzMtFECg8VEnPNn0xnFXpMtW3a5GQBNZPQeqBQJSSvbzg6Ne9mZ+1K+hWwTH8infAJSMpIgsghhZ8hRQkQQdI5v6sCoiyyjFC9uILCFMHlkKOSCPLBHZkGFAxr2AyJohFEmOYtNEl4uvuoqdevnjqVugz6xtCKj7e/LoV4tnv3FOYxkFE2W6pbUNi0zob0BkA2dAGZENdrrUAkMY8AwTWwHkdOn5fts7pp+aCXZrGzQC5RHQHlk9HzIKASmluWjsTf/OWvR133pO8TYiS5VmVDa9dAN7FZFNPoQzqgvVxhgisoIq0EoO0yePLCFcRmSDGNmAyLI4eWRNuLAQZQaKOcPBZ/5thHXR4DHVpsPa0LQjIFetiix9cvK//O8+O6q+XwReToA/7cbVQgO2I7K0qKVdGXWUEVmfmyjiDMYBneYecPdTPWohTLrLGY6AJrIZPkC1zTwpfwrNHnLPvIa/LO2Q50XhGh58ltj2Juoqg+zaIK5OE9mKzg8qMkEebiKyST9MMgksSWSVfqzjwzAsuD6Dyy2USKDZ0Sc8Ue+m8VdW1AZ9fu1BQK7+vsGCyRNnWasX75/nl6hFlNph0UeaEUgqvwRElry0RGrpSzADRYxB7HPQ9wdNGNmFsfbxNBurm9cIbIeAJrJ6QmQUAnLDkpwvRo/6ufG6lU3q+aVwjTKvoZLdgpcgsvTA1US2ooNXnsgGL7AgblZ9kbcWggI4IF0fITMEh6INTAtFjoO6XY78vNnIh45ljCUGpaLW6PNrOgLyl6Vt5k8YuSSyZXlOHRkDE1RNrqb3ujr0L+GBTcQrB0SW7n8DPhhKpITTtv3KDkPGHcaa7rehOvRI21h7ENBEtvaMdbXoqfxtfvPZ48Ysbfj76rp1RRQehWkltr8VkZWB50CLqFfWcAYeMaoUGlRKUxrogY4syZwR/q6n/m9xA7404AoJbtsoaNBiY4chU/Zn7doVVJY1+jo1GwE5/7+9vpowdlZdbwvqkCa0kJrIpnXIg+epIgIqrCBI/krGzTKfgRkmooyhqGGLzZ1vvbs32/fQH9Nqsm5cI7ADAprI6imRUQjIZbMO/GryPV832LguN1cEGrJ0JLcgA+9NUD5VH5WBQBmRVciql1hAZNULjgD3KTYZKkZWSgmfSK/BsTm3SazT8Im9WftDdbWfyhiKWnAN+d6Ll81/5uEnc0URInCDBZT2yKZx5HdOZOn+55KKoRCR5XDAUVC/eXHn2+49St/vaRwu3fROEdB0QE+MjEJALvrP4V8/OOG/9Qs3hLP9GHwexGwZVNRrWyJC4DFIxnFlVAeqnTGJSj4JT7dyzCTIrPpZSjAWbP8mCQf9jT6zIVQXh1499DJ2zBlPV7tua4PTgkDxjLsf+PWTd2/MZjGYUhPZtAxCuUaTIQREBMhZEAQSJRayTMDwgyRPykzYUrepd8hNdx3LDjni83TbrdvXCJRHQBNZPR8yCgH51fsnfj3jvvfql24xs31nByJLpgYPWjBPE9lKGbkgxWtHr1jS402klScWE0KQji9TX/TzBhZB69MvmtLgshtvqhRT9EVqNAJSSr7qzv6fxL9b0DdkeDDhA0K7Y9M56Lsish55DiBgicBj6wtgU25jHHLDiFNZj2PfT6fNum2NwI4IaCKr50RGISA/ff3cr5944JXGbjGznRiEYWzbfgzIliaylTlgScKaDNnY7oGQ8IBTjBwRWk/4KtTA5AaE8LBFRhA+5Kj/7HvXwFN0JnNljkrNvJbcuLTZspF3fBVe83NrzmkeiSCWRR9pQ0ARWSr2rQohcFWSlp4JnuFvI7IU/uFJgQ2RBjh44LDzQkee9mraDNYNawR2goB+iuhpkVEIyA9euPSbZ6c91VjGYTpRSL4DkU08aCV3lVeWCiXoI3UEyohsuVg5tc0YXFOy4MVGqV+BR1bCMEhKwsdWFkZxg/b5XW8dfgjbr9Oq1K3QZ9YGBOS3H/f6ftK4z+vmrzeIQHEzIWRcGzqfkX0Mcg3KE1nS56YEW5/76vlq+SLQl5YMa0N1sP8Vt12cc+I5z2Vkd7RRtRYBTWRr7dBnZsflO09c883zj81owl3wWAlgmEGikQgKWSY9BprIVs74lRVFCDwzyRADipdLElkisRIcPgnxcJnwkAvEjAh+NxuhZ/+Bp7Njzni3cizSV6mpCKx66/Hrtrz0xINNSvMhDGJQKjKzpna3GvQrkTTLhNKRDrS5jZ0QWVrVMqwyctH+ysFX1Tn5r7qaXzUY3dpkoiaytWm0q0Ff5ZuPD5r7wmOTGpueIrKcB4UPuIrVooetESQj1QKP7M6yuStbraHsegGRJQmeIPGDJgslf5BXlr5TghdTf1EJYFLANcLY6EfQ4ax+D2ZdMuiGajC9tIlpRGDpw6PfcD5+86xmXgkESbnR4jQRf51Gs7Zrmu65P7rHyu7JILa8su/HvY1DILOVuN/V4jUI3aIYWXoemEKAq5AihjVGNva5dNANdU/7+4N7207dnkbgjxDQRFbPj4xCwH1+2rAlb79wTz3EYHtUQCaI3Qr0Y5NEljLpKY+W6FX1Di34I+kh5asqp9RAvyblsXYMCaicQUyKopdTKCj3hFDbkOVyc6jiWox+b99p/n6D7j+KNW1aUjl26KvUNASootfs+0Z822Djr82zSwthwFYLIvD0voJ2vP+S1e22JTtuMy+QqVPqKckMf0ZFQ6o7mU0WlUmEFpXTklUEl8KJJCkXSKwzctDqb9cMqX/OlRNq2vzU/aneCKT3KVK9sdPWVwEC8Wenjvr+7RdH5BGRFU5Cciv5euFqi5sOAw4EeROkWa29IrtDZJM3KXHG8kSWXj1GOdmsKhiOP7ykSgqRHvLrNo0dMnji0axjj6/3tg26veqBgPz8/dNnPzrh7QZuAbL9OAzP2FYSOZ1ezfL3XzLIIdiFCHAtsy0gsiQBSGQ2+KyAS4VDqvNblJ6fXEAox0BSr5ues2bQXxVuRETWx1ojC23OG3hXvfOuHF09Zp22srYgUJ1vwdoyRrWqn/Fnp4xd+taLw+uxeK0gsn80uEGJyLIjsQm4Tec13UQ2ePMx/OabOPCia4fmnX3l+Fo1WXVndxuBrY+Om7TsX28MqmdFEZEe4AiYzEyEruz2Zar0g+VJ7c6ILDWe1FNOJkPSYromE1nyxBKRpdLga3gErc8fMLrBef3vqtKB0BfXCOwhAprI7iFg+uNVi0D0mQfuXfrmC0Prcwch6dZ4j2zS67Mrz+z/vlyDEpLB8b/6r1U7Ov97dYqo3SBNWF17fnPgHVf0Yay7u7dt0O1lNgJy4w+5K++bMMdZ/t1BFovCEHGYAorI+pJlFBHcVvRjJx7ZJMrbFQdJxJhm9gj8gXW74ZGluHgisqtZGK3PG3B3w79efUe17a82vEYioIlsjRzW6tup0qcmTVj61ou31jddhOEldCbLQguSMaM1JbSgTDVg+zH7o5CD8h6gdJb3VC90wVBqWsivm+d0vfa241m3k3XVn+p7+1WJ5XLWmyd9++AD/2rilsKRJYBwELFC8H2pZJ3SeSSTncpI6s5VFHZlZjrvv0rBbTeJLIUW/CZttOp3zbjGFwwYVilt64toBCoJgfQ+RSqpE/oyNQeB0qfvn7j0zZdu+TMiWxOSvZIvx/Ka8Mkty129IP/XG5s++aIg+cWEazBsMoDWJ59+f70rRt9Sc2aj7kllILDlidEzVr71+jWtLBOOH4OAj1DYQizqwDCsymgi5WsQkaX7r+y+2/X9tKv7tVqT2QSRRSJGliUKIyRjZCF9mJxiZT1FZFv2u3pikwsG3pYy4PpEjUAVIKCJbBWAqi+ZOgKxpx+4b8mbzw/eFZGlZC/lCawBqgXlX4y7JrBBZOz2FbjK45teImuSgDqTiBk+4q32XX3ArXd0Yc27b0p9BugzaxIC8pevmvw8ffIc8euyNnWlr8T1VYU4i8P1PRgsvaoju/LI7kr6Lkl8k2NEess1mchK4cEyqCy1j5XCQotzr76v2YUDb61Jc1T3pfojoIls9R/DGtWD2DOTJix5Y9ehBUnVAo6aIb+1szCB7eP0/pfIlr9pk3ikYxKoZLSE7qzgEutDWTjwiuuuCR9/0SPpsEe3mXkIyH89fdncx6c92cgUMGOlCPMwXNeFtBhgGYBLpVDTeex4fwULw22FQcqZFqgZBMldyV2UmkBkQX3igWpB0iMbFEcAdiSyLfv1H9f0gmt1aEE6p6xu+38Q0ERWT4qMQiD69OR7fnjnH8PqGQ5MLwYOI6ElG2ic1lQiuy0beocXJ3mtLMsCNw14ngfh+eSThmUYSqTcE+nNmiY5Iun5yA6Fscr1Ibt0/aLjXaNOZKxVNKMmljZmryMg5RJ7xbD7P2K//XB0LLYFOaaJkGtCeBLCCgpJMS8gkuk6KCufiLVphdT9FHPisAwTYTsCx3GCKnbKuCSBJe1qKuEaWFzdiSxT8oW7JrIkv0XJXpwLpVrQ/C9X3t34ggE62StdE1a3u1MENJHVEyOjEIg+PWXsD++8OJyIrOXHd6laUJM8suVJbHlvLL3iTdtC3HUghIBhGDC5QXV6ASKwUm4nX0Qv4r19MGYgxE1Ei0qBvHpYaRnoddOQk1m30z7c27bo9jILATn7g77LHp36UWjrOstjUUUQI14I8CV8JiEYLcrKVdjYy+bTvRayDESjUYCbsEI2fCnUvUYLNN/1YBtmgsgmySwVQSgf6pO+0J7KgGt3iCzJbxmGVKoFzc/tP7rJX6/R8luVAb6+RqUhsPfffJVmur5QTUQg/vzUUUvefGFEA66JLBFZh0rzcq5ILJXz5EIGXtnE+39HHcu9TWbJJnrpi7gAC5NXtgTNjj7xvRaDJp3JKLBOH7UWgU1TRr+w5j/vXECLUt901cIrLMIwJIcrPQjpwUxTZa+gzDJgMKaIq/ILm1zJgdHvVBrbZgYkLSC3FR0hr2yQHEa3X1DprnYQWfLIEpFt89eBIxv0u2pUrZ3UuuMZiYAmshk5LLXXKP/Fh4YteuPZe+qzeK3xyKotykS1oPIeWeX5IY+QweH4Hry4o5JjsmwLpjTgunFILtOqw6lsi7nIDucqz3HMENiSW9/tPnDECeywY2fW3plcu3suF87s8t2DD3zGN/2aU8+WcJirQmMiPAwujSDhixOZTF9oQbATImHbNlwpEPP8oGQup6pWtOshYUqmEtTUfaniY4nIBuEFNYnIkmoB9YeLRPhWIkZ2W2UvLrAKIex70Q1D8v5yuS5RW7tv74zrvSayGTcktdsg+drjgxa+8sSkuojCEhSjRh6P/9WRrTmhBYl6XYKrXiaJrM84SAnHERLMMtULVvqCQvVgSAlDMEjhw7CS2CCoXb+XD5X4Ql4r2CqWN+ZGUWBlIfuwvm+3Gzz+LMaqdU73XkazZjQnpWSF00Y/9usn71+RZ3oIc08txGh+0la9JK+n58M0TQjh7bVO77hbQTPTc0gCzIDLGKTBwUIhJf/vO67yxoaYAUNIRWbVzUdEtlzSV03xyO6KyFIMsfRdFVpARPagy2+5Ieu0vz+41wZNN6QR2A0ENJHdDZD0R/YeAvKtp65Z9OJjM+rI0j8ksgyOqgNOeofV9QiynwMia4hAxie5UUlEljyy9N2Vvnq50ovfAFPJVbZksE0Lnh+HlGncwU9sDVM8IdnHPKDECuH3SI7f6/rBJ7HDTv+kuo6Ptjs1BOR3M7vMv++emXlb83NDzAXzHUViKQzFMFhQCEHFfFt7fe6WJ7N0v1HSpON58A0DwjQR9T3EXAcWNxAJhcHcQDIsILPBvRqE8wTJXzWByKpENr5zj+yORLZT/2H97ZPPfyy1maHP0ghUDQKayFYNrvqqKSIg33vh0sXPz3gqxy/eKZGlHNogk7hmEFmfYgoSRDYZXkB/ETwgstKypM9YqevLLM/zGL1ULdJyIDLgObATHtntXtB7MemLkr2CF6EHN+4gN1QfWx0XWwygUa8j/9Py3JtPZe3axVKcDvq0aoYAeWNXPzr2mbUfvX1RS1OAew6E74LBgGFS/GngmQWzEkSwajtI90X5nYoddy1UUpcU8EwTDoQispRgGYlkSy5QLGNOrqniZCX4DrGytYnImiaUR7bzwDsuNo8757mqHTV9dY3AniGgieye4aU/XcUIyI/+0e/bZ2a8kusWIuSTtmHS45rwhhCNo0SNGkJkkx7ZpIxP0sMjmQefcxS7Pg48ou8T6NzldWwt6bD5p58O37Jh06FOabSJGy3JFfFimKAXLWBAwqawA5LnUpnXhJOixWrUkuLv22vXJkM3kgNL520/yOU/v2OpTs8TCNsWfBFXMYVhIxtxTyJukq5sDrpec8vl9pFnPVXF00ZfPkMQkAv/e8ynk+75dyu30MiKbYWpPLC+8nDS4bjxIHkxZMNzaVlq/GlBgR3nXPnfg/tHbJPBKvOQJuY1Y/A51aVi8CGD75ymKoNP/2MmhRN4Zk5OUahOzqpGjVssyttnv7kw2HdYtfzMHz/7+PoQ2e+T6B3dG4nwAra93myGwL/HZpBqQZlHVoKJQO4wudNFzxQKLbAtht8QRqfrhp9n9j371T1uSJ+gEahCBDSRrUJw9aX3HAH55fsnLnh00rs5JRusXOlDkuAkkTAj4dQTEfU7A3l5vGodWlCeXAp6MUryNhMN9WEgrjyyJZ6JJj2O+E+dOx45Lokm6R9yL6IAACAASURBVHPiV7FP8ZpfDtm6ZmWHko2/H1KwZnUX5/eNLc3iEpbl+sgWHmzhwuIq4g/gvtoS9RNZ1+TW5pJCFUIQPsXf+sH2L5MwGQ8ScRKeXdKq9aWnks5gkPgngyt8tUUcNkJKC5S2XTl5v+j6KtKBY2s4C1tbtf+x2+A7j2DN2m/c89mgz6hOCEj5U+jHu6e/u3XBV8c35w5MtxieEcTAUugMUUEVTmMEd64UHIZnwCIymZhrFHIQ3OBUTSqhKKDkroT6vXwxAvqbz11FxEgJwRIUz0rEmNQ9LHgw4DEDUTCU0nfbgBeOwKibk1+3aZOlWY2afJfXvN3SrKbNlplNmy5F8w6rGUvE+gBYc/dNb+Yv+fTMXK8Ehh+CIRk4gv44dB9QO4rcVqdR2t7W7eW3Eh2RBiBt9ZQFc5Un2vQl1kfy0PG2kaewrid9UH17rC2viQhoIlsTR7Ua90nO+7TnvAfv/U9e6cZIlhcHZIho7PZEVr1A4qSmXu2JbEBmgwELwiYCImvKqPp7sW+ioFHreKebhh1pd+z7zc6GVspPTaxuVAcFW1pi3cau8d9W9NiyYsVBJZs3HFxauKkJ82KAiIMruSMJxUeptATt8Hrk82YqfpGIAnmcyJOrJIkSX5xicy1K0pGqrCh5tlS8IyXreBLEk8kbSySYU112LmH5JkrNENZa2dj3pNMmNLx08JBqPC216buBgPz0n5d88/gjTzf3S8GKNyMUknANAZ/ms29SnpTSZBXcgOACUjAwnwXe1KSeXPl26D7nPJC7oi8ZKHSo0igUemMwRIULQXHagjy/Ar7HoPYkeBi+GUa4fv2NkQaNl+e1avN93RbN56FZs0VoUPdnhFpuZc2bl+6qW3LZsn1mTRs5r87mpXl13EIYgoisoRZsRPeIyFJxFvq9phBZQfevCp8grerAYSC4C0MIWB7D77kNnA7D7zqBHXzcZ7sxHfRHNAJ7DQFNZPca1Lqh3UFA/jj7oG/GjZzToGRjbtiJg4E8AzsQWVVRx/1/9q4DzK6ibL8zc8q9e7dk0yuhJHRCCVUUBRUQkF8Uy09VsYB0EEERiUiRIp3QFRUpFpRiA0RQOgIJJLQASUhIQvpmd++9p8zM/3wz92Y3iL/p2XPPHB6eJLvnnjvzzpxz3vnm+963YYjsirhQ0RepABBJB3SxGW+mDGM//9VLhnz+uJUmg1prjrnTR2HOzFFd897dceGM1z/cMeudbdMFC0aJ7q4WL04QyDKaA8KYolo2IkxUw7yYa/I7vh8a5yOVpIZsUIEZkVUyZIhkCgSe2aqlLVs6fKOoACgpUZECXUEzOlv6V/Y8/axPsm33emJl5oA7J3sI6GmTR0658qrHS3NnjQ4rixEUSXKrauaGNHPCM1FZTwm7gKJoqyCHL4kEsVXkqDtlmQUVEVeaU5bMmgWfIic72gmwxY2JKKCTdhTCZnjNxchvaZtbGDRgdtuI4VPaNtroJX/woMkYNHAuhrTOZWzV8rT1ww8c/cjNP7ltGFuCksnXp2gvSXFRDJa+2xJs05dGiMjSitbIPn8wkRVSYEn70O4tzj5nLzZ2rxeyN0NdixsZAUdkG3l0M9g3PWvSiGcnfG/KgO55/YrRBxHZgiFblshSdCTbguR1nQLabDUva7uhZ1769B6PBTBPe2gat9uUrb/8vb3Y6NFLVndY9Zw5TeiavTlmvrt55e23xnfOe2eP+XOnbKmj7rakGgWkhkC6mSQ5FHBhSKlOUvikmEAEl15yJKOkUrtNLLTR30x9jkjwmuC9hs/s3xOyr/VLWMoKEGO2fGLbk0//FBu0Zefqtt99rm8iQAVe1RuvmjjtgfuPHYwYoYjRoZeBFewcpjxYIrIeRV+lMKYedEieooJuaF+CMw+aWw1T+l9qAUXGCYpBEellvlHwYH6IQlOp3NTcvMRv6jd12FY7Po/2oS9j8MC30D54BhszZv6aokT9efeyHzzw7lN/O6BdVFFQFXgsNfckpS4oeEgpomxUC9b02zbs543FtGEBKai6bfkTqBaR1SIFo1yhlKNr6EZLNv/OubuzzXZ7Y8O22n27Q2BFBByRdTOiTyGgF7zW8q9zz5rWOn/mkBaVUNk+tNGlqufIEpGlSAhFELJOZG0U1PqZE5ElsXV6Mwr4MjA5shVWQcUP0Rn2xy5fOeFAts+hf1pbA2ajtm/0x7K52y2cPnPHxe+8s0N5zuztkkULt9ZLlgS8qxMtXCPUCoF5fVO+rYJgNn+WImVEWFPB0C1sKkKQ0MauTT0g7Vsq6EkLTZiTAjt84Us/Kn7+jB+srfa76/QNBPSjvz7klZtv/92Ark6GeBma+weY3TUPfsmHrtLiiCOAB0/7JloPLqwiB+Vt6wic5g7zEGlKFeCoQiDxioj9EGhqTXnbgHfaBo96tW3YiJf6DRnxWmnI8KkYOup1DBrUvS50ivWUp7d+4YoLnmhdtqCfJ1MELAZHxUZfVWh2K0htpF482TdGYfVa8Z+ILJMFaKOtm5r7mohstNGYWWPOnrAzG7r9Gi8WVq+17lMOgQ9GwBFZNzP6FAJ6+vTCyxMnPC/enrR1f5J1Ut6KRJaKEExRVCMRWYpaEZElpQJyO2Lw06LNDSxIVClXNvEx9MP73j3g1Iu+tC4HTC9+qw3zFgzGu7PHJQtmf3jua6/tFC9ZuEV58aIhstoJn0gtmTOoFCxJ0Ewvd64RBdZGN6RGp5QVKUFeCJocyThDUmjB/FJLZffjTj+IjT/4kXXZB3ft9YeAnvXkiJeuvOrvzdPnjG2uViBCZVMKigyVqIySVzRRTJPDmloFg4RrlEmKy6OFkIAmCTfhA4WmrmJr/xltw0dMbx8x+vVwyLBJGL3xiyi1z8ewzZcyRvvf6/6o/uGWU6f88pbLh1LCDOXx0p+sXCvsaqqlPNQcvjL+Bu0hslZCrx6RJSJr9oZEilhJpFR0O3bbVzf71vk7OTm9dT8H3TesGgIZvw1XrbPu7L6PgNbam3bRyQ9X//XYRwdRxLVOZFlsIrA2d5OqkuuSUn2/T/+5hdzK3ZgoLBHz1JJ2LeBJyg0GEh4hpQgoCigP3njRFidP+BDbaof1trWniWnMfXUk5rw7atmst3dePGvGHp3z525TWbp0dNC1rHlAdwW83ImUIrW+Z2SWKEXBKCAIZQTvmcdQlhrL/BL8rXaYsvU3TvoUG7n97CyPnGs75bD+3eu84e8/nfbX+44cJHyEMjH5rhS69AOBasVaKtM9mzDP6oz4AklzgGpbUyVpant34KgdXmnpP/zJ4aNGTcagYbMwqHkO67f66TNrOi6kCPLmeVc/mU5+bnxbEoMJInQKnJdNhJKKTyl31xRFLXf5WtNv3XCfX4HIkjJETaoPyu58GX1oDVRZgMI2O/1r4/Nu2WXDtdZ9s0PARWTdHMgAApSfNvOac37d8egfDx2sE2jUUgtWILLkCW47836NyQx0sVcTe4gs6caarUp6mZhcPKufK0n+Rtgcw3eUh7FHf/PbrYd8/Scbsp962rQQlTmbY/57W6gZb2/fOXv27ovem7N9tauzX5LEvooj+Jqh6HP4PEESVxAG5JrEsFgXsfFe+/5qyIk/OJoxU13ijowiIB/6/Yn/uv7Sy4eiSjputJ8AeMI6Y3kFxIlGAg86bJJBS3u5NHDwm+3Dhz/VtslGz2Czka+i/8jX+lrOtH72gU88cfUFfx4VVb1iYp8/dDAeG/k6xQJTdEYmCQ1LZE3Rp5UXIyIbaY4KKUCM2/XPm33/2gMyOl1dsxsYAReRbeDBzWrX5t522bXv3X/n8YPJEIHR1iO9SeoRWSt0boksFSrUGG0mO0sKBVTcAkhhVQpMnTalBJMuqzY7suag/MJF3Edl7JaTdzjlsj3Z0KHdfaXLJtd29ux+WDhry64Fs8Ytm//eVkvfeXer7rmzx0WL5w4pIkJRxSYVIS5L6AGDsdkBB5zV+r+nX9xX+uDasWoI6Bee3evR66++b+TimW1edSmWFYAoDKHJdjYsJi0Dhs1qGjJyUvuYLV4oDBrxUjh4xGRsus08xuhG7rvH3KtOu3X+kw9/tV0qFOn+kzVDFjIooawZU1vK4ZM0s7k/bdFXVg+zAWTab5+lxvDBPnFs/j6X6FJAl9+EUXt/6raBx034Slb76trduAhk+BZs3EHJe88W/vrGs2f/5tbzByeVfyeyBI4RPLcvmGwTWevVrjilENhRp5ejMRcgVQbqnzY13+AsQIdW6GhvxU5HfvN/2d6H39WX5wmJ42NG1I6lC0dh7owd57/56k5q2dIxcWd59Jtz5o7Rwwdj+wMOOWLQRz//q77cD9e2f0cgmvzctv/83T0Pdr7xyrBNi16ltS2c42009K32EcMnlQYMfQ6DR0zBoLZFGLrjwnVRjLWuxkTPmjLm5R9/++nwvekDmkiLNlXGrMHK0nGkQiGpbQUF5PRlSGCWF9I2q+k/Etka0GXGsMRvxpgDDjmv/ahvn7uu8HfXdQisLgKOyK4ucu5z6wyBykN3f/XVm664dVhatVqq5E5VL+6iGdtQRJZEx7khsiQ75Clb+MVYVNNz9Y27GRVSlaGwWEdo32nPv21y9pkHMjY2WmeDsI4urJe9OiCe3zVs9qL54zojOWT7j3z6ZsZY1zr6OnfZtYwA5bDP++dfj+2ePXejjTfe+B+i/8B30DZwLhs2LPPObUt+d/N5r91+5TkjPdJM9iGTFIExKaGbkyS3SD/WBpR9ZXdT6vbPaxnm9XY5yom1EoZWhoues4YU1Mg75bpX/QDz/CbsfNgxXwsO+vKt661x7oscAiuJgCOyKwmUO239IaCfeejAyVec98Dg6jJjVbkikbUb8NwUQ9VTC7IbFaGIiInIUuSHhLcoraBGZOnfHpoQRdK6aAmGsopQ7j843f5rZ+3Ldt//7+tvVNw3OQQaFwE9f/rQZy/6/tPNs14aPYCliI1uMhVdSkNkSXzOlGR6NleWnOsaichqssiuyxq+j8hWgiJmB03Y67jT9mN7Hvxg484C17OsIuCIbFZHroHbrac8uesrl577WHvH/EIPkaXiCiqIovogDi7Jujb7RJYiOvQSoRclEXShrbuONh7yDD6KiKIEvl/LFeYaC3mI9t33vnvEKRcf7gqmGvhGcF1bbwjo+39x/D9+dt21mwUKXtKF7lQhDEPwNK0RVktkda3oi9ec77JuiFAz/F1u9V2XNaxHZGkAOr0A85ra04+cdtZubPuPO1ev9TYr3RetLAKOyK4sUu689YaAnjF5kxkXn/NMMGfGIEai+ya1oBGJrK18NtXBCE0qAaPKb5YuL/KC9MEZg2BW0oo0N5dqjmXtA6u7HP+dvdn4Tz693gbGfZFDoAER0Iumtb5+0Q+fwPTXtiUDEK5ilNMYYcGnW7FWWEoLzdozaLlais2TzfZhHCoMkbXPH6vPXSeyZHyyRARYNmjEgl1P/t7ubItd3852f13rGxEBR2QbcVQz3icyRZg/8ZxJ8auTtxAUiexNZClSSTmystgAEVmKvFq5LXIMMpt7LIEyRNbq5apEoxD6UEm3sfFMpUDVC7CQSWy0z/73DP7WhYdmqaAm41PTNb8BEeh+8Ddfe/Wmy28ezRJEcQJ65iS6YtzpjCECFVwSh61prFKBl3EmMzmlWbfIrusYWt3q9xNZ+hkRWTV265e2+capH2Wb7Li0AaeA61LGEXBENuMD2KjNX/yDbz3S+eITe/OA3hbWvpVTtJJsUkkWhqwiM59a0ENkhbIvEpIZI8ktS2QBqnFrKvqodC1FIWxCRCpkxSYs01UsbO4ffeiMi/dlW+/6j0adB65fDoF1iYCxxL7i0sfbpk0e11LthuQ+WOCB8QQqoaJL30QqSUnEOGXXJPFSY1GbfSJrJbds4ZrJBa6Zp/WWFFssCvB32ONvm3/v6v1cKtO6nI3u2quLgCOyq4uc+9w6RaB6+Q9vmvXY/V/3AmJu9L82URFSv2HKA6diDCagDLnN8mG39noiO+/XpbSV0SYaVKsklkybiNAyvxkt4/e+Z+MzLvxclhFwbXcIbCgE9L03fGPKb39+Y7HSjVZPoBIlJjc2rpYhGAdtrdfTB3rHXumuzbJ+rFkkmwWzJedhatMkJCetXGX1cpkyaRYLRQtaP/qFX216/HeP2FDj5L7XIfD/IeCIrJsffRIB/bOJZ7z6xzsuKfBlYKxig5WawzMPXM/UEJNlpM0b7ZNdWGeNoj7TURYldLUMT3Y48mufZvsc9Nd19oXuwg6BBkRAz502aOaV3/9HMm3ylr7wAEmW2AqlQhFJFJvUAqj/Pwk2y88eartk3CilhKk1YEk5NyQ2NrkUKQKtMJeXMPKzJ0wY8sVjftiA08B1qQEQyBkFaIARy0kX9F/vO+jln11xf0kuhM+qJjuNtr64ESLn8LSoFURl21lndYeTyGzEQyxSIVrH7fLPzb951v5s+PDy6l7Pfc4hkDcEFt8z8czX77z5x8OQIBAeoiiC4Nz8nYis53n/kchmmcDWx9lEZEkBhnRxZd1J0BJZispSRDbgwGxdwPiTLvoS+/B+d+dtjrj+ZgMBR2SzMU65a6V++elxL1464dmWytywqCpQ3PjUQpDoqmIgvys6su6ss7oDS0Q25R4Sr4gFhVaM++JRx5QOOOKnq3s99zmHQJ4Q0K8+tfFzN1z6RGHujOEDaSudZLYAQ2Lp7yqVxoTkP6kSNBqR5UqZyCyZI1C6AZFZerb6DHjXb9bjz524I9tip8l5miOur9lBwBHZ7IxVrlqqZ70+YtJFP3iiNP+N0c2yG1qQ1qqNytJ2nyWydR3ZXEGzvLPkyZNyH+WwCfGwMW9uf8JJe7GNd56bTzRcrx0CK4/AkhsnXPHWw/ef0s4VApkY8hp6vrmAlBKUaqBUdo1WVhaJuhECyRvaYjZLZG28wObld/QfMX+b868bx4Zs+t7KXted5xBYnwg4Irs+0XbftdII6GnTwtduv/pvfOqTe7alXVDcGgLUi55scVS+iCwVntTzY200GkhUAlZoxsLEw2b7febSfl//7ndWGmR3okMghwjoFx7dY9K1F/yltXN+q5DS5NubfFgASZKYSGwhCE2qAd1zjXxYIqsMaTWpW8RgKSrLlQkcxIqjuNVOjw877of7slGjbLGCOxwCfQyBxr5L+xjYrjmrhsA7N136884Hf33UgLgTWni1oi4bJdHaqhZk3et8VRCpv1R7k1lwZiJItDHa2W9o53bfnvBJts1HnlmV67pzHQJ5QUDrKcGsi267b8m/HtpvIEvMc4TUCYi80n1E/9Pf6aCI7PuJ7PtTCrJviGCDAZJyYilXNrX61fSzlAmUpY9NPvGpnwbHT/ia06vOy12SvX46Ipu9MctNi9/73W2nz7vrxsuGRERkV7SjzTORtUTeVlNTioVSKTyRGOtasf3H/r75V797kCv8ys1t4jq6Cgjov9z1lWduvfqnw0UEP+4G4x6k1MvvpyAIzN8rlYqR4Vph0fgBkluNRmQ9SQ5fNjodCYFOVcS2hx72HXbYty5dBZjdqQ6B9YqAI7LrFW73ZauCgJ785Mefu+DMh0enZSidWD1V0oihv5nQiN0Wy+thRcwpeiShRDfKTGAxWrHzkSeewv7n6Kvyiovrt0PggxDQb748avq1Fz4q33l905Cn8EiD2jh39ZzdCEVcqzL65hkScHTHXfC8AD4CyEgaxYZueOgI+yc7Hn/KoezDn7pvVa7rznUIrE8EHJFdn2i771olBPRbUzZ6+cfff6lt0ey2gLYBldV21IrZfFkmoHXWDRFWCZIVTqaXkI8QUieI2TKIMECcFrCoZcj8nb5/6SfYZuNeXv2ru086BBoHAa01X3LTRRPf+dOvvzksYKimCbjHIKTONZElIi98jqq0lrxcB9Apg+8JdMBD54DRS3c68cyd2XY7v9U4s8H1pNEQcES20Ua0gfqj589vnnHlDx+uTHlmt34FCR13gzO79UdE1pDa2hZ7A3V7pbtirXo5mBCIVBd8En1UGjO7FUZ94ot/Hf6/x33WpRisNJzuxAZGQP/9voMm3XLlva2d83lzAFQ1g+YMviL3qlWPyNajuFmP4FKKFtW5SdgggUwFGDwEQmCh9iC32vmlbX903C6MbRs38PRwXcs4Ao7IZnwAG735SyZedPP0v9zztcGFBCzuhuAFU6BB1rRUlJEHiZz/PMZWU9eoGZh0iyo4T6FLbZjeHWLPo487hf3PkS7FoNFvEte//xcBcvCafvn5j1Rfe2HbIU0+kqgbsWfzX30qGtU9THZliWmjEFlozzh4MSTGKTEh+2/uI9AccxGg7ZMH37bJcd/9iptiDoG+jIAjsn15dFzboO/5xUnP/ermqwaJJQhkFUKXrDwMpRmIeq5sfoFigiONJQqigFgmQCFBQmYJsoRyv5GLtzvtzE+wbT70Yn4Rcj3POwILf3r5Ve/+5e6ThuoqkrgKTgtgiOUWtB9EZOuE9v3FXPV/17PzV5b49tkxYD4gY3gsNbtcMSsCjIMlEu95zRh99HEnDTz4iGv6bPtdwxwCxirJHQ6BPoyAfvZve0264cqHSp1vBc06ApMt4ExAKnohOSJrItPMM7my1TgGb2KIogpKXhHzJEew057/3OLYEw5kg7bs7MPD7JrmEFgnCOg//+bz/7rn53eWFswUA30FqRUU1XgpDlIoUCkVkfYcdWK6MkSWPkWx3EyTWeaDqQQhUkilEAfNUJpDRxGW9Rsqtzn97E+yHT7293UyOO6iDoG1hIAjsmsJSHeZdYOAnvlS+7RrLpsiZzw7vB9FDZISBKcXUAXM1zX1gnXz3X3/qvRSTuD5IQAPaaKNJiblynZVlsDv147p3RI7HXrkJU2HnX5m3++Pa6FDYO0hoF9/dtMp11/xGHv3zZFkc81lFW0tzah0liHggzPSLbDFou8no+8nsr0jsXQ+/ZvOyTqRVVrAYwqhSpAqiaTQikhq8CiG2niLdzeecOFubOAW7669UXFXcgisfQQckV37mLorrkUEtNZs2gWnPBBN/tsBA3UKFYcQwq9FZMmk1Woe5vXwPY5ypQIvKMLnIdKKBGcSLIxR1Sl40A9z/ZZol5O+8zm28/5/zCtOrt/5QoCMD6Zf99s7Op988HOlrsVo6VdCd2cHPAU0+SG05Mb8gPSpV4XI0rm9nzhZJrLGGVBqFIVAUaaIEomk1IRyKgEp0LTtzo8Ov+DmvfM1c1xvs4iAI7JZHLWctXnhHyZ+b/ovbr1gIyUhUw9eSJGUbiiWmKr9FV8t+QKn7pVO1pLcFMFxgEkIIrFQ0EpgSVjE4o02nr7biad/nG282/R8IeR6m0cEyvfcetrk3/38J0OSpSioClLK+9QMYepBaEAyVYuoktHKqiHUKLqzJqLMGVii0ZKapwWqJR9lztBZAbb77OHniaNOO3fV0HFnOwTWPwKreAuv/wa6b3QIVJ9/YL+pl132l5HVCGmaQngaSlSQqAQ+rKViHg/7AuaA5ibSRIc03vAaAik8sthMgXLgY35zK1rG73rfmJO/8nknpZPH2ZKfPusnHtx30u033uMveLvUyirwdALJrHmInwa1CKyCIjKb02dHPQqdQiPgPoqxQJomiAKJ7kKIhaqIPU46cz+258EP5mfmuJ5mFQFHZLM6cjlqt549eeRrF573XPN7c4YijcFJLsZLc09ke08B0pQlYksvbPJJNxFZrVDkAbpiiU6vgPe8InY57Ctnlz5zzIU5mj6uqzlCQL/+0qZv3HD1I5W3p45u9StgvAoBCU9SRFYY4kq7GD1R1fw6A9LzImUSIQ/gx6QEo5CyBJ3FJixqHjxv9/Mu250N33pmjqaP62pGEXBENqMDl7dmzz3/1IeXPvf0x0s8slIxPDaFFiLnqQWCqrAZxWB5jcSStCwlGCijj1kUHpJqCiWKWCaa0d1/aHX8YUd9jn3003/K2xxy/W1sBPS8yaX5t9z+2wUvPLV/K4sQehIVUjeBgm9qujgSzqEYN88NcrumZJy82lwTkdVcg5FTYqIRej6gJRYGIdJtdn1423O+daDbvWnse6ZReueIbKOMZIP3Q/5q4vde/PWvLhjgVVBAhFQnxtGKS5rC+UwtoJcwEVkyQ4hFD5ElAmuILP1GpijwADz2oYNWvKc8JKM2mr39ySd+gm26y+sNPm1c93KCAFnQdt5+yaVv/OE3pw0XGjqqGKMQcHo+0L1AKgMKMbkBwoNQPoQim2uS38pvVJYJIEmkMZkphgUgjjGb+Rh52NfPH/z5b52Tk+njuplxBByRzfgA5qX5+plH93j+2kue7Feei5KuIKWXD6cXUj5JLI07EVmy2CQuX/E4CApjW6sBX6cmV5Ze0pQ/G6oQUcygSu2YXo0xaO89Hxlz9LGHsAFjl+VlDrl+Ni4C8R9uPf7F39527ZC0AyLqgk8SfYmE4EXTacVTs3Mh6XFhrJ1DG5HNOZElECilQHOBQASIuitYUOqPnb57wT5OP7Zx75dG65kjso02og3aH7KZnHrlpU96b/5rTKvqhhYMUjN4WjRoj/97t+pENuFA1eNIOTe5gJ5WCFMKNymwgAwSIhS9AqKqMikG1bCAd9IUO3zuS9f2P/z0E//7N7kzHAJ9FwH91CMHT77x8rtLy2YXgqALWlbh86KJunqxLQaNRQrJlYnC0r81fNMhZnRk8xuRNdFqsrim3HrNECUKatNtZm523hU7s9bhC/vuqLuWOQR6EHBE1s2GzCAw7Yof3BU9+ecvtied8MIAsaSCpt6FG5npylppaD21wEZkPZP7R9HXQAKhtDmyiSeRIDVRqEKhiO6uBF6xhKof4l0eYJdjjv9m8WOH3rRWGuQu4hBYzwjo15/d5ZnLL3ug9b2ZgweFMcpqCSQVgyKApwKEpFKgOVJBclvKFEDSQekF9HNa7OWZyGotIciyN9VINUc1VHX94wAAIABJREFUKKJt14/eMfjblxzFGLNuEe5wCPRxBByR7eMD5JrXg0D69/uOmXTthbeMZFVoD8aK1ed+rwrkfKFFKQSUI0vbpZGwRSye4qawJSAiC4VUpEi5RsqpCAxGgogpm5LR7RWwuHVg167fPOEQtuv+D+cLPdfbrCOgZ7049vmfXHZ/26L3thDlxQh0BVxIU8AklVUp4NozWtP1oi7KHaeD7gUisquqIZt1zN7ffqlTFPwAupKizAN0NLdh3P9+5ZvsoC+7xW2jDXYD98cR2QYe3Ebrmp750qYv/+js50uLZvULPA2G1FTc9hYob7Q+/3/9oX7Ti5lKuyitwMoKMXiScmS1ichKnppoVEwFMIxyaBl8SWSXQ8LHMtYEPXKj2Vt8/RufZOP2fi1P+Lm+ZhcBPWvSiJd/8fPf6anP7dZa6TBRVcEVGc+aKKsicxCjHWt3bOrPCIrKGtuQWmSWzsmzlizlyHII8IpEd1jC0iHDF+1w3Hc+zMZ9yD0Lsnt75K7ljsjmbsiz22GtdTDj3BPu63752f2aRAwfSa5TC2gke0i8fSFrY4hAPyeib9ULSI5LcVsUZn/HTfoBUwFSHWIBD9A0frfHxhzz9UPZ8C1cXlx2b5FctFy//vrAd399+53vvfD0J/rhPYSoQAsfnHvwEwEtbRoBRWZ7K5oY3VRuiWwopSn2SrjVls3jYXSnjXmKgB8DS/1myB3GP7blOVfvzVhewwN5nAnZ77Mjstkfw1z1oHz79We98cffXtQslyKQZfMQzvMjt953QdukRkuWZIZqW6dGsaBWyFIjs/WyFkpBMFqaykcH9/BesQWb7L33L4bu/aVvsLFjo1xNKtfZzCCg509p7rjjt7e98/cnPtemKygEiwGWQPMAWvngCTNElrgpp8ouZXci6rsWRGTJ9Y6ILP0670Q2URKBXwCLORYEJQz/zGHfG3jYsRdlZkK4hjoETNGmOxwCGUJAT35qp+cnXv6PwqI3S+08oZBCrolsPSpLRJYOIrIkw1WPvhKRJW/5ekEL5crWD4pMeT7DskoVqrkNVRFi0MhNnm7tP2RJtZPOZIBgpiYmpmty609PhyCnpJWfN0Z63sqBreafjOJnRMOpA+7PdYqDpgzS1Rynlf6cnT7W0EOZ1BhbP29nlbBq/UZTQKoUiido9oWKF743ZMnMGTs2V2IUqFDLi835WnqGyDJKr2EMnCl4RkfZGobQ9c131Aq+QkkFYTUnvBxHZEncJCw2obucoqt9WHXcKefszbbf/emVv7XdmQ6BDY/AKryLNnxjXQscAlpr8eq5p/6z88WH9tik5CGNXWGtLfqyc4MsaonI1iOvRBTqubR1oru8wIWitErC9wWilFYEHMu6ymhra0dUlVCam+1aivQa97B6hbf5s/aFNfkza5FL3+X+dDis3Dyg+VhfV0mai73eRiYrABzc91CNIzQ1F1Eud0GoFP2bikC5glAIRDK16TSa5qkHCEtkhUwAlYKWW/aeIKLMa453RNNJZ9k64uX1sM8BDuUFWFSJ0W/crv8affSZH3Y7MnmdEdnttyOy2R273La8866bz37tNxPPH8kTclTM9WFJUw+RteVfNr2g90Hn1H9W/9OYJyjfVC1HUSekjtHUUsTCzsVoam9HJSLZrsAoHVBxmCHFJkZGFsFJTVzeN2TAEVhH4FedwNNEtTrQtgDL5nVTkaIJyDKOchyhtV9/LF3WAc/z0FQoIi13wydLqpTKFTm08FD1aVbah4FZeqWpFfr3bMoN7VhwBfjGQEUh8mpWzr0KwfL2IKkT2bIGljKOnT571Pni8NOcm1feJkID9NcR2QYYxLx1Qb/y+O5TLr/gn02L3vUKxs3KkjkTYTHRwnqsh1utSPOmtAUg9VildcCy5CPLR53I1m9kswFfkxayeKzYux4SS7/04LEmVMtlNIWAH2iUo26wgkBnEkEEBXAVQChh8mkpTcHTEprFSEWNyKqwppZgv6tOmN2fDo//Ph9o0WWJrFBUdJSaxVL9HqUIKjwf1TSF8ENISkNIJUKfSCylDjAwWmsJgaqvERu9ZImAk1EKg9YasXkwcPiUhUBmIcqOCxFZSr+p71hk9RnQ89z79x68v3agTlzrz4z6c7ITHjra2tQuJ5yxJxt/gEsryOpkyHG7HZHN8eBntetaTwvfPPvKfySvT9m1pDsQQi7fIIzSCsJiAdUoQeA3Q5PtlbGoTKB4bCKJRGC91Dcak5Qzl3Uy23sce0de//v4WjJvD0sg6jqbtB1LBCBILdGIBf1bIlS0lZsi8qTZsiWtTiLELnPVZe6uVuaytnmrtNDkSMGV3ewXZjVm0wFonlF+q8n7ruW4EgGlRRvJa5lZa3SS7aLUWM8uX9jW1rG1n9XnqY34Zju/vnfKEGFQj2Ibt66axjSRfUp5Jpkxkz9PaRZMQTCS54PRnV4iCqhsPe7Zcd/60T5s6NDu//7ccGc4BPoWAo7I9q3xcK1ZSQQqt9303Vfu/+2FA+QSNPEqJMnp+BxSJ+CeQFRN4YkmcBmaK2oeQ4oIkifmReknIYTyagVM2Y7KriRkH3hanfjaaI0lB1bGy+pvEpElThF5VP2tUEgt4aB/04uRaVoQGPrgirBcEdoqzoPaEqrXbgkjOShliaxdZFkiWydgdSJb14G1drP5zHO16Rj2vjWlbbV0DPoJ7VIR2Te582axUFM0ITy5XbBSLjE5pcwXBYz6whE/HPDFEyesybPEfdYhsKEQcER2QyHvvneNENAv/Wu7Fy676JmBnbOLLYjQRVJcBQ9g0pgkyBQQKBi/dXMw2gqnLXGbR+ebiKyNTuTZ3YdehvSuI3ew+pYj/T01EVlyCCOvevO+M/mLRGRpmzapKRgsj+jW7T7dn9b21OHwX3EwOqZkSGAihT07AvWcbxNxrJHZnoeF1YEVWoMyaunzdvcgjwdhYYmsKXarEVkbGe/Jna8vVm3ufD2X22Kf6gCLm9uinb5z3u5s2z0n5RFF1+fsI+CIbPbHMJc9oPSCGRNu+JOc9PQ+/XgF3awM+DWnq1TDZwVjxcqNTJTZoDQuVxElyVFBiPQaIkd27Qy+tbm1qQU2dzCmjAJKwTBw0dau3bINJW1H9mzjLv9+R9z+K3FzBPd9BH85sepR2ag7b5lZV0sHMEkGvdIFaI7WyVlSI8Jr5z7I4lV6agLqObArkP46bh9QC5DwAMsQorTNDo9uPOHb+zPm9KOzOANcm52OrJsDGUZA3/urE175+c3X9E86kBQiKJGCkRyPEgj9EhAzk3Nnq+3J2cpWK9MDn4qX8myk0DPsPX7zXCn4NetO0o0lnOqpBkRkreVnPa/QphLUMpBXcUt5tbIpXepCg6Uu1FUEyDa5vitg4rJcL8+btYTWRhdN1KUWoe3ZRclvWpC9h+s7SvWo9IrR6bpurlWDsPezgVEzlL0Q87wW7PzFI08KDvnGNRl+Fbim5xwBF5HN+QTIcvf1tMkj37rsguf07GlDg1IKRsVcMgGDD8EL0DHg695EFkiE1UTtHeHJMgZr2nbaaiRyYLdrFXyTeaGQiB55onpEtp6rWPevNy/FXkoQa9oW9/l8IcBVzSrZqIdQmkAvQ48amaV8bJvv2ZvE1tUOjMKx+X1ejxVVWqz9tGWqdoFK+bAk7SC0NCYTtLCnJQEVgHUEJSwavPG83U84fQ+21R4z8oqh63f2EXBENvtjmNseaK1Z98QLbp7x9z8f08w6UWARUpVAMx9GYVIyhDUia+mZrX620RwriN5TtZ9PGA2RrW3VEpG18kQKsaBIj61sNu9FY/PJakVgpGZgnb1IwcAdDoE1R6CmPkA5rzUFAptmQCTMFoDZuSiM8UFKOrLmXzLnRLaOvDWhoP9pgVnPPa4TWa9mV03PRGMHoX0sCEto2efA2zc+9pwj13z83BUcAhsOAUdkNxz27pvXAgL6kXsPfPEXE+9r73yPl1QVCRIoz0OiBHzuw5OJiTTa2A2RNmNcCbC4ltNoi5nyetSJLAVuTJTabFWSZaiNyBKJqB+2OIeqyT2EqX1hKkZyXC5VwKk2rJ5qhWKkhkEklQiqVcvoMfToRWTr01ALS9JA0nnM5L7nOSJbX2T2SG5ZMishTIpGzCUEo2V9WlODoBi3hwQe5hbasOO3Tj3Y+8hn7s/r88/1uzEQcES2McYxt73Qs2YVX7nlR497k57faShPUZZlqEBA+iGiKEKzyd4kqSjKwyN3H3Kqojy82BIwnV8iSwQiURJNYRN0NYFKNUQhQJxGZpuXCyrsIokfax9KWp2mQlxzQ2RtRJZ+56r0nUoByVqs6jygaD6tnhS4Ipk3uj+JoPY8zkjvVMsUnHZSaosqSRqpfhFJSulExHDzm1rQs4CyCgaU+2+1dYVZjJK6CCPJQRkZFzSZaHiFfphfTeFvscNLm5956YfZoEGduX2BuI43BAKOyDbEMOa7Ex1/uOXUGbf99PJNuEJXvBReyUMXCatz2gInAwQrH0UPfVIrsLmdqXlh5lWD0kZyFFIm4XEBVlbwvACR4JCCPOlJyUwhkLZQjs4lckupGXT4NVku+nme5cvyfeetae9pbtn7k3JkTa52rZjLym7VDmPklUAIAa1SeER4IZAkCbToKVZc09Zk8fMWL3t/0n1KFryk1kI+aeQFQylCwpPwiPRrDak8pH4z5kmBHT9/xNn+/37rwiz227XZIdAbAUdk3XzIPAJ61otjp04478nW+XMGeqIK4St0pgmCIICX2BzOmkEVfNoSNz+xUcY8E1mSI0t5FYEn4FfIDrSARYqsPjWKLEComNGNNZqddSJLRWBEI0wQjEFyuzXsDofAqiNgUwcsEasVHS4nspbYplTI5TN0RmX4ATM7BGRLXTAOYESDvdzqyNp8WEtkpYgNUfWNkYQHrX2TaxxRzpBI4EsJpQjLFiyRAbr7D12y61nn7MrGjH9z1cfNfcIh0LcQcK+gvjUerjWriUDHNeffNu1P9x49osWDTjspUxaM93irm6IHox9rZXxsfme+iawmIstiCIpwlTkirwly45ELFyc68JUvAsl1WIvIkstEyq2bl5WMtY+O5cXkvceNlOrd4RBYMWTSk2y9/OdUTKhICcraz9aKDrnm2qtZ1KY0lTyBqq7qQsjRwnTaPWdWe3MUsSI3mga5XYz2JrKpF9OyEp4kcku20YFJp0o8QOkYQsZgQiARbZgjBUbste8do0469wjGnAihu1Gzj4B74WR/DF0PiFA9+8hHn7rq4r8PTpaxJlVerkoAJWoRQ+scRPl4RpOS2FhNoibPAHLuAZRukRagh46cPfik4/ZFqUmBhQw60MbHsp6ciMhCRa6/kbX+Rf1n/w1E44f5H47l1/9vF3G/bzwEavOoEPfMj9o0sxOt1xyLlml0LS69ds89v8TMmVsXq13wNcnt5VM5wxJZyi3WSEXVuBqS6ohQAlwVDJGVghYJCQTJEoZFLE59LG0ZJD90wrcPZOP3+WvjzSfXozwi4IhsHke9Afusp00Lp/3uhj92PfvPjw8RKZCUEQhSLyDrRgaupZGKksaiVkFIv+bs1YBgrGSXrEC6ByUFVNqEyvBRb4659Y6xK/lxd5pDYL0joPWUYNK5E59g017fuTXqgs8iCO2IbOL1JrKUJxuaSHWVpbZok5wN/SLmVDladtj9H1v+4OR9nZPXep++7gvXEQKOyK4jYN1l1z8C6WO/Pfqlm6+7bWB5MYI0gi8YIhRMkRcJgpNSQeIlpsreT0OTS5bvimfKUZTQygNjregevvGMza69Y1O33bj+5677xpVDQM+f0jz56isf81+dutMARfdynNt72ERkFeXCSsR+FZolCEhGj3ZYVGhUIGKklEGLUHBUuY8lfj/sdNgxX2UHHvmzlUPcneUQ6PsIOCLb98fItXAlEdCL32qbcuHZz4kZb4ztTyVJaQrJrLwWRW0oIhv5lD3L4UsisvXK6LzK9yhTGFeNUjDVinjTzWdudsWdmzgiu5ITzp223hEgIvvqxGv+yV96YYf+MjHOVT3uVuu9ORv4Cyny6kMzIrIVo40dSA+M0qlIL5ty3z0PUVxBIDg6RBHRsDFvbH/q93Zno8ct2cCNd1/vEFhrCDgiu9agdBfqCwgkv7/x9Gfvvu2ygVqhOYnhq4T8vExZEr30zP/MA5dFU3VPEcn8RmUVNFdQkmSPCqiMGjtrzNV3jXZEti/MZNeGD0JAz5tcennitU+IVyZt319SMm2e5d8oz1+Y3Fgpus2fQRoC2kdM9V4kk0dOaZLSqgTm8gBbH3n8Wc0Hf+ViN7scAo2EgCOyjTSari/Q058d+vzEK5/2Zs8c3RZX0JRG8Iz7FEVnqfDBaixCh0a+R9fkf/IKnTE0IB17FBCNdEQ2r/MgK/02qQXXXfW4P9US2fxGY2nEyOqFJERSMFaxO08ytFbcxmIa8DRDJZLwm9uxbMDQd7c5ecLubOz2s7My3q6dDoGVQcAR2ZVByZ2TKQTm/+LaH03/413fH6LLCCkqq8n8gKIS3Hi0U+6YqAn6GzeiHDsDrUBkR42dOeaqu1xqQaZme74aa4nslf/0p07eIe9ElogqkVby8SJ9XTrIsISUy8iNzxqZAGUVoMvvh00+8amf9Pv6d7+drxnjepsHBByRzcMo56yP+pUXx7543Q+fblkwq39JpfBlamS3UmgoFkBqbawc6UFvbb7ye/QmsvGosTM2u+ouV+yV3+nQ53teI7L/8KdO3tERWdLCJgtpDj+16iyxkCB96DqxVZohKrVjXjhkyYdO/N4ebPtdXu/zg+wa6BBYRQQckV1FwNzp2UCg49aLrnrzL789aZCWCCVVNlPcgqIVtsCLIhb5zq+z4/i+iOz0MVfdtZnLkc3GHM9jKx2R7Rl1c+9yCa4E/KRkd5xEZNRZ6Gln7m8lsKjQjpZ9Pjtxk2NOPcHd23m8axq/z47INv4Y57KH+rXHt3jhJxc+1bp0TnspjQCS2mLCYEHa/HURdWVKIvJ7vI/Ivj3mqrvGuJddfudDX++5I7K9R4iKNROjXCDSVrtYF2UoMkeg4lYmEEsPi9tGLNllwqUfZqO3faWvj69rn0NgdRBwRHZ1UHOfyQQCi2+95Np3H/rt8e1xNxjIAMGqFFC0grbhKN2Att7yfDgim+fRz17fa0T2MX/q5J3ynlpgcvtrRJbLFtpeAeNlSB5DcY2I+6h4bRj0oX2vG3zCuSdkb7Rdix0CK4dAvt/iK4eROyujCOg3nt/qufO//eSAqKNfIKmiV0FoisFayS1j516L0ma0i2vc7PcR2bfGXHXXWBeRXWNY3QXWEQKOyK4YkTULc5LgUiVjvQ1OSg4xUgF0ekV09Ru9aPyJ3/so22bXqetoSNxlHQIbHAFHZDf4ELgGrEsEun528U9e/eNvThssNESljMDzoLWGJqcvR2TfnyPriOy6nIzu2muMgCOyKxJZaImmsAnlrggF+jPqhF8MEKcS80UJow857KqBh596yhoD7y7gEOjDCDgi24cHxzVtzRHQL/1z05d/evXjhXnThxUrnfBFAWkaIyz45k9ywMnz4SKyeR797PXdEdmeMTMRWJUaw4PmUhFRnEJxYbSyy4lEddimC7Y7+bsfZlvt9kb2Rtq12CGw8gg4IrvyWLkzM4pA553XT3jlNzeeO1xIqJTBI+UCHUFwQNG2XI6P9xkivDnm6rs2d6kFOZ4QfbzrjsiuSGQ9CKQqghYpNBdIUg8Im7EwEdj604de3PSV087q40PqmucQWGMEHJFdYwjdBfo6Anr25JEv/ficp7z3Zows8dBoLOq4DN/jrthrRWcvR2T7+mTOefuIyE667spHg6mTx+e92Isisj4CcF9jSXkh/OZmSFlAhyxAbDRm1rYnfGdPNma7WTmfMq77OUDAEdkcDLLrIqD/cMupT9x5y+WDBEMQVVAUGjKJwVyxV2+LWkdk3c3SpxFwRPZ9EVkpIHmKOIiRCDJFaMecyMfOh3/tjKbPHnlZnx5M1ziHwFpCwBHZtQSku0zfRkAvfqvt9SsvfnTxi0/vMLLkg6URuNRGUzbPh0styPPoZ6/vjsiuSGSF5ohkDF4SqPo+5ncC7dvsMXmL007biw0Yuyx7I+xa7BBYdQTy/RZfdbzcJzKMgH74ni+9+LMr7xykupCWqwg8biVrcnw4Ipvjwc9g1x2RXXHQfHhIoJAgRjVswmLejN2POflwts/n7sjg8LomOwRWCwFHZFcLNvehLCKg9ZRg3iU33/Pec48d2A8MoVZQRlMW4IqDa+tdTgcRPDJM0LCWtuSaw3QP8aXfk5dC1okw9SGlrjIP0YgtXGpBFid2jtrceETWPm/o+UIHPWPsYZ8v9b/X/0Y2tL3PY+YZxsD8EHNTjfZd93xokzO/cRBj25IvtzscArlAwBHZXAyz6+TyF8GrT+zxyKUTHtpo2bJSaxoh8aWRrynKADpJwT0GFgCxqpi/J5rMHgWYCozwuC/pRaKQeKRDqwz5zTKZrRNZcIHqyM3f3PzKXzvVAne79FkEehPZgWlk7sHsmvPZxTIdJANIJFYou1g2OyVMwfO5kQlUSoIJktbi0EqA07n0d10FFyGWlYHq0I26tzvtjP3Zth95vM8OoGuYQ2AdIOCI7DoA1V2ybyOw4K4rr5h+192nbORpJOiCxwBf+WCSIpMaqY4hEUEHDCkYFAS4CuBJH+QQRkYKiZc0CJHlSBVZXTLEI7d8c4wjsn178ua8dYbIXnv1o+HUF8cPkI1AZGlHiAHaM/+TjbZdGRPJTcEUPZS0sdS2RNaDVswQXk4/RwIpipgXedjyU5+bWDr2jONzPkVc93OIgCOyORz0vHdZv/vyqCmX/vhxNf2Njfpzq2AQ0QtEewiIpaoUSkikQiE2O3kcgfTgSQ5B6QeA+R1FTbIcjbXzgEOa1AKGaOTmb256tYvI5v3+6Mv9t0T22vcR2fr2fF9u+Qe1jZICaFeHorCeibZGwkZjPZ0aO22eSjAuoLwAUjNwRQ8gCW6eQhzcK2BeoqA232rW9scd/xG26Z4zs4aCa69DYE0RcER2TRF0n88kAvqPdx77j1/ccP2oZCnahEQHactqhpL0KBsW8AViFSPxtCGrFIn1au9L4rz01+xuafYMGeXcUUSWiGw8Yss3N3NENpPzOS+NtqkF1z4aTH1xfE9qQTaJLD1XiJDaxTARWaDi045PCk9L+ArwNQODh4gJSA0IKeEzQOgEiWaIeSvm+gG2++pRx5X2/8YNeZkHrp8Ogd4IOCLr5kMuEaDCrzcu+8W9ybOP7N+uykh9W8wlInptcMATiNMEmnJmtUJAZE/bKCwFbSmKQn9C88wSWiLi9PKkqmcistVRW7y51U9+53Jkc3lHZKPTet680gvXf/+x8JXJ4wekkS3KzOhhiWzt0BypABJONrMUqZVm98dXNuUghYAGowwgBCxFkMaI4GOubMaAj3z0wZHf/trBjI2NMgqFa7ZDYI0QcER2jeBzH84yAnrS33Z96bpLHxbvzWhpbiog9ATS7ggCHsA8KKXAKTcNtJWXUkIBJFV3ARCGxVI8JftENtWUWyBQ2Wjsm1s7IpvlKd3wbdfzJpcmXX/NY+Tslf1irx6VApPZVCvwov2enueMMDtFDD44p2eNApMpvDhCNy9gafumHTueduqn2LiPPdXwg+866BD4Dwg4IuumRq4RWPLLi8+b/uAD55TKnejncVTibniUj5YyBCyAn1IchPJlicSm0LWkWI9CmRknsjTwFIWmHFkpOKobjX1z8ytcjmyub4g+3nkislOvve4xf+rk8QNUhITbXZKsHnU5LauAouBT4SUtmRkHCaQoyo9VijQN4DGORCskiTQpB93NAzFivy9c2Hr0CWdntf+u3Q6BtYGAI7JrA0V3jcwiQI5fUy49/yE17dVd2nUEqcsoBD6q1RQFVkCYMnCtEXnKkFnFre6sJ6kqw24MZjVXlkgspUikiiH1KCK72VtbXHHXWEbSDe5wCPRBBCi1YOq1Ex7zpr48vr+qQvIks0TW5trXdnSYLe4KU6tpnXLPkNnE15AyQUCpBkIgVRyR4hBN/VAZOGLSVqef/XE2atvFfXCoXJMcAusNAUdk1xvU7ov6KgL62Qc//tJNE//U1DEvCFgnAqGgEgWRchSkbwirJbK05WcjJnW9x77ap5VrFwekB4gAEQO6hm/01rZX3+2I7MqB587aAAgQkZ008YePsalTxg/mElqWQSJ5WTxsjrrVpaY+CK3NAlkoD0z5UByIfY0UEQJPIo4iCNaEatiK+WFLtPuxpx/C9tjvz1nsu2uzQ2BtIuCI7NpE010rswgsufGSy197+N5TB4kyvKQLnlYoegUYhkdRS+J85n9y+7Jb8vQKogKw7B4cAiFiqRBxDbbRpq9vdtVvt8xuf1zLGx0BrTWfNuG4p7tfmrRLf53A4zLTRJbGy6QVLHcYFBDSalZT2kGVVSECjSTpRKm5FV1Vjpkxxw5f+srVLYefcHKjj7frn0NgZRBwRHZlUHLnNDwCeu60QZOv/fFDbPrU7UtRB0KZwBcUGaGuW9cdsqs1UVlz15DKAb2AsqslSwkETFEGsIYIffDBw+YO+p8vHoXiABKvZOYNao4U8FJA+pSDQHDYf5uXr2j4uZHbDkpT0bjyh6hVQq78J8zUMpMwDUlTqldKSy3Kqql2n+aeYtCJRmVJ0+w/P3BlMuOtMc1KQmba2Yu6bIlsKuguJKMDD1z68GVgUNQiQaqrgI6RBgG6vFbEw8e8Ou47Ez7Gho6ZvypQu3MdAo2KwKo9qBoVBdcvhwC9NF548OPPXn/Vfa2dC5tadQwVdYF7wug80guGIrO0FUiR2boBjyWyWY3KKkBLaGq/0OhSAnHbSL2sqpgtZWOGY9CLVvHEuA55MjR9jwU5CklwRRXV7nAIrB4C1uKZrFlpdcTMIpGjtMylAAAgAElEQVQKKklLlVaRlMPNPc9YRYeCo8ASsGWLMEAlKEAjJX1Vsz2fvYOeK76mhbFC5Nk0A8JBkAUt5cESNqRS4CnEaYqlTKCjdWhl95POOISN/+Rfs9dj12KHwLpBwL2D1g2u7qoZRaDjzuvOfeGeuyZs2sShOxdBcJu7Ri8X44JF/uYUh2W2CIyceaw9QvYOU+3tSUgVgQmjXIkUrZDaN7a9KpUQhtKSPBcRWQ4hQ0s4eAJpCt96it6yh4Br8QZFwGx3EFklMuuZ+4pSd2jhZPyi6ZAanghQlcY/GjKtolkotCEBUokUobFtzeJBxV0eGbEwoOxZZy9hXL56jBK4ktDCQ+o3YY72MPqAQ3489OjTvpvF/ro2OwTWFQKOyK4rZN11M4mAXjSt9ZXrrnug44UnPzLMkwh0BZxempoEyanC2EZmjSc6ZcvWXsZZ7KwhskwiURGFnI2DkJBFcBaAcVstbQ7yfCcMwCHSkum75tbn3njEm8MWrbg/HQ4rOw/s/LMpBEx5JifU5KBTFJK0m0mOigUgRaoEPrxCiCipwmMJgqQCYc7KLpGlRXAgLZGNRICE2TQdypdliOlpY/h8hABLRBuKW+/wzJYnn7wvGzB2WRafN67NDoF1hYAjsusKWXfdzCKgX316/POX/fih/p0L24vJUghESITd+mPah5AeRI3IEpnLso6lpwWYx6C9FGmcwksL0JRCIRRSeotyDcVTS+Yp2UCWjBkEY2QiZImrTWx0BG5lCZw7r2fBo0kFxCwMaf5YImtFqWpEVgrQekryADwIUVUxKBXXS6vwBNmU2B2SbB4KgvLMyfBAFZFyjthscETwdMXIcUEJVMI2LGofvWiXr55wINt5n2ey2VfXaofAukPAEdl1h627coYR0Pfffuxzv7rl+kGyAwVZQUoJa9pWFFNE0tI3uw26Ojqy9sVt3Xw21EFtoBxYzkmAPUEaS7QEzaD3Z0SR2jqRNZGzxOQrQhdN/4WOTFrFWiERNQzqupqEq8kPJMjrT6gaXiZ31xTImHi4O9YSAr3ncH1u0jjUf26i77UFC+FP0dL6v9dkHOrXN8WUjFJ26kRWgSsNn3RVeQDNA0RS05ISYRiApzHlvkAzsVr331qCrUbA61ezmLz/efD+f/eoNCsQkWeKL889jzwNyWN42rrNSpQwnzdj3BHHHlf49FE3rK12u+s4BBoJAUdkG2k0XV/WGgJaazH3pvNunfno/Uf3TyoogSRxGFjqgfwCYpQRFhjStBcRNS9jakI9Ovl+omrz32xxiyWy9a3UtdbwVbyQJS09hKWHYL+/7fV+2lQCW+BWj6yt4pcuP92+yImSEi5URJdwKh7TCKWibAdoTv8yQmfmHJ84de1cUxiUYYvg1UVtbX7OLEaMMD+Nt42MmgWLORQk/WfyVqkAy4w8PAU0JdosKORaLrbqIbY1vWbDknusoHv/foWFztoEZSWvZbGqq3bYhS2lGpnFbe0aBtvlzwSLqc0JtoQ3kgpBUIBI7P2kqIiSPq0ZlNeMRWkJw/b4+K+Gnf6DoxhVfrnDIeAQ+DcEHJF1k8Ih8B8Q0DP+NeyFG6542Jv7ztYty8poMdXEJhyFSFQhEcMzJKv24q9FlXouV4/Q0MvN/pRIQm8im/XUhDWdPDYfkpQfKBoHU71NL/lCSlFZbV72klkySz8nEkVoxzXliPr324ievY77c+Vw6F2kaJQ4DMaWyJoFFxErQ2RTo6OshNVUDiRHU0oRUyARVAC5prMgq5+nHQ1bBGqL0+ppRpbQ9jj/2edDzzPASvaZhYMfoFqtIhRUNqlJhwHCC9AVMSxhRYSb7fjaNseeuC8bs92srKLk2u0QWNcI5PYRtK6BdddvDAT0s3/d66lbrr9vxNIlbYWuxfCEAg84lsYVBMUCWGpJAx1133ST87c8baAW8apvn/civr2rkxsDrVXtRZ04kX6mJUQxMVUAviGy5DVPW60w+YP0G4rIEvmnnGVzniTlsJUjbo7grohTfWFFBKv+v0kbUJQ6UpN11dLiTUSW22JHGquQmC1I/5TUK/IaKKwrmNjdC2tsYEkq7SbYNBhaIdhF2gelIBmlBkXpEgJRuRutYRHdVYWo0Iql7YOX7fjVr36O7fGZh1f1znLnOwTyhIAjsnkabdfX1UJA/v5Xx73wy5smjuIViKQDjCvEIoDiAkzWDRFsWgHluy2PEto4jHnJ2S1Gm1Naf6n13ipfrYZl/kM2okUveysMT4TVdspEXrWNZEuuDXElukTnEXGqn0fe9DXum3k01ncH6hquNuptUzvMJr6yCwbCv56PTAsJKnak8iQ6i3RO6V+kL6xrygPru/194fuM0oLBrpZOQGRWAYFZYPWkEJnyNRP1toeV7QO01kjTGE2lApjSqHZGYK0D8S7zsdOXjjxJHHLMNX2hn64NDoG+jIAjsn15dFzb+gQCWmuv4/oLrn/7b3/42nCvAp5UgbAJ5UhCcNqKpWbaiGE9v9BuzVoiW9/CNYSBW2ewei4tkTCK3uTx6Cnusi9+ZvItLRL1Yi+mKTeTIrCW1ArS3eQ2QkiRLp8IVU7xW9M5QxDS3KsvIHoUA/TySDeZGJNmcsI5EtJxNQVZltDSZz2d2Or6HB8mt5vmp8GAm4UVzWePTA3MD4nsWrMH2mEwRLaWuuFzASUTaHISDEuIUoF3lcDIT3/mZ0O+dubXGasL6uYYYNd1h8B/QcARWTdFHAIrgYCe/eqAaTf/5P7KlKf26EcvbxGaaMq/HbU0A1OeVCvqMJGvXkU1PTa3FPmy+Yh5POrEngrHbASWotpUhW63Y+nhZAq+zAKA9EYp3cASWhP4Xp7Laf++PC+xnp/o/vx/cTF0tDb3TOpAbdeANsxJqN/8TpPElY3W2gWYXbCl3DMLOJ/OyzGPtcod5HTXMydpLvuSFlm2sJPmbw++dnFrUjdozjMNIrNJlKIr1YhaB0FsvvUzY7518kFs+BYL8/hccH12CKwqAo7Iripi7vzcIqBnPLXVy9dc/lf1ztuj+lN0UCbWSrN21Ldh7T97imZM5Ipe9rVqZpvzaQlZvbAmn6DWwtE6WU5kpWbGdjTm5DUvENYqZDQjkXhLZHtXq9flmpyO7arr+NJ8rZPVuvUyRWUppYCILJEwSSkfpAwhyMUuhae0Ue0wDnfk+lbTf83j/K1bzNocYps6QHhQSoGfUuqFJa0m95t0qGtbB2YBYFIPbGoBSeCFXgnztYfFo0bM3vXMsw5iI3eanEdMXZ8dAquDgCOyq4Oa+0xuEdCP33/A07+8+Z7SgvfC/iKF1hEoZtUTVaVKe6Jc9jVGRNWTdruxfrPVi2eshmxWxdzXxhSwRNYQVCmhNPmHecblaJkIkfIAXkKavTYiS0TKJyJFAvK1SJctsslpSHstDIFJCyAs4dut71rBEhFWmrEanpFAI0OMgkrQLKvwl+8u0Ja5dbzL40FElAg/HcbIwEjB2VQXKoij2HU9nzsWNk/e7j5QsZx9NqS0MAuasCwS6Ow/qLzNMV8+PNzr0D/kEU/XZ4fA6iLgiOzqIuc+l1sEOu795ckv/PLWK0fxBKguQb+igIxiMFXzifcFKlIiCAtQqYZQnsmZowIZE6OhPNlarmxuQawJx2sq5EoSBMKD9AIsqSYYucP4x5e1DZhT8Yu+kL55RkkR17ZkCU8GIanoSFAR2AcleOQZ1pXvuzG8IFypaJH0gT1oqrqHMgsGo90riogrXWgJdaoWzB1VfWPKbqW0wgLPRyJjKPpMTt8i9YismZ8m5aInX96mEikwn6Oj2gmvpWh2ZNLuGC1eiKLkSCoJ0iBEV9CEuV4Ttv/84We0fvZrl638ALozHQIOAUIgp48gN/gOgdVHQGvNu2+/4fLJv7/j5NEljnjBHAxqa0alqxNh6CFmqSmMiYkLcN9sNVJUlvJhDZHtA0YIq9/7tftJ7vnQipmoX3cqERdK2PrIr/8P+9SX76Miu7X7be5qa4CAwt9uP3j6nT//jVgwzyNrVSM1JfzcEln7AqVUjBVJrMXYLmpjFoOHHJ2VTjQ3N8PXAvGSbrT7LVDcRwcTmOuFGH3QZ64feuS3T3TFXWswQ91Hc4uAI7K5HXrX8TVBQM+bV3r3jpt+Mefxv3x2uJDQnZ0Y2FxEV+di8FAgDRmqFN9ixMWIyFr9TaMvu5zI1jVQ16Ql2f0spQekUQrGOLwgQKdU6PSasOO3Tj6EfeKLbnu1jw2tfvR3hzx/41X3DKx2ohgwMCmRKjICyOfR49pVy3U3hZsmf6AmuZdCCYVYVVEoFBBXYrOgLYgC4s4YYfsAzIwVhnzso38c8cXDv8iGbt+dTyRdrx0Ca4aAI7Jrhp/7dI4R0K+/PvDtX179wMLJz+62cXMz0N0BkZRRKAosTbohmouoklwUhCGy1tGLUhJr8lFmC9eqG+TxIDyawiZUKhWIwEeVeViQCOx4zDeOYQcd/dM8YtKX+1x55J6jXpx42c9HsCp8LZFEZfh+2JebvE7bVlcjoC+hRapZqGoGTUTWFHOm0DyB53HoWEFTbrfywaiQkYeYW03RusP4yWO+esz+bJNd563TxrqLOwQaGAFHZBt4cF3X1j0C+uWntnrplzf9Wc+cNbolLptimNCTSFiCCKmx8KSIrH3JWeF/K0Df4yWfVyJrCIAQ6Cp3gvsedNCEBbHAToce8T3/iFMvWvej575hVRDouO+2U1+9beLlw3QZvhH6VVaTK6fFXnX1EbvjUrvHa45+VqGAikAVPMGQVhJ4fsnoTy+pSiTFEtLBw2fuePQ3PsN23HvSqoyDO9ch4BBYEQFHZN2McAisIQL6pUf3eGLidfc2LZw/qD2qIFQVFJsFOuNuKJ/Kma0kjyWz1s7SVts7+S2J1KgO+L4PJUIsinyM/MQBNw04dsI313BY3MfXMgLv/eLKy+c/cNepA+JOaE+CkfxWjomsjcjaBWlQ23EhaS1TyGl+TnJxElxpBCxAdwLEQQnzSO1g5MgFux755S+wXT796FoeJnc5h0DuEHBENndD7jq8LhDQ/7j3wOd/dfsdbUsXtRYrHdC6gqDIEGlZSymw0di6kxIRWetilU/pIjsGlFeh4HkCqYyN9FZnXEDz+A8/tvG513xsXYyTu+bqIUAFjq9eeMZ94eQnDuwXdSLiEpLMEIS/ehdskE8ZZQIjw2UNIqwVrQKZnph/RTHaSq2odEaIvSI6wiIqgwZ1bfuZg78cfvLLv2sQGFw3HAIbFAFHZDco/O7LGwkB/ae7jnrh17ff2Ny9tBDqbviaDBNsxMZsPeq6PA9FbNLlAurvJ7P/LmfUozdbT0Oo/5l16SNJMmW+gEyqYF6Isi4g2miLt7aacNEurN/oJY00P7LcFz1/fvPzF545ecA7UzdtjjqgwwCp8WBojATv3vcRpQPQPdn7HqsXdtUcZnvy2rVnF6jaGqPQLou1orWj7XOGSlcFLaWBWKg4lra0Jzt9/gvHei4HPMu3g2t7H0PAEdk+NiCuOdlGoHrvT0/41+/uvmZg0oGirIDk4quVCvo190cap0iiGEEoUJVd8AsBdGoF6XsO8rK3ygb2xWijlnUHMHqRkh6t+QTJ/pg0haxiRr6nHIIxcBUDPkMZGkv6jeje/qTzPsG23/3prPas0dqtX3tt3HM/PvvpgYumFQf4EhXuI5IpPE6EL7setXVjDXLaMwez7nHmHjM3IZk+kBOftemlvtK9Z+xlVQBftKHa3YViUwqpykbFwQ+LSFJS5BUmBzzVHJ0pQ6VtELY44NAzmr/otGIb7f5w/dmwCGT2FbhhYXPf7hD4zwh033P92U/f+fPzhzOFQlJBWzFEuVw1wv+FsMl4UyYqgpQJQuH1IrKW0NajP+Y9aiK69iVLESIitIbM1sgv/SbLRJbrAiBTCERgHkNFp3iv0B9bHXnaN0oHHHqzm2d9AwH9h7u+9vydP715SLoAhbSMRITGBMBoyWaUyNbvJ1o4JqJmZkIk1bhv1e8x6iH93i4a6Vj+e+WhGnkoFosApyVYFYzUHJIEmnnw/KJJl+kWAZaIEsYddMi5pcNOOK9vjKhrhUOgcRBwRLZxxtL1pI8gQPmEy+66/oevPnDP90dUu1GIOqG8BKIgEKWkvclQCJuh4gRcUQ6tbXjd6pNerJbQ1iNdNiprf7hi9LaPdHk1m8HBmQ+Z0us+gfAYqpphLgoY9NFP37HxyRMOX80Lu4+tRQS01mz2Zd/9+ZJnHztyAI+hq12ACEyxV1ZJbH1hSPJ3lsjWirSsDKyRxbNRWXu/EWknSS36XZ3I0m2b+taWttwdoRQWEXoacbUTfkCLMoZuXcICrxXb/M+Xftx2+LFnM7b8pl6LI+Qu5RDINwKOyOZ7/F3v1xECRGY7fn71+dP/+PvvtnUvxIBWjkq1w+jKFpvaUC0DgReAq9S4Ay3PkyXfe3NX9tqurUVle6cc1KOwtDWa6YORs1dqiCwRo5R7WKA8sI23nLXdt87amY3Zfn6m+9cAjdfz3hw89eLvPBfOeXujUNK2u1Us0JqWXtl9hVBuK0Ve6V6LBJASmTVEllz4ViSy9cUlnU1E1upBp4j9FBIMQpXgMx9p1GVkt8ImgYWxxNJwMLb81KGXtxx10neca1cD3AyuC30Sgew+hfoknK5RDoEeBIjMLv3ppZe8/eD9pw+KFmJAyNAZVaB5AClDcGNfm9hoq8l3pc9aYmrz88j3vofU1iW76Dy7zWkjRlnVoSUynmplCmKYSqGpz6KALnB0F5uwwxHHfYntd8Tdbk5tWAS6n/z9Z6ZMPP/3wyiloKJQCENAKgjGoVR282MtkbU55gmv5cEye/+RnXRPnqxdavbcaJRHSzsmKSJWNja9RdZsXOrovuSeQEVqLC20YtDHD7x+xDEHn8LYtvGGHUX37Q6BxkXAEdnGHVvXsz6AgNZaLLjlosvmPHzfKYPSMgKdmBw6EbZBMwYl6f1myYCNstoXKZFTm8NHfu49ZNZWRNd1KqnohBzD+kBHV6MJhkCoBEHgQScJlNLgoogYHF06wfAP7XN3/9Ov/l/GstrD1QClj32E0gpeu+F7d3Q89JsvbVrwUC2T5m+IOK6iEISQMqOTj+4xKseiW48ppIxks3ityNIaHBirh1r36L5bnoteyw5gOgXzJJSUINECrTm8piYsqqTobhmATfbef+Kgrx56GmNjoz42rK45DoGGQsAR2YYaTteZvoiA1tpbctsl57/2wO/PHJUmaBXMWNiygFtRediokKWzPRHZuhNYndDSC9eUfhn7y9rZOrtElnordQo/EEhIfosJcJSQKAWpE0QDR3Rseco5H2Lb7vVKXxzXPLRJv/b4Fs/eePGTpdnT+g/igEqI+AkkpFjgeTbBNLOH3fEwBiXmvrP/MzIu6dWnuuYz6cP2LqykFIMwtYRY+RIp56imIZY2D0LLPvtdsfmRB5zlIrGZnRyu4RlCIMtPoQzB7JqadwQozaB8x9UT3vj9vee0pp0IQo1UVuCZV2aP01c9vkUk1sr8WGvbFXVj7fk2cpvtHFnKsxQ+RyXpQhAUwFUIGWv4HsNcxbD55466pOmIU8/M+/zZUP3v/s0V5zz/m/9r70vA7KjOK8+9t6re0vsioLVLSEISEiBZgPECw2psYyAYsPESJ2PHk8QTT+zEmXyJJ3jssT1xMokzjo3DjMe7g/GCN4LNZsAWi4RYJYHQitTa1d3q5fV7r6pu3fn+/1b1exLCCAf6datv8fG1uvt11b3n1us+9d/zn/O1T87yJHLlUYhEWEspsqMi+jfJpS21B8LsfZbZbln5DsdJ0w7IUTZ3tulLIp94SEyMqgoxLBVG8l2Yd+lVfzvtPX9OjV26UevmrusQmEoIOCI7lVbbzbXhCAx88ws3br7njk80l/tQNCFkGEJROlDqwhVGEaQCAj+PcqnM27jSeGPjtoR28uoSj14A6+OZwEgKj6AGmxxEoliDWPIClKbP2Lnsw3/5BrHgnF0NX7wpNgCz/+mT133qvz7UPnhgnjcSITBAnuQwrA1NmMgqqMktbZFWPsBhJQnFSNtFzgis8Wh3IEaUxMjlctDVEEmk0VJogQ5JVkD5tDmUhcSBXBHTr7z607Ou+9MbHYmdYm8WN92GIuCIbEPhdxefagiQ5vDwd7/4kadv/8Hn2isjqlNJ+HEMgwhRXEYu73EDTblcRmtLOyrcQCJT263Mt/PEILNWMuFx5StRaS8MSSVY96sQkYOBTHDG9e/9pH/9h2+cavdKo+fbf+vn/3LX7bd+tn1kGCJSCCDh0VqJeMx31VZkJ+euQNbkRUTW02lCFz1NCYOI5DsyQYQQsdFob23G6OAwGRKgm96XIyFCnSDMBYiKLTig/XjlNe/46+DaD/6d03Q3+s51159qCDgiO9VW3M13QiBg7rnlA2tu+c4/Nff3FQthGQUfUERmyyMoFgLkCnkc6u+HX2hCIjz2scxiM8miXabd4pM3DCFrZqNqs43src2FyKzPcx6NK4hmzTt4+n/+6zeIJec+NyEWbwoMwmxefeq6mz7368Ku509pi2JIE1DtlYUwpF9OVMS7COxXleq6JxssWfAIjZuJLIcgUMXZIFbZPanh+RIR7Y4kCq35JsSjGoaC6No6sF9q7BB+5bW//0cfabr8hi9PNgzceB0CJwICjsieCKvo5jApETC/uPXaJ753y7/khwY6ZXUEbb6AiMowYQmFQh6RDqGlx00kWnhEX3nLPSOyHHU/iZO9smQlri9zV3im/aUZ+jbBTCTYZxQ6Lvqdr8750Mc/4AzlX/1bnfTce2/++E27H7jzg13lKpoojyPVvpCm2SCGliEn1FFj1GQlspmEgPWuqRadWrdMSmSp8gyZQAoDUdHIqwBxlW5UH81NHdgxVEI0q+fwGe9694fERdd/59VfGXcFh4BD4FgIOCLr7guHQAMRMA/ffeFj3/raN8v7emd0CY2WpIpWmaA6PIh8wUcZ1hqIggKI7HHViCpIiY0G5cShSfwuzprYrMTAenNyd3hqte/HBiXhY6hjRnzW+z74dnHBVT9p4HJNiUubB+9609qvfPanTYMH/M7E59AATY4FxoxZwRlK+OLP1aQmsvZRkLSxmTzCRtFSRZZ9nE0MoxMU/TziSMJ4RYwmCodDgeL8U3tPu/aaPxTnX3X7lLgx3CQdAhMUgUn8J3CCIuqG5RB4mQiYzWtXrLv55m8NbNm4dH7ehzfcjxbPINFVJJ5MiSz9gbXNKDYi03alTG4ia7vC2WYs8e18ZMQyAy0NVCKQi6kaHWBQ5GDmLNi0+M/+4hIx88zelwmxe/lxImC2rz9l002fv6u87bFl3UIjF5EzAVBRBtoYdtlQ9FeDHjgM2VedCEQ2c/+w1WW226JKLM+PMmzpvSiR+EWUvWbsDRN0L16y8fTrbnifWHnho8cJrXuZQ8Ah8Coh4IjsqwSsO61D4OUgYHavn73jlm/fvPeh+990CjTk6BA6mgJU4ohliCQv4Iosb4MCQUpko0lckeWkMqkhEwU/LjBcsYoQqyoSGbK1Uy4qIK8KGBkZwUBzOzovu+YbPX/w57/vJAYv5+46vteSpKD/C5/4l95f3fmBfFRCZ86HGA25rb/kGXYpyCUGKi1e8i0oiMhO3oPuQbsrYCdl0mQvW41N4BsBynxIhI9yoRm9WuGkVWffv/g97/490bNix+SduRu5Q+DEQcAR2RNnLd1MJjkC5uCzLQe/9/1/2L763g90R2UEYQmKTdipQkR/Wq1GloiszYi3sZq2qpk2T42Zc1kF7bFkB/Vfa2xmFtluJayzVEmOnRlCv8pVWYiQ5+qHeYhQoKWQx14NbCtOw6p3ve/DHVe86wuTfLkn3PD13bf/pyf/zz/c1B0OCk9qJFEIn+4tJRF6gt00PB1x0xfHJBvBIRaNPI68vzNSmqbhsbXbC0fH2uz0fZKFi2TSgozIEonlnQJqwfQ8DCYSfUERs8+/5Nuz33LVn4g5Zww0ct7u2g4Bh0ANAUdk3d3gEJhACFAKWP93vvzxbb/4yY1NpUNooaYaXYZREkr5iCPAaCAQilPBYvJcF0QwaiTXpoTZLVKrO6UJZjG49mtU5a0FLjQGgMxUnq5OEomYo3djGKlZPsEyiljCMyQ7kAjzBeyKAd3dPXTee3737eKN77i7MSM/8a5qHrnnosdu/vIPuw7tbWtJyqgkowiafITa2r9ZSYt9gKL7ytpT0a3XuGavzOs1Ww0inzTGsSQ8aouk+7+u0spesenDIM8jACLy1Io1lJCcVkaaWFtt9pGoHPq1xHBHl15w0Zv/x0nvuvAzLq3rxLv/3YwmNwKOyE7u9XOjP0ERMHf94F1P/PiW/53s29HV7SeQugJisdLL85Z7FKbJXl7mYmATiTJPT2stVEsAq6/O2lTR+ijcxoBIY/UTciggSUGSElnbZGNJkwFCjUJQQKgFRo0BWlsxEIbInTStd+nv/scrxdnXPt6Y0Z84VzXbHjlz7d/9409aDh6YfXJUgW8qCFUVVakRSnuf5GIPPrkXkFWaACIv5o+1bv/xxyN7YKMHOdKz8ke6Z8YOwU2D9kHOEm6ZEnIi5vT1ioghcxTqEMNERGYNTCKhjYLOt+KgFoinTT9wxlXXfaxw+Tu/Mf6zdFd0CDgEXgoBR2RfCiH3fYdAgxAw61ef/fi3v3qz2r31rOLgAbRKbX08udE6D48qtLrKxC8hDW2dn6elh/THPaZ6FJWXeBacI2+IlFiCQpW1LO52vKdZb78VK6rKUrXYEpJMPuEZ2txVoJmX4wRJsYjQU9g90IcZ51ywZeHvf+wqMWfhxvEe+4lyPfPs2tOe+MbNt0WbtyzpiqvIlQbR3VbA4WgYFakBz0bOBdobk7PQOlWI1bJ7Ri0Na/wxkZwCR3eyIAUv3+tU1TcsxWGLW7rvDXnE0oNeLeqZ7jE6fHioVpWBttQAACAASURBVMtIvAi5QCGgaqxRGEEO+0UeaskZG1fe8N4PimXnrx7/+bkrOgQcAseDgCOyx4OSe41DoEEImJ2PTd/1w+//84EH7/2djmgUrZ7kmMyY6B2TjIhHRkTWhibYg7ZZJW2ZpnHvHP9qRBrD6SGIfaa6kUcuAY2LvLURtXa7OvOSzbaGqcKco4paIhAlBsIPUIo1ZLGI2BPoLWk0LTrnqVXv//A1YuHCrQ1aokl7WfP8pvkbvval7w6uf2zVSVIgXymhLRAYHumDbMohEgZaCH7wCUi6kumyFVClT0QCv+7r4w0E3Tscacx+wxRxTKEa1vGCtOOJoBvLVmJV4vGOBb9XUlcC9mSuAC3NRZTKQ0iSGMViMw5VYpRbutG18tzbpl/9jo+I+SufH++5ues5BBwCx4+AI7LHj5V7pUOgIQgY86g/fOvDf77lFz/7VHP/IdWugIi2QpWGMZoDEqjqxNunaVwobQFzpXWsIsv0dozIeloxgYylbiiRpVHVN+RYwm11jkQ0klgj5/moRDGCXAGJFDhcGkFzexuGYoPBqsC05Wevn/fO97xDLHutq8we5x1qnlu3ZMPX/+93RjY+cVZPIKGHB9FO5DUuoRyNotjZhlK1AlBFPPGYsFJFkw6SgYSKvH7BcoOM4B7npV/Bl1FFNpeeL31oIzI7dgV6SKq9J7IHJSu5iXmPgrTmpmLQJAIYL8/WWkPtndGsSy/9zPT3XPlZIRbSloc7HAIOgQmMgCOyE3hx3NAcAvUImPt+9Lb1t377i+Hu52d1tHhIRgcRKMONUURgrT7Wko2aG4GtnGV/3PkNT93YVAmtS9RqFNJHd5Vn4846y6kBJ4oiSOWzAX8QBBgpj0L5Hn9N5XLYVYpg5i7f+poPfOj3xLJVv27UXCbLdc3T979u3Ve+9A29c+upPUoBI0MoFnxIz6B/pB+tnW0YjarsSkDRtCRDoWbCrHpOFXxqzKMja65qzNzpHlZcyZekn06ttHg3gt4PLKqpa/iiBrWUxNJ3uDKr6f0TwEuaMRArJLMW7Drj+us/Ki582/cbMyd3VYeAQ+DlIuCI7MtFzL3eIdBABMzWxxduuu1f/2n3w/e/eW7eR1AegWdCa4eUNrVQRZOJBxGNpOZewBpU3nJN9bNEe41XR3rHf2L1+lxrIZY1odmPXi5AqVRCPh8gjmMIY1DI5ZHEIcrVKssNRiFR8YqIps3sO+u69/2xuOjKW8d/JpPjiuaO713zxG3f/rI/vG9aSxLCq1TQHPio6hBlXUahpRmlcBTVMEYx3wQRU0XWElm7IjUJCJPCOl32eCNAD0FW423vGyKv1r2D5BD0OT3EWcLKD23kiMH3PiWS0TwktO9hSCuMqHZMX3H+z2dded2fisVnbhrvubjrOQQcAr89Ao7I/vbYuZ90CDQEAWM258If3fcXj9z23RunVUdVgRu+rMRAGSJ71ibJbgV7ZO3O4yTtIP0xZy0hNfJwohZ1bNe0teM9oYzIMollYp2OxdhKWpxoeIGPOA4ReGQ/VkUgicForsqSErhCXkleDoPw0F/ojJe95e3/s/2dl35aiHmV8Z7PRL2e2b49P7L2zj/b8vOf/U0wdCAoiip8XQVtzFPFG54Ech6qUQVGCARBAXE15mYosqyyFU6qdFoya6UrQCMDOdhfWdnAEJH4/FBG93NmsWWTuagJjB7grMsC7wCkOxeh9DAkgeGmtsqyS67+29YL3/E5MX366ERdQzcuh4BD4NgIOCLr7gyHwCRFwDz5y8vXffOrX5D7ehfkKiU0IUYQjiKnDISnUI4iaPgwwkMgfLCTkomRmAqTWSkljE61tQ3CICOyTJZoDHWkmjrPrcWSbQazFWYi69aey1IqCaM8VLWG9n2EXoABoXDysnN+Mffad35ELDrvmQZNbcJc1jzzyKKhn/7of2198P4r8qKC5rxCHFUYR5+25Bn2JMU582HNKvWZZMVKCYjI0s9xdCsHclCTYYOmSvpvQZZ0CmEkEMWApwrIKY+egCCSCIGkPLIYVTJfpgcheIjo4Q15HDYK3vxTtyy79to/E+dd9ZMGzcJd1iHgEPh3ItCoX0H/zmG7H3cIOASYgOzY2NP70+9+6vmHH3x/hy6jS0QQlUHohJrBJPLN7SiNhoirCf+BD8iWKCmzm4H0PPKBH9PVNgLRLCKUt4JZ21uv3bUWSpknLjeBcdXZ2nPRL68oTuAFeURGcwXXCxRGqjFKZE920vx9y664/pNYuOL/iYVTr2mHwjVw57++e8PtP/50vP25GT1NeegkRKRD+ET6wzCNm2U/tzGimkk8CG/afqc1ykI1bBOeXQM6IuEdMz1rXO4lESMJR1l+ImSObbOo6ZEkKIZkE6wf1xDSsASiTFX+fBuGYx8odGDminO/3vnmt/6VWLxyz7iM113EIeAQeFUQcET2VYHVndQhML4IxHd+94Yn/u2Hf4/d26Z3IEROhwiUwPBoBYVCCzyVYwcASi3y+A97ZJuovKBxRKQOoqzJK5MWsOY31fNmTWmWclN0aK0iC63g5wImZzwfP4AURGYSVKEwrPI45ayzfzb98qtuFKsufmx8V6VxVzMP3/uaw/fe/vHe9WuupgcbX8HGzVZjKCGYyFLkLNNRDhSwYQH2YcFKPOh71NhF60APFKQ1zSqyrD9ltSlV9Bt1JKDiK93TiMjBQED6HmKSE3gaXk6hMjoEXwWA8RF7reitCIieObvPveaGvxKXXu0CDhq1dO66DoFXEAFHZF9BMN2pHAKNRMA886tF239x22f2Pf7o25tGh9FmDIqeQlSucoiC8kleIJEkGiLRLDWo+Rk0cuT22pbM2spgvbesJUzpkXam8ysNYKixRwgrmyCpQUyNPilpUxKRUhhQHobapg3NeO1/uGnmxVf/s5i5sLfxs311RkAV+srqB/54z313f8Ts39mEaBAdnU0Y0lVujusstCIJNSojo2hubrZb7qn7gI2hrYUGEIklAkt2W1ll3PoTW8ut+vV6dWbz0meVwtj7wE6DZQZREiEyEatUcvkCQiNR0h76kgDzXnfJD2e89aq/Fqetevalz+5e4RBwCEwGBByRnQyr5MboEDhOBIz5pdd359Z37/nlA5+ONm+d0R1HKHKzi2Hv2VAYCJURFiIlVOE8zpO/Ki87utHsyHCGbEs7I7hMVut+axGJ1WEEKT14UnF1TiQGRHC0SRBS0lOgEPkBhoQHefLc3sVvvPSLTSvf9HUxd+7eV2VKDTipObixBw/++vqNd/7bR+M9vbM7PAURVZAPAlSiEkITQQWKq9VUufRixQSQSCorjSmhi2QDaeIbyQkietDhaqx1KrCK5ExDy7SxofcO66SrCVfky75da7ofkGgb4CBz6K/EGC00oXry9J0rrrjmU/k33fA1Idhc2R0OAYfACYKAI7InyEK6aTgE6hEwO56ct/uH3/vvh9atfW9TZQgyKUNRNdOjCqYhk4NUZlDvOTveGFqz+sxLlreu0yaiMT/Z9POsCcxWau2r6N9EWMlflrbCDafx2gAF6UtorblsqxEjikJoP0A1aMXBSME7ZdHOBWef95XuN17wLTHntG3jPfNX6npm66OzR55+6r1bVt/zh9WdW2ZO01UUjWaXB6q+RwSBlCjmc4iTCIdLwyjkimgJmlAul8nUgg9yubCWVfZzqsByRZYb7moPOzasonEuF/W40T2SI1cOAZQQsrctVWQTLZFEErFqQqXQZk5ecc4tPVde+9/EwuUu/e2VuvHceRwCEwgBR2Qn0GK4oTgEXmkEzL23XLXtoV9+pu/JNUs7dIwOXyGulBEhQbHQjGrVRtw25qDGrtSdNI2pzbrhSYNJpClL+WLNJr0G0pKr1OheR1XkcjmuxpLmU8ek/7WJZ/Q5kTDSg5J2No4SVEMNoXKks8Co8ZG0T+uftXzlbe3nvuZbOGXxw2LexLfsMps353Bw+2v7Nzzxnv1Prbl6pHdbt28idLUWIeIqonAUgZRQSkEQqSNMqEKpFP8fRVXeeieybz0hiMjWkru4RkuV2LHo4oSJLlVrbXwwrUXWlJc1gjXmDhKK5qfhmRie5yGCwOFEoFxshzh57rNnXnndjeIC5yvcmNVxV3UIjA8CjsiOD87uKg6BhiFgeh/pKt1/98d2/PqBj4a9e/xOTyLvS4SVMnzqlqmLiT06oCAb9NgviroKKlVGj5Ql1GQB9Yld9Wld9nw1HWxWkc22rqnxiF/xG4isDX9Iu+wVuPKqo9gSNfKWJQJrNBMb+kg62ijSvK2e9wMITd3uZQiviIoqYkgEKOdzaJo15/FZK1fe0nTWyrvEwrMfb9iCvciFzXNrzqo+s+GCXU89eV3/9udfL4f60KFHUKSdcmkQ6hCx0PB9D2QwpWMym/IhQZILYqYGHomJSWYiI0CBseI8uFRSkK0HkdhsDUkXS0SXVAi1ZjxLZEmaUB8rfLTc4Mjkttr9kd0THCE7dtjKb+1nam4K9ZDUftZW521FXiGWAoNGIO7sLs99/cU3tb/58r8Vp5x5YKKtoxuPQ8Ah8Moi4IjsK4unO5tDYMIiYNbd9drn777rbw4+9fibm0sltJDvrIhgkhiRoEql7UwnckP8wqMt/FhzEIGCjYolNwBIDzIgtwNikZacMLlIE8OsXVYNBq6scsXPdsTXk9eMONe0sPbnXkh+a+ezr80I0JGa2t8Mfhbfa8kbH8aDFgJVoUBO+BXpQ7V3lLrmLtjQOXf+7cWly+9DZ89mMXfpuOtpzfb1p6Bv14Jw+9bzezeuf+tA77YzMHS4Oacj5IVBTkgoTQEYqYNAqmM9kvRlM61/6LAktT6Mol6DzLAc8ZeBCOYL9bDEfUlHS6/NGsWydU5XekwCYkibzZ9ZD1orYZDQ8CCEBGVcJElM3XocyMCWX1QRJrmDlKx9ZXeChJr56FwKiki5kQiFh0MJBRu0oGflOXfMv/iyT4sVF62esG9ENzCHgEPgFUXAEdlXFE53MofAxEbAmEd9/HzrtVvvu/sTQ1ufXdQcjyKgDVlltbOKt5OJMKSEVlvRJDVTEaGgqmdiBFdBKXVLKf+oCR9JLOsJ6VhqFxHV1ImA40Mb9FuIt8kT2+4uPZ8JetUYlOMEofQRBQVUPB/Fk3p2tM+Z92zbzHlrm07qWaumd21Cob0fPXJYiH+/P60xJod9+1pxeH8HDu8/7fDOna/p37XlnNFDe5cO79k1x6uWkYuqKMgERWngCQ0T2bheCrtoVEwsrVsWhkBEl5qv6nW2hKuVg2QPOfyVlMzaBxohfMRa27ALugcVVVhTaQhFGcQxuytUohhhuYJ8vsgPVuSBG5M3LMXLegW0LVqyaf6Fl3wSlyz9vhDLwon9LnSjcwg4BF5JBBr0J+SVnII7l0PAIfByETB7Hu0eWv3QH2299+d/EgwPTFPVKvJkW0VEI464+kXElYgDEY2QyAVFgiJi8udLg0AoaCqiUeV2rAprt6BZT5laZBFZtfZNKckVtFXNJVxo1lo2rnlIkXY2ju0Wu6RQBg5fhSayLgSE56MUxygnBokKYIIAXrEYN7d37M51dO1o6u7ZKYuFfU3Ftj251uYDKLYMolAYhp8bBXXHy4B0DKR3UIhKRZSjFlSH25JSuTsuDc+oHNp/SmVwaNbQwMCppcH+6fFo2SedK2HsJRp5T8Bj31xCiaqRmrvyeTudEKZSZoMOtjlLdbNMasfSwahzrK5Sbx8VmNCSFMB60toKfY5CF+IYMX2XHyaEXYvEQAnJ+uZSeRSCZCP5AFFoH6DoGJYBohnzDs4/7/wvdZ970U1i/vL9DYLCXdYh4BBoIAKN+y3YwEm7SzsEHAIWAbPx/oWHH/r1f9n00Or3J4cO5Lt9iRaq+kWaJQexNjBSQFOljMurMQQFfRIZHdMQEOmzDVj2sNU5OjLNI1k48VYxf83UaWtVw4gsDZ9mk43Tk6mkgdKgUm9a1t+yVFNBBj6odlgNQ4SJgfEDlIn6qzxXqkH/C8UVZtr6TgS7nhHpFPQ/OSwQTSYfXxNriLiMfEhniCH5epJDC0jSkVWySfubba1zHAQ3sIHHx9Vx2o5v0EFr7Gn7wMIPK6lVFzeJpf6uWb+YNGKsQUxzrC0R2QR+QgEN9PMeIiMRE67GIAcFTynosIqgkEclSRAKoOLnMBhFKHZ0hT1nrrpl2mVv+ZxY+IYNDYLAXdYh4BCYAAg4IjsBFsENwSHQaATMU6vP2/XAnR87sPahtwX9+7xuaBS4C8ggkQoRVc64aukxgdJCIw4jBClptYTVVl6J0MSpdjJLg+Jt/Ez7mjaMURU38y1txPyZyBLnSkmkokEmRFwjJlNkSUoVQSKzCVVkQVv5tgpKOJAUIYlos1zx8BPa6meWqVj3SQ8A1HRFFJ/OR9ZgtG2eVaqFTOB7MccFM1umn4/ByVs8JvqP9KF8frIcMzQ88mRINcLWlaGRR0a4bQqb9Zy1TwY2RpjcDjLLrswjIXOdMDJGoiuMsUCAWFNTmscEluq3IongiwSVOEKschjyAgw1teuu5SvuWHDhJX8vVl52fyPn7q7tEHAITAwEHJGdGOvgRuEQmBAImNX/dtGhX9310YMbnnyrGO5HYCIUlICiaiVVy8h/lkgVa2qplEZ59pasEKVjMiMTJrKZfRPHmqZb0FlTEVXk6Gh0IAO5HJC0gMgqaYTJxktSYZXmBnCDG/97zDvVNh5xy1JMRMvKEca8cK0HAFNNel1EWlYi7NywxMil8yZCbFCJKqxPzmQN9NNMelM+mO6i8/Xo69RgR24MpCXlMAjdSPs0KxWwK2+bvujBJRt8lgBWb6Nmb/LMtYLuk9CSduPBJERorRab1qMSVwHPQ9nzMCoDdC494555l1/xOZz7trsEmyG7wyHgEHAIZK2lDgmHgEPAIZAiQNvg+td3XLHzkfv/ZODpdZcWSodRiEZR8GwULFlZUaCCUD60qpE425Fe837NPufTchXWdpnbI233qiM+jVsAsusyTKCo2kr/JncGIrj5oMAVUcFM1ZJUHn1Cr4tgVAwhqUaaEbqUcBIZpQYm6XN1MiPGXFIlOKg7nxK2/IIlgeQ8kG6r05XqeRrLFlItrNUpm9RBIkbBCxoHGxN2ZZu27CxS+QjJDCwTt8TW2naxfRcniNG/6X5IkCiD2MT8IESaWJKdkGwjUj7CQjP2C4Xu5Wc9eNrFl/0jVl3xQyEaXIJuINru0g4Bh8CxEXAVWXdnOAQcAsdEgB0O7u29fM/ahz7c+9TDl6jSYbTlJQKh4aXaTZYcpOb4TNy4MYkIC/2bKQyf2zZ7WULLRJC34KnCWKvgNWIZrISA/rdNRlwNpaosNX5Jj5veuApN2+SCPHclf06SAeEbRCgjkZaokqwgsx2jz+3XzNh56XPWv7KEgb5OdJ6I6LGsxCwR5vGkguOYfkAaq8e13+QqeaNqkzZhzY6FSKogOp9W5rNEMNvYRXZbVktrbbqstpYruFKhqmMoSpzzPZSjGMMmgWifBn/GvNWL3/zWz2P6yp9NhqCKRty/7poOAYeAq8i6e8Ah4BB4CQSMMb5e86vLnlt9z4cGN6y5OBjdHzSJEjxqxDE5eMZnUkKVQsWOs4IJCxEtrtaR3Sz78aeWXlx9s9Gp9LVGHvUk8IU2YLbCzHQ89VHN9J5Zg1OkYk7BoqPOnfYlpmRfSdcWiSXHxzqy8WQ62DErq9TWiquYbHnVGARZY6ys/tfTgsmplVooXnqdJIhJTuEraEPyjYgttlimouluIeJfREQevkmCkpLQnR1R16Il98059/U3qbnn/VzMmlVuzOzcVR0CDoHJgoCryE6WlXLjdAhMAATMY3eft+uBOz6497l11+bKI8350RiFKO2il9YeirbkiahwF76ynrO8+a4UfD/Hs6DXkBcoNfo06sjiVrPr13va1luF1bxwU0/dOjcGqw2tk1dQxZmqzC/xcYx8jkktslEcSWqP5bF7dNhE44hsgqopc4XYhwfEAjLkEj2UIB0v6Y0Vr31MVVmPnl40qiFxUwNVaMGwDjAEH6K1vTRj2fI7el73ui+Ks992X6PuCXddh4BDYPIh4Ijs5FszN2KHQMMRME89/Jpda1e/6/DjD9+g+g716NII8jJB4FG1MYKQMTyq1unI6h9JE5koaPKkggfj+5CegonCsWSq8Z4UEUDSa9JBFJUrnmlAQ0ZqrcYz3eavk2dmLgyeVjy3MXJ5nESWMKFt95iq1VZlkR51CWhpJZi+QeldRxDWdCyN9OCFiOF7hl0ebMCbZE0wOTZQpZmkFjqMIFOv3ijRkDk/lRCE6E8APX3OgZlnn/uDOasu+JpYdv6a8b4H3PUcAg6ByY+AI7KTfw3dDBwCDUPA7Hi0B2sevf6ZRx/+g4Hdz5+eRwVNKoGIR4FKCXlFFkzkOUuSAx+GXFMTiTC1pApIG9kgeUFWka2ljBGMWXxrzeCfKqwZz7ReuvYgb9Qgts1LY8dxEll7JSDiWGBLAq2+tEZqx+zK0q9ljgf1kbT02NCoZDSeAXvuWv0zy0u0tS6jiqz0yImArNo8JCqHUCoMxgah52H6gvnPzj5j5XfkG87/puhZsaNhN7C7sEPAITDpEXBEdtIvoZuAQ6DxCJiB7e3VZ5984/Y1D72v77n1F3sDh9pbdIiijtn0nvWgFBaQWP2krwK2karGpTG7pkbMIiOz9dv1NI6aPvWoUR0lBeB5jb2EkxPS+fymj3XnHGOhNSJr2Wy9dpjrxXVfq32vkUQ2a/Yi6QhVrQMPXKGlsZM1WWyASPgoywCHTYC4bVpp2ulnPjDvNed+NZh76j1i1rL+Rqy5u6ZDwCFwYiHgiOyJtZ5uNg6BhiNgNj+8dGTNI9fvfnLdDdX9exeJcgkUu5oTQE6R9ZKGpGQrsqLixLCJ0PB1dMPVi8Tm1pU/s+qsTfI69hyyZLP6ReHXpx1iylBF+oVLVrtM9k1LZDM7K1vPbWy8L0sJVAGhjpGYmP1waXwUaRyRh67yEOYLaJo+57lTlq26tX3lObeJpec/1vAb1A3AIeAQOKEQcET2hFpONxmHwMRBwOzb16TXr7vw4JaN1+x95om3hQd7u4txCc0IkUtCCBJWppZWE2XU4qiKa7bd/8KKrSWuWQhA9rqj53EsIkvnyl5vwwKySm7N+aBGZGvhAfbcRxLmo8c7njjS3HRUhZcLIP08RjQwGBpUc0UUps8aaJoz585TV533Ayw+7edi2uLh8Rybu5ZDwCEwdRBwRHbqrLWbqUOgYQiYzU/OxLanL9v9xNpr923Z8PpwpL+1CIOmBPC1bVki7Wf2kauUYw1NtWEfTdzq9aEvqGzWaVsz0lk705EV15ozwdGV2BpxTK1vUwJ7NJGlhi/rl/qixzHcDGRSK8fauaQOCHVJYtn5LJk+ksgeSaBr1z4aiyMJdf3rjqcafqQON2swi6RALCWGogSRDJDrmjbaNXfhwycvWX6bv3jFz8QSp31t2BvOXdghMIUQcER2Ci22m6pDYCIgYLY9edruTRvfcmDD41errU+frgb6uhCGKJBdF8kOEo1A2qCCxGi2t+LN+4Ts961PLXXEcwIXBxdIUGIWpULRz5AdFH0viqqQvmerpjDQadoW00VBZ7LnoS3yGpG1CNUIsm3+yo6s0SprEMteSwSbJBK/uUJ6pIbWyhGOJMocYlt3vWMR4+z7fL00zIHmqzWFI1g8iOBSmINMJ8afk6Ev5e+atG2MmvCEZuyYpFNULGFJo6KgsYR+3mOsOJIXtB4CWkpQOMOwl8dgx8yR5vmLn5i//PQftS9YcBdOW7nepW9NhHeZG4NDYOog4Ijs1FlrN1OHwIRDwGx9ZBGeXHfRro0brhnYvfscPTzU5tN2dRIC1RIKQQCRhGSxz6lYGUFjMqo8TobijnkdM3HLyCyTXU6VsuZZ/BqOebVEjc/DxNY2ZVkCShXhNDVrjMweTWRtVTQjrC/uGHDsyu7RldLMiaB+nPUuBpwQlhZt7XgzOYMdRxTZkAFOISO9LaeHEfm06WHsKpBG35KfK6VTWMwsec8lZozsUjhFpDUTVnoYkCqHREqUtUHVKETSQ5U8Y1vaBmfNn7+2e8HpP8aKNz4oFi51utcJ985yA3IITB0EHJGdOmvtZuoQmLAIGGMk9mydUdq4/sIDmzZeNLhz24XRwb2zvdIwcnEFRSQoUgiW0YjCUSZxfpDHaESetR6UsKlSvIVubFQqEVciZYa9a23FUTBRTV8HDYiI4hksMU2lAbYCnJJfQzG6TH35a5ZU1ohvZjt1NLAvFlLwQiJrf9IGK9RXgjNibYlsjcTWiDWN2aMZCY/iJjh4IjZpzG5a7aVACjo7k2MpoIVM44IJA4kgVkhiorg2sED5Hn+/qhOMJAlGqdLc0gH/lOm72+cueOCkRcsfaF506j2YedZWV3mdsG8nNzCHwJRCwBHZKbXcbrIOgcmBgNmzqRvP71xW2vLM5X3Pbz3v4LbNZ4SD/e15kyDvp3Q0iRCwqiDiqmNGZImYEWmlqiJVIIkEMlHksidRPlt1paqlkZbI8udppdYSy6zJKiOX9US25vWaBSj8dkS2Zrllwxjqiaw9IyWkZTTakt2aNpeIqG8E63J1VhqWkn1drUQgQaU6YqurMiX2RGQhEBPBh4dEKwg/gPGo8hphNNIw+RyKHV0jfkf3hnnLlt2fm7foF5gzZ7045cwDk+PucaN0CDgEphICjshOpdV2c3UITEIEuFq7+9kF2Lll6f5NWy/o27bz9aV9+0/F0IHOFj0IFY5wNG5OefDJzivdgicyyzpZ1tFSObdGQD1idlIi0qGtuKZNV9kvRCa9LF/IGp2sCCALKRjb7n8B+bRE88VjY49uyKp9nkkg7AnS8+ia/RbN50h/W9IMUwpBwkSWtKxjlWOWE2jkgoBdEayGliq2NFXBsozID9BH1ddCEbK5AdlsuwAAA6ZJREFUua847eQdnbPnP9i9cPEDwZxTn8Fsb7MQy8JJeMu4ITsEHAJTCAFHZKfQYrupOgROFATM1o0LsXffkvi5R5aXD+05t2///lWD/X3TovKoJ3RMtUYKwkWgSHJgoEzC/yPWgI4htZUMiLQZjKUFxlY/syMjlrXmKiKo6Zb/MVwF7M8dP5Edu06dG0F2LZJGcNhCymOzeIWMzFpCS8lasSXuZGMmAyTSsw1ZJEdIBCgW1lCjlkg9Z70cgmIxKja19Zvm5vWdS05bU5wzew1mz9kgTn3t5hPl/nDzcAg4BKYOAo7ITp21djN1CJyQCHDFdmBbC3bvP33k0L4Vh/fsXjy0Z9fCat/+JYf39s4KqhXhxxXkdQSy/CoIIEgrsLTFTtpR7vZPdaVEFu1Wf4I4tfCqWV/VErsoolYYj10AsqP2r6MJbU2qUFsE0q7GyIIV6v1l6RezSqw+lqQDtYavtImNo2ljeF7COuDQCFSFj0rioSwUYi+PxC/AFAoIWjoOFLu7N7Wd3LOxfdqc9a09PU+ga+Z6zJ07IoSwugp3OAQcAg6BSYqAI7KTdOHcsB0CDoEXR8AY42Hflg4MHDgZffuXhHt2LT28Z8/po30H58aHh6aHI0OdUaVciHXIJJGqt4qsrEhDSxVc7vAne6tsm58avGjj3n6kg8lvHcmkr70cIsuaVxkf2eh1dKXXkMaXmtXoyob1rVQ3poYs26KVgLJh/UJTxW/pGPBbu/YWu07a0dYz4+lC50kb1PQZz6Kpsw+zcv1CzKu4e8Yh4BBwCJxoCDgie6KtqJuPQ8Ah8KIIGGN89PaehJGBTlRKXaVDvfOqhwfmDx46MKc00D+7OjI8LSmVWkS1XFRJnDPVaj6plj0Zx8gB8JKEm8pId5pEEfwg9bo1mv1tFTkjkJaV/G+NgUe+rcxwFfuy0tf4f6EghESi7Za/lkROBcLEgESpxvOBIIBRvkG+GCaerGo/X1ZNxVK+pWV/sbP9+WJ79/bunpnbRL5ph9fWepAJ64zqAadrdW8Ah4BDYCoh4IjsVFptN1eHgEPgNyJgjFHYvr4bQ4PdqI504nB/F4YHOzFc7sLoUDeGyx0YLXWjUu1GeaQj1INNsa4W4zgsxnFcFDpRRFiTJGbiGoeRbTbzfP6YuikY6QWRksFoId9aUl6+hHy+H03Fg2hq7kO+0I/Wln4UCwfR3NKH5tZ+tLf0o7X9IGYNHhDiQicHcPexQ8Ah4BBIEfj/JzVHVF/QSTwAAAAASUVORK5CYII=;movable=0;resizable=0;rotatable=0;deletable=0;editable=0;locked=1;connectable=0;" parent="1" vertex="1">
          <mxGeometry x="2163.8117369727047" y="409.44927835051556" width="150" height="78.67" as="geometry" />
        </mxCell>
        <mxCell id="oRYPA-zYWW4v42led7em-9" style="edgeStyle=orthogonalEdgeStyle;rounded=0;orthogonalLoop=1;jettySize=auto;html=1;movable=0;resizable=0;rotatable=0;deletable=0;editable=0;locked=1;connectable=0;" parent="1" source="oRYPA-zYWW4v42led7em-6" target="oRYPA-zYWW4v42led7em-5" edge="1">
          <mxGeometry relative="1" as="geometry" />
        </mxCell>
        <mxCell id="oRYPA-zYWW4v42led7em-5" value="" style="shape=image;verticalLabelPosition=bottom;labelBackgroundColor=default;verticalAlign=top;aspect=fixed;imageAspect=0;image=https://upload.wikimedia.org/wikipedia/commons/thumb/3/3b/Grafana_icon.svg/1969px-Grafana_icon.svg.png;movable=0;resizable=0;rotatable=0;deletable=0;editable=0;locked=1;connectable=0;" parent="1" vertex="1">
          <mxGeometry x="2198.807741935484" y="622.301443298969" width="80" height="83.2" as="geometry" />
        </mxCell>
        <mxCell id="nNS9kz_4-D0pXz0YQZKq-1" value="" style="group;movable=1;shadow=0;comic=0;resizable=1;rotatable=1;deletable=1;editable=1;locked=0;connectable=1;" parent="1" connectable="0" vertex="1">
          <mxGeometry x="612" y="708" width="742" height="153" as="geometry" />
        </mxCell>
        <mxCell id="nNS9kz_4-D0pXz0YQZKq-2" value="" style="group;" parent="nNS9kz_4-D0pXz0YQZKq-1" vertex="1" connectable="0">
          <mxGeometry x="-1" y="-7" width="310" height="127" as="geometry" />
        </mxCell>
        <mxCell id="nNS9kz_4-D0pXz0YQZKq-3" value="" style="rounded=1;whiteSpace=wrap;html=1;fillColor=#dae8fc;strokeColor=#6c8ebf;movable=1;shadow=0;comic=0;" parent="nNS9kz_4-D0pXz0YQZKq-2" vertex="1">
          <mxGeometry x="20" y="17.16" width="290" height="109.84" as="geometry" />
        </mxCell>
        <mxCell id="nNS9kz_4-D0pXz0YQZKq-4" value="publish-order-service" style="rounded=1;whiteSpace=wrap;html=1;fontSize=22;movable=1;shadow=0;comic=0;" parent="nNS9kz_4-D0pXz0YQZKq-2" vertex="1">
          <mxGeometry x="57" y="43.08" width="216" height="58" as="geometry" />
        </mxCell>
        <mxCell id="nNS9kz_4-D0pXz0YQZKq-9" value="" style="shape=image;verticalLabelPosition=bottom;labelBackgroundColor=default;verticalAlign=top;aspect=fixed;imageAspect=0;image=https://cdn.worldvectorlogo.com/logos/gopher.svg;" parent="1" vertex="1">
          <mxGeometry x="619" y="698" width="38.99" height="53" as="geometry" />
        </mxCell>
        <mxCell id="nNS9kz_4-D0pXz0YQZKq-10" style="edgeStyle=orthogonalEdgeStyle;rounded=0;orthogonalLoop=1;jettySize=auto;html=1;entryX=0;entryY=0.5;entryDx=0;entryDy=0;flowAnimation=1;" parent="1" source="ckt6Bek-00qLGqmXfznw-10" target="nNS9kz_4-D0pXz0YQZKq-3" edge="1">
          <mxGeometry relative="1" as="geometry">
            <Array as="points">
              <mxPoint x="575" y="686" />
              <mxPoint x="575" y="773" />
            </Array>
          </mxGeometry>
        </mxCell>
        <mxCell id="nNS9kz_4-D0pXz0YQZKq-28" value="" style="group;" parent="1" vertex="1" connectable="0">
          <mxGeometry x="1704" y="703" width="310" height="127" as="geometry" />
        </mxCell>
        <mxCell id="nNS9kz_4-D0pXz0YQZKq-29" value="" style="rounded=1;whiteSpace=wrap;html=1;fillColor=#dae8fc;strokeColor=#6c8ebf;movable=1;shadow=0;comic=0;" parent="nNS9kz_4-D0pXz0YQZKq-28" vertex="1">
          <mxGeometry x="20" y="17.16" width="290" height="109.84" as="geometry" />
        </mxCell>
        <mxCell id="nNS9kz_4-D0pXz0YQZKq-30" value="process-order-service" style="rounded=1;whiteSpace=wrap;html=1;fontSize=22;movable=1;shadow=0;comic=0;" parent="nNS9kz_4-D0pXz0YQZKq-28" vertex="1">
          <mxGeometry x="57" y="43.08" width="216" height="58" as="geometry" />
        </mxCell>
        <mxCell id="nNS9kz_4-D0pXz0YQZKq-31" value="" style="shape=image;verticalLabelPosition=bottom;labelBackgroundColor=default;verticalAlign=top;aspect=fixed;imageAspect=0;image=https://cdn.worldvectorlogo.com/logos/gopher.svg;" parent="nNS9kz_4-D0pXz0YQZKq-28" vertex="1">
          <mxGeometry x="8" y="4.5" width="38.99" height="53" as="geometry" />
        </mxCell>
        <mxCell id="nNS9kz_4-D0pXz0YQZKq-32" style="edgeStyle=orthogonalEdgeStyle;rounded=0;orthogonalLoop=1;jettySize=auto;html=1;entryX=0.5;entryY=0;entryDx=0;entryDy=0;entryPerimeter=0;flowAnimation=1;" parent="1" source="nNS9kz_4-D0pXz0YQZKq-29" target="nNS9kz_4-D0pXz0YQZKq-21" edge="1">
          <mxGeometry relative="1" as="geometry" />
        </mxCell>
        <mxCell id="nNS9kz_4-D0pXz0YQZKq-43" style="edgeStyle=orthogonalEdgeStyle;rounded=0;orthogonalLoop=1;jettySize=auto;html=1;entryX=0;entryY=0.5;entryDx=0;entryDy=0;exitX=1;exitY=0.5;exitDx=0;exitDy=0;flowAnimation=1;" parent="1" source="nNS9kz_4-D0pXz0YQZKq-3" target="nNS9kz_4-D0pXz0YQZKq-38" edge="1">
          <mxGeometry relative="1" as="geometry">
            <mxPoint x="778" y="834" as="sourcePoint" />
          </mxGeometry>
        </mxCell>
        <mxCell id="nNS9kz_4-D0pXz0YQZKq-44" value="" style="group" parent="1" vertex="1" connectable="0">
          <mxGeometry x="1077" y="708" width="120" height="115" as="geometry" />
        </mxCell>
        <mxCell id="nNS9kz_4-D0pXz0YQZKq-38" value="" style="rounded=1;whiteSpace=wrap;html=1;fillColor=#dae8fc;strokeColor=#6c8ebf;movable=1;shadow=0;comic=0;resizable=1;rotatable=1;deletable=1;editable=1;locked=0;connectable=1;" parent="nNS9kz_4-D0pXz0YQZKq-44" vertex="1">
          <mxGeometry x="20" y="15" width="100" height="100" as="geometry" />
        </mxCell>
        <mxCell id="nNS9kz_4-D0pXz0YQZKq-39" value="" style="shape=cylinder3;whiteSpace=wrap;html=1;boundedLbl=1;backgroundOutline=1;size=15;movable=1;shadow=0;comic=0;resizable=1;rotatable=1;deletable=1;editable=1;locked=0;connectable=1;" parent="nNS9kz_4-D0pXz0YQZKq-44" vertex="1">
          <mxGeometry x="45" y="35" width="50" height="60" as="geometry" />
        </mxCell>
        <mxCell id="nNS9kz_4-D0pXz0YQZKq-40" value="" style="shape=image;verticalLabelPosition=bottom;labelBackgroundColor=default;verticalAlign=top;aspect=fixed;imageAspect=0;image=data:image/png,iVBORw0KGgoAAAANSUhEUgAAAGQAAABkCAYAAABw4pVUAAAAAXNSR0IArs4c6QAAEiBJREFUeAHtXQeUFtUVVmPv5Rh7iRo1x2jsJzFRY0+MsURTTDSmaqyxxQYqUlRUVBBRAWlBIoiNoiB1Wcqy9LK0hYVll6WXpcMufPm/Yebnzf3fzJs3M7sU/3vOf2b+mVfuu3fem/fu/e6bPfbIU14CeQnkJZCXQF4CeQnkJZCXwE4sAQBnALgLQPPMeVcA/QAMANAbQGcAbwFoAOA2AKfuqKYA2A/ABQD+BKApgHYAerq8kt++Lv9sx4MALgdw0I7i16peAKcBaAagDPa0AkB/AE8COMeq4oiJAewJ4CwAdwNoDWAMgM32rKIWwEQATQBcGLH6+kvGJzyjjC6Aw2iM9mmzlLu96KKwlmTSHAbgagAPAWgBoC2AHm4vfNPthY0BfA1gubam5BdLM2U/DODgMF7r5Z4riLXJ2xRawjQATwE4ho0CcASAxwAUZAReE5qzfm+udHtN/Q9pAPYH0C2svUvXbsZXM5bhvVGVePbr2bjv0+l44PMZePGbMrw7sgKDZ6/AsnVWIwYTDwawLqxe23tbtm5F6bL1+HzqErwzogIvDSjDv3vNxJN9SvHMV7PxekE5ekxajLGVq7G5dmuU4ucBuLleeoT7hB7gjvc5zK3eWIvWIypwddvx2OfZwdjr6UHG38kvD8dtXSbj/aJKzF2xIafMur7AB+fx3rNwQIMhRl4PajgEP39/HF4ZPA9ly9ebWOPk4JA6VYz7YuwuOdm6FU5POPqlYcZGmZR0TosiNB5YhtnLjA122Fi7qRaj51ejy7iFeHNYOZoPnef82o5egM+mLMHkhWsiPdms75q24yPz/51nBuHyNmPxZclSsP0BNJMTiTpTSubF3VBWvGpDDW7sMDFyQ0wK8e4f/kJBoFI21GxBu9ELcF27Cdj/OfOTvd9zg3HZu2Oc4WjCgjWyCdn/FOxbhfOxb8Te7fF6/tuj0X9m4JxhGYArU1cKgHPlNHHl+hpc2HJ06so45PmhKJzLd6Sfardsdd4/xzYpTFTnpe8Uo9PYKtRs0T/ag0pXIE5v/0uPaViufy+yu1+dmlLcoWqUKh425qoPxiUSjPeEqUc+zXzhS5q/agN+0npMqvWd+dpI9Jy8WFbl/J+zfD3OfbPIuj6+EwN6IWejl6aiFAA3Sa5f+GaONbOq4IPO+cKUNK5yNZL2iqD6eP2WzpOwaM0mWS0Wr9mEs18fZd3OQ58fit7TluaUB6AKwEmJlQKgUC191tJ1kcbuMCHo7vGlymmoSnzajmpUYC0UXflh105sNhzD561Sq3bO2TO/9+oI6/o5y+RUWkMDEykEwNmy0Ls/LrFmMEwYvHdww6GoWLXRVxWf2lNfsReGqa6g+5z66oYwPoBx3ikHNhiifRdmTC+3xlYKgEaqlBZUbwTH+aBGxb3+fP85ajXO+e3/nZx6PSb++GR/onmv9Jm2FJzqmvLL++zdmjVLnyQKGa9KitNCWWnS/8c1KQQXlSr1nb4s9Xqi8smpNGdakv7TtzQWT3/4aKosiiYfe9sXgEOl0fDK99OfWdE8oRKVw9lKVAHWRTo+2SWL/WY6mk4ublVszReHLvnAZcxAV1j3EgA3qILaWLMlkonBRkA0R0ibVoth5daNtqkzalpaDbgIVWlMxWrs/Yz9kD2sLGdd9UAchTyuMjNi3qrUBfWPntPVKpzFWn2+yE3KoYFR0l97TLOWw4fFC2QxL8VRCB05Weo4psqaEVOD5VTz44mLUq/DxEPYfb7ki+ZXZ2XAk6rVm8BhKCyfvMdeL6h1HIXQhZklzoRkRUn+n9C0MGfdURd2sSQ8Mi+NiJLu/2yGlSyaDpori4ilkJFqKf/sOd2KCZMgHvxihlo8aBuLYiw0lVsX9zntVYnW4aguBvKj6SGt4vSQEpWJ3380JVWFyEZ2Hb8w1fLTVAztaJKubRfdXP9BUaXM3jSOQnz97Fcpmtm5yJKWUVpL0xRi2mXRa6hS++IFkfntVeLvYQAejaMQ3xTj150mRWbAJIwftihS2+ac0/pKXwSfvOf6zQYnEVw1d5uwCK2GV+DP3UtwfNNkpncTX/L+j1uPcVzPbUZW5vhnaOqR6YP+S2UCuDOOQnyD/G+6pGfKoD1MpU21W9B5bFVOr1HT8JyLs/9NXISTmtXdwpHWWuIAZiwxu++PaWz2knLdsmaT3xKRwXxdEkchE1SB8AkNegJsr2tmHWpVxnNOAOjftq3XlP5nbcbmGDnDmKHZx1TmD97wuZK84g6Po5BeXm4eOYyYKo96X2dVVeuKcr5ucy3Oi+FECuKRZqH1m/0rcxMfR7xodg1obFlV1spghgwGqqXKECE9QY2xvT6yPNf34NVFbyStAi2Hz3eGjmaD5jpgAp2w6C+JY4WV/FKwldV+87/Hz/Ql6xwfvmbqGmmBSOCFoN5xFfKAWhBxVrIhcf/PXJo7PnNu/6/PZuCwF4Zq6+HwMLA0F0xwa+fkkw3ixSTRr3+JYkyUU1/6+KPYtfrNJM7BR43iKoQwzSwRNxVXATIfzQ8qEcajWxTSREF719uF88GeQh+JzNt9UnJzC51QKi1ZuxlNBs518GKNBpTh+6+NxM2dJqlJQN+QbJf8zzZpLL03xFXI8SoH9K4SniMrjfNf9pCgGRxNFCYi2C0OD14emnBMxDUTEY0qFVdUG+slaFAQ0YAHxFIIM2UWML7B/qfvjjUy4TU07MjGqBRkQT3r9VGg2d9EFGpYfWH3OLMyEfFncmZIS0NYubz3Wu77o19sZbgK8c3Z7v00HXuWhPrw6Qtq3F0fl/jQhwQeyGGAoLmg/KbrBFeoJHAWzhqCwxUnGSpFWalPWeR3cgF4PKlC3lOZ4IrZ1MAo9yUio6HBkkxAHsf0p/qW4shGBc4sTOXr0V6zYvPFqbNKnM2x1xDqRND1KS9vA1rQNaASIUthbaXXU0PJ4l8y5v971ULTclJxVa4Su3ZY4+Q9mT/K0yrL8P7TXStJ50KWvfqx3uEPgeb9Rwvjnkl7yMUqs3Rp6mZDXuOiHhmSoBJtRVHzMl2Dfn6USlJQBGdVKt3ZbWoOP3wYVTK5I6TzDUCbRMpw3yGMw/NxS2ysjfB0aakAlaggXbqga3//hHE824mND0ob5bqE/uhcARKJEvbeo6FUvosAXJZYIa5SGFOXpYe/DH4BR2k800j/AF+YUfMy3W+7Tsnyw5Opi9Za5Zd1yeGFYQ5ygcrQA5W4PpHleP/5vhPEC8mGK0+bADqqheueHo+RqEea1lV6o8AOafKLD312T8cgGLVuXTpCSbnyVom9UE3LCCuViKBX73vnNOVogo/sQQ2eAuTRDQnO8sJVrVd53KP0FtoaLul7V4lT4bi8ePm+meU3y8hh8Ik+jO/cTkPnrNTWedUH/mm0m+NMKdfY/wGct50NOGNjUjS6XBj+TTyNnpCCjtKCmnTIYj1/7JaDMHQADh4PdGGrRIiod089cgQRVBRb+LqMbnyIbwAl8yoTtuflK/3xhLZoEy5QVaL12JYHmZ6YZcmXOnu74r1xapXOYlUaF7lm0QSH3qeTa6JrmQiqT1VuOiTEaElEoO3MTYKzaVGVAo7znwtPlThT8qLEaGCUJPFZxD4L4jiYfqg0gEfUipKM2YTPSKJXzUaAdOOqZDttDqqLxlMaK1Xy3A7fbTxMveycM/zOK4sWBGnSAdA4UU8IyizfI+TGVoge4zzKHsKgTPW+6XxSlT940xa4Fla+fHmzrXxR63oI41q8suiHF0SP17FBMk10XfceeeiL+OsRBuur9IjF2obAAhlpxfHdE0zSI4chGTxEOKn0h9Ak79XFYB/pp8mEr32YSOimzPI9woWSx5DtURoXuVtC1DIkYoWLuCiB/1HLZzqaRSQx5l0l2ra8MrlLhYZ+ZJJpovtyPVK9sSaST9ljWj1KGCmFyjFaTRN0LgMqkzwYQXUQHyadaFLgnoWaK3pN0GjfRMKOkhnAyQB8y9m4/mxaU+XKmDs4BAnIu87hSk4r6wrx+DthnlEVwtnX6c1HOvy+PDjHTEKP2gVRZJo4DQCfzYKoQk9YtkdpGyLWyhTxyn1JVNLZnGz5CEpPE0hBbqCNUz2HXObjukODhumaWNBRC5BBoETkMQoqqFFh14nokBZRwnrCypNhZmnY1cJ4ZPAQHxRJN7Tf5qHUrMo5Zz49qjwTpwNwvmTujgTRstLRxLLZ63T7jehsRLwWJtA07tE3Iok9h7hfOdsD8E5iIdsWAMBn1LGZIUkBcTHFRaakrzN7bUncLOE+KhHAlgZITvKk+0+YkqQVuT2H07Dj3N9VAO5X9p3sAIA4tyNs5W1MD+BplTmO4+qKVdegsGuMbNWAkZ2ZC2djHMJYvhyruYALKzfNewRgByEbFVlwbMtBVSv3ecp46+uMQrZJAOBEAD5sDsFsSQRA1IjG7OC0hcqS1mHeSHMxaOJduoyFkG3/EgN1to3MjWndrV+zjIxfsDqRQiiQi1oW6+bz2Tp0Jxy2iDipi90lPCVd3943sdSxEedaB6OQbRIAuFFyweBIrxFxjhe8PTqwl8i65H+a35P6aHQ807yuixOhcZOTDzmMenxxZsad7jgLI1xoyJycnSFKbeRtTOvatnz2AtV3oGtc2DUuFCOM0V57tcdR5dWpIGJUPnWoRnWLDVquia5kKAOn8fzpHgzpvwFQYRSybQJ31uATTpxNxmjylnYiX6HuH5pMuJci4/U0PmsnFW1KqkCTnssQBCIRbWd2lAnNTIJ62srbmJ6gYQA+jwyhMjZC4Ng/QPiyVcaJl2K3l+Z5CoVrEOnh49YXNvWb0nLYUYkmdlMe7z555Pa4AcPa9UYBx0kA4B6VYZ5H3U+LDEv0CWMNCTYghJOeOtPTyBWzSrSP6RaVnpBsj9xVTqWoGGL2CoIgAqhjHFlHypPxiO3l7oWerZsetyixd2qQDH0L9IlwoWgjNMJ3JIWZXmzKZjnStOMZFHXlEJJ6T/cSDJm9IiefwuNXAPaNJNy4idyvBvgWROzqYYtFYp7UxrIhukaarp3RPNfPHSXuz1Qu73MTTElE4rOX8EdrMHsyQX+0wWnMKDJ7q8xXGPaOK2erfO7nHnwMcOjRBfjQ+SNN79zoktPeKIJiGuKLGVMiMblkIM52fLp6GQuTEjFe7pdWAk2amJoHkPNI0U7FoYhj6k0dJzrBm2GN5Pas3MqIcFW+tGlWYS/gj8gUGvqIC14oQuLUMtPaXIBT2YTEPWgJDqnbISpIeZkPopyQecnneGsSNso6uy6UQNcDTNe4L3EMooHxy4wB9vYdpghVQe6HXXwLRkOj9DsZGzKF3U5rlweNQriYYNuIteKOZITgM0CRX+Z5wn2X7qPKY6c4d7/xwU8dhRE3tb3DXcvw80d+9HVYzu33aOAcsv3vtjPOvExPf5T7GoUs2SkEHJcJAAz2aZ/5HhUBS8QoMWCbaDN+kMW3K6driiGG+FH3u09EUzO9alXmE0of7ufuV234dR9u1OmjvELiaixiPgCHSwV6Wd3PHvkUkiQiV+05u10P8YRWl0d3ePQpJK1ZVl4hMTQH4EifNug/jbBDj9oTgs7zComnkKOkQnTm7yChh13PKySeQo6WCpHgiDChh93LKyQlheSHrBiCTCsLV8MS6WFjEwvrITKwlGultPjercuhO1QdtvjFnDBBR72nQbQX79aCTKtx7mIzq5Mk+56oyuIeXYK6p8Xzbl2O+y3erOzS2opQs7Vrg91akGk1zv3KdFYhjOtQn/Q45/SpSJ9NrG9+pNXIXakcHQD8tBgf8lIV93TuZyq4B+D+u5JcdhivrmHSh4ZO8h6hN1IDM6rbeMEdJr06qti1EGeHLe6yYPP1ArV3yK383ELtd6Kuo7buEsUycjmrDfeE22+ogo5yTlezDJmjE2qXEMLOxqSMWyGIzgaBwo8Myy82uIvOi3e2tu4S/GTiH2+RvYRxjFGAc4xBlx8nc8uy/87HLiGtemIy49ceJJXCAE2C2HRDFtEs3K9RxYgp+fsD2Pl85PUky1Sq4cd/XdevIlc4cSfcaJM7YxOORIwu9+zSrDW8fIREHpIKU9/2QjIv4WsA+Pfu8MQc7cidjw78tssx1fYzjg9AINo5QC/8ptFDXNekyky+sG0SyOwVeUrmo/IEN5uIq3B+s/GEvOzqQQIuHOnVTK8ZAYAf8yA4j8DdToyeIJSoHtjIV5GXQF4CqUrg/33xu64It6r5AAAAAElFTkSuQmCC;movable=1;shadow=0;comic=0;resizable=1;rotatable=1;deletable=1;editable=1;locked=0;connectable=1;" parent="nNS9kz_4-D0pXz0YQZKq-44" vertex="1">
          <mxGeometry width="50" height="50" as="geometry" />
        </mxCell>
        <mxCell id="nNS9kz_4-D0pXz0YQZKq-48" style="edgeStyle=orthogonalEdgeStyle;rounded=0;orthogonalLoop=1;jettySize=auto;html=1;entryX=0;entryY=0.5;entryDx=0;entryDy=0;flowAnimation=1;" parent="1" source="nNS9kz_4-D0pXz0YQZKq-3" target="nNS9kz_4-D0pXz0YQZKq-23" edge="1">
          <mxGeometry relative="1" as="geometry">
            <mxPoint x="568" y="1180" as="targetPoint" />
            <Array as="points">
              <mxPoint x="776" y="952" />
              <mxPoint x="1028" y="952" />
              <mxPoint x="1028" y="1133" />
            </Array>
          </mxGeometry>
        </mxCell>
        <mxCell id="nNS9kz_4-D0pXz0YQZKq-49" value="" style="group" parent="1" vertex="1" connectable="0">
          <mxGeometry x="1117" y="1044" width="349" height="151" as="geometry" />
        </mxCell>
        <mxCell id="nNS9kz_4-D0pXz0YQZKq-23" value="" style="group;rotation=0;movable=1;resizable=1;rotatable=1;deletable=1;editable=1;locked=0;connectable=1;fillColor=default;" parent="nNS9kz_4-D0pXz0YQZKq-49" vertex="1" connectable="0">
          <mxGeometry x="18" y="26.5" width="331" height="124.5" as="geometry" />
        </mxCell>
        <mxCell id="nNS9kz_4-D0pXz0YQZKq-21" value="" style="shape=cylinder3;whiteSpace=wrap;html=1;boundedLbl=1;backgroundOutline=1;size=15;movable=0;shadow=0;comic=0;resizable=0;rotatable=0;deletable=0;editable=0;locked=1;connectable=0;rotation=90;" parent="nNS9kz_4-D0pXz0YQZKq-23" vertex="1">
          <mxGeometry x="104" y="-103" width="124.5" height="331" as="geometry" />
        </mxCell>
        <mxCell id="nNS9kz_4-D0pXz0YQZKq-22" value="&lt;font style=&quot;font-size: 32px;&quot;&gt;Message Broker&lt;/font&gt;" style="text;html=1;align=center;verticalAlign=middle;whiteSpace=wrap;rounded=0;fontSize=36;rotation=0;movable=1;resizable=1;rotatable=1;deletable=1;editable=1;locked=0;connectable=1;" parent="nNS9kz_4-D0pXz0YQZKq-23" vertex="1">
          <mxGeometry x="33" y="50" width="241" height="30" as="geometry" />
        </mxCell>
        <mxCell id="nNS9kz_4-D0pXz0YQZKq-35" value="" style="shape=image;verticalLabelPosition=bottom;labelBackgroundColor=default;verticalAlign=top;aspect=fixed;imageAspect=0;image=https://static-00.iconduck.com/assets.00/rabbitmq-icon-121x128-hob9mjwj.png;" parent="nNS9kz_4-D0pXz0YQZKq-49" vertex="1">
          <mxGeometry width="59.71320682836272" height="63.16504297994269" as="geometry" />
        </mxCell>
        <mxCell id="4hUY6v-3C8hGVdZ1hiM1-2" value="" style="group" parent="1" vertex="1" connectable="0">
          <mxGeometry x="1799" y="873" width="120" height="115" as="geometry" />
        </mxCell>
        <mxCell id="4hUY6v-3C8hGVdZ1hiM1-3" value="" style="rounded=1;whiteSpace=wrap;html=1;fillColor=#dae8fc;strokeColor=#6c8ebf;movable=1;shadow=0;comic=0;resizable=1;rotatable=1;deletable=1;editable=1;locked=0;connectable=1;" parent="4hUY6v-3C8hGVdZ1hiM1-2" vertex="1">
          <mxGeometry x="20" y="15" width="100" height="100" as="geometry" />
        </mxCell>
        <mxCell id="4hUY6v-3C8hGVdZ1hiM1-4" value="" style="shape=cylinder3;whiteSpace=wrap;html=1;boundedLbl=1;backgroundOutline=1;size=15;movable=1;shadow=0;comic=0;resizable=1;rotatable=1;deletable=1;editable=1;locked=0;connectable=1;" parent="4hUY6v-3C8hGVdZ1hiM1-2" vertex="1">
          <mxGeometry x="45" y="35" width="50" height="60" as="geometry" />
        </mxCell>
        <mxCell id="4hUY6v-3C8hGVdZ1hiM1-5" value="" style="shape=image;verticalLabelPosition=bottom;labelBackgroundColor=default;verticalAlign=top;aspect=fixed;imageAspect=0;image=data:image/png,iVBORw0KGgoAAAANSUhEUgAAAGQAAABkCAYAAABw4pVUAAAAAXNSR0IArs4c6QAAEiBJREFUeAHtXQeUFtUVVmPv5Rh7iRo1x2jsJzFRY0+MsURTTDSmaqyxxQYqUlRUVBBRAWlBIoiNoiB1Wcqy9LK0hYVll6WXpcMufPm/Yebnzf3fzJs3M7sU/3vOf2b+mVfuu3fem/fu/e6bPfbIU14CeQnkJZCXQF4CeQnkJZCXwE4sAQBnALgLQPPMeVcA/QAMANAbQGcAbwFoAOA2AKfuqKYA2A/ABQD+BKApgHYAerq8kt++Lv9sx4MALgdw0I7i16peAKcBaAagDPa0AkB/AE8COMeq4oiJAewJ4CwAdwNoDWAMgM32rKIWwEQATQBcGLH6+kvGJzyjjC6Aw2iM9mmzlLu96KKwlmTSHAbgagAPAWgBoC2AHm4vfNPthY0BfA1gubam5BdLM2U/DODgMF7r5Z4riLXJ2xRawjQATwE4ho0CcASAxwAUZAReE5qzfm+udHtN/Q9pAPYH0C2svUvXbsZXM5bhvVGVePbr2bjv0+l44PMZePGbMrw7sgKDZ6/AsnVWIwYTDwawLqxe23tbtm5F6bL1+HzqErwzogIvDSjDv3vNxJN9SvHMV7PxekE5ekxajLGVq7G5dmuU4ucBuLleeoT7hB7gjvc5zK3eWIvWIypwddvx2OfZwdjr6UHG38kvD8dtXSbj/aJKzF2xIafMur7AB+fx3rNwQIMhRl4PajgEP39/HF4ZPA9ly9ebWOPk4JA6VYz7YuwuOdm6FU5POPqlYcZGmZR0TosiNB5YhtnLjA122Fi7qRaj51ejy7iFeHNYOZoPnef82o5egM+mLMHkhWsiPdms75q24yPz/51nBuHyNmPxZclSsP0BNJMTiTpTSubF3VBWvGpDDW7sMDFyQ0wK8e4f/kJBoFI21GxBu9ELcF27Cdj/OfOTvd9zg3HZu2Oc4WjCgjWyCdn/FOxbhfOxb8Te7fF6/tuj0X9m4JxhGYArU1cKgHPlNHHl+hpc2HJ06so45PmhKJzLd6Sfardsdd4/xzYpTFTnpe8Uo9PYKtRs0T/ag0pXIE5v/0uPaViufy+yu1+dmlLcoWqUKh425qoPxiUSjPeEqUc+zXzhS5q/agN+0npMqvWd+dpI9Jy8WFbl/J+zfD3OfbPIuj6+EwN6IWejl6aiFAA3Sa5f+GaONbOq4IPO+cKUNK5yNZL2iqD6eP2WzpOwaM0mWS0Wr9mEs18fZd3OQ58fit7TluaUB6AKwEmJlQKgUC191tJ1kcbuMCHo7vGlymmoSnzajmpUYC0UXflh105sNhzD561Sq3bO2TO/9+oI6/o5y+RUWkMDEykEwNmy0Ls/LrFmMEwYvHdww6GoWLXRVxWf2lNfsReGqa6g+5z66oYwPoBx3ikHNhiifRdmTC+3xlYKgEaqlBZUbwTH+aBGxb3+fP85ajXO+e3/nZx6PSb++GR/onmv9Jm2FJzqmvLL++zdmjVLnyQKGa9KitNCWWnS/8c1KQQXlSr1nb4s9Xqi8smpNGdakv7TtzQWT3/4aKosiiYfe9sXgEOl0fDK99OfWdE8oRKVw9lKVAHWRTo+2SWL/WY6mk4ublVszReHLvnAZcxAV1j3EgA3qILaWLMlkonBRkA0R0ibVoth5daNtqkzalpaDbgIVWlMxWrs/Yz9kD2sLGdd9UAchTyuMjNi3qrUBfWPntPVKpzFWn2+yE3KoYFR0l97TLOWw4fFC2QxL8VRCB05Weo4psqaEVOD5VTz44mLUq/DxEPYfb7ki+ZXZ2XAk6rVm8BhKCyfvMdeL6h1HIXQhZklzoRkRUn+n9C0MGfdURd2sSQ8Mi+NiJLu/2yGlSyaDpori4ilkJFqKf/sOd2KCZMgHvxihlo8aBuLYiw0lVsX9zntVYnW4aguBvKj6SGt4vSQEpWJ3380JVWFyEZ2Hb8w1fLTVAztaJKubRfdXP9BUaXM3jSOQnz97Fcpmtm5yJKWUVpL0xRi2mXRa6hS++IFkfntVeLvYQAejaMQ3xTj150mRWbAJIwftihS2+ac0/pKXwSfvOf6zQYnEVw1d5uwCK2GV+DP3UtwfNNkpncTX/L+j1uPcVzPbUZW5vhnaOqR6YP+S2UCuDOOQnyD/G+6pGfKoD1MpU21W9B5bFVOr1HT8JyLs/9NXISTmtXdwpHWWuIAZiwxu++PaWz2knLdsmaT3xKRwXxdEkchE1SB8AkNegJsr2tmHWpVxnNOAOjftq3XlP5nbcbmGDnDmKHZx1TmD97wuZK84g6Po5BeXm4eOYyYKo96X2dVVeuKcr5ucy3Oi+FECuKRZqH1m/0rcxMfR7xodg1obFlV1spghgwGqqXKECE9QY2xvT6yPNf34NVFbyStAi2Hz3eGjmaD5jpgAp2w6C+JY4WV/FKwldV+87/Hz/Ql6xwfvmbqGmmBSOCFoN5xFfKAWhBxVrIhcf/PXJo7PnNu/6/PZuCwF4Zq6+HwMLA0F0xwa+fkkw3ixSTRr3+JYkyUU1/6+KPYtfrNJM7BR43iKoQwzSwRNxVXATIfzQ8qEcajWxTSREF719uF88GeQh+JzNt9UnJzC51QKi1ZuxlNBs518GKNBpTh+6+NxM2dJqlJQN+QbJf8zzZpLL03xFXI8SoH9K4SniMrjfNf9pCgGRxNFCYi2C0OD14emnBMxDUTEY0qFVdUG+slaFAQ0YAHxFIIM2UWML7B/qfvjjUy4TU07MjGqBRkQT3r9VGg2d9EFGpYfWH3OLMyEfFncmZIS0NYubz3Wu77o19sZbgK8c3Z7v00HXuWhPrw6Qtq3F0fl/jQhwQeyGGAoLmg/KbrBFeoJHAWzhqCwxUnGSpFWalPWeR3cgF4PKlC3lOZ4IrZ1MAo9yUio6HBkkxAHsf0p/qW4shGBc4sTOXr0V6zYvPFqbNKnM2x1xDqRND1KS9vA1rQNaASIUthbaXXU0PJ4l8y5v971ULTclJxVa4Su3ZY4+Q9mT/K0yrL8P7TXStJ50KWvfqx3uEPgeb9Rwvjnkl7yMUqs3Rp6mZDXuOiHhmSoBJtRVHzMl2Dfn6USlJQBGdVKt3ZbWoOP3wYVTK5I6TzDUCbRMpw3yGMw/NxS2ysjfB0aakAlaggXbqga3//hHE824mND0ob5bqE/uhcARKJEvbeo6FUvosAXJZYIa5SGFOXpYe/DH4BR2k800j/AF+YUfMy3W+7Tsnyw5Opi9Za5Zd1yeGFYQ5ygcrQA5W4PpHleP/5vhPEC8mGK0+bADqqheueHo+RqEea1lV6o8AOafKLD312T8cgGLVuXTpCSbnyVom9UE3LCCuViKBX73vnNOVogo/sQQ2eAuTRDQnO8sJVrVd53KP0FtoaLul7V4lT4bi8ePm+meU3y8hh8Ik+jO/cTkPnrNTWedUH/mm0m+NMKdfY/wGct50NOGNjUjS6XBj+TTyNnpCCjtKCmnTIYj1/7JaDMHQADh4PdGGrRIiod089cgQRVBRb+LqMbnyIbwAl8yoTtuflK/3xhLZoEy5QVaL12JYHmZ6YZcmXOnu74r1xapXOYlUaF7lm0QSH3qeTa6JrmQiqT1VuOiTEaElEoO3MTYKzaVGVAo7znwtPlThT8qLEaGCUJPFZxD4L4jiYfqg0gEfUipKM2YTPSKJXzUaAdOOqZDttDqqLxlMaK1Xy3A7fbTxMveycM/zOK4sWBGnSAdA4UU8IyizfI+TGVoge4zzKHsKgTPW+6XxSlT940xa4Fla+fHmzrXxR63oI41q8suiHF0SP17FBMk10XfceeeiL+OsRBuur9IjF2obAAhlpxfHdE0zSI4chGTxEOKn0h9Ak79XFYB/pp8mEr32YSOimzPI9woWSx5DtURoXuVtC1DIkYoWLuCiB/1HLZzqaRSQx5l0l2ra8MrlLhYZ+ZJJpovtyPVK9sSaST9ljWj1KGCmFyjFaTRN0LgMqkzwYQXUQHyadaFLgnoWaK3pN0GjfRMKOkhnAyQB8y9m4/mxaU+XKmDs4BAnIu87hSk4r6wrx+DthnlEVwtnX6c1HOvy+PDjHTEKP2gVRZJo4DQCfzYKoQk9YtkdpGyLWyhTxyn1JVNLZnGz5CEpPE0hBbqCNUz2HXObjukODhumaWNBRC5BBoETkMQoqqFFh14nokBZRwnrCypNhZmnY1cJ4ZPAQHxRJN7Tf5qHUrMo5Zz49qjwTpwNwvmTujgTRstLRxLLZ63T7jehsRLwWJtA07tE3Iok9h7hfOdsD8E5iIdsWAMBn1LGZIUkBcTHFRaakrzN7bUncLOE+KhHAlgZITvKk+0+YkqQVuT2H07Dj3N9VAO5X9p3sAIA4tyNs5W1MD+BplTmO4+qKVdegsGuMbNWAkZ2ZC2djHMJYvhyruYALKzfNewRgByEbFVlwbMtBVSv3ecp46+uMQrZJAOBEAD5sDsFsSQRA1IjG7OC0hcqS1mHeSHMxaOJduoyFkG3/EgN1to3MjWndrV+zjIxfsDqRQiiQi1oW6+bz2Tp0Jxy2iDipi90lPCVd3943sdSxEedaB6OQbRIAuFFyweBIrxFxjhe8PTqwl8i65H+a35P6aHQ807yuixOhcZOTDzmMenxxZsad7jgLI1xoyJycnSFKbeRtTOvatnz2AtV3oGtc2DUuFCOM0V57tcdR5dWpIGJUPnWoRnWLDVquia5kKAOn8fzpHgzpvwFQYRSybQJ31uATTpxNxmjylnYiX6HuH5pMuJci4/U0PmsnFW1KqkCTnssQBCIRbWd2lAnNTIJ62srbmJ6gYQA+jwyhMjZC4Ng/QPiyVcaJl2K3l+Z5CoVrEOnh49YXNvWb0nLYUYkmdlMe7z555Pa4AcPa9UYBx0kA4B6VYZ5H3U+LDEv0CWMNCTYghJOeOtPTyBWzSrSP6RaVnpBsj9xVTqWoGGL2CoIgAqhjHFlHypPxiO3l7oWerZsetyixd2qQDH0L9IlwoWgjNMJ3JIWZXmzKZjnStOMZFHXlEJJ6T/cSDJm9IiefwuNXAPaNJNy4idyvBvgWROzqYYtFYp7UxrIhukaarp3RPNfPHSXuz1Qu73MTTElE4rOX8EdrMHsyQX+0wWnMKDJ7q8xXGPaOK2erfO7nHnwMcOjRBfjQ+SNN79zoktPeKIJiGuKLGVMiMblkIM52fLp6GQuTEjFe7pdWAk2amJoHkPNI0U7FoYhj6k0dJzrBm2GN5Pas3MqIcFW+tGlWYS/gj8gUGvqIC14oQuLUMtPaXIBT2YTEPWgJDqnbISpIeZkPopyQecnneGsSNso6uy6UQNcDTNe4L3EMooHxy4wB9vYdpghVQe6HXXwLRkOj9DsZGzKF3U5rlweNQriYYNuIteKOZITgM0CRX+Z5wn2X7qPKY6c4d7/xwU8dhRE3tb3DXcvw80d+9HVYzu33aOAcsv3vtjPOvExPf5T7GoUs2SkEHJcJAAz2aZ/5HhUBS8QoMWCbaDN+kMW3K6driiGG+FH3u09EUzO9alXmE0of7ufuV234dR9u1OmjvELiaixiPgCHSwV6Wd3PHvkUkiQiV+05u10P8YRWl0d3ePQpJK1ZVl4hMTQH4EifNug/jbBDj9oTgs7zComnkKOkQnTm7yChh13PKySeQo6WCpHgiDChh93LKyQlheSHrBiCTCsLV8MS6WFjEwvrITKwlGultPjercuhO1QdtvjFnDBBR72nQbQX79aCTKtx7mIzq5Mk+56oyuIeXYK6p8Xzbl2O+y3erOzS2opQs7Vrg91akGk1zv3KdFYhjOtQn/Q45/SpSJ9NrG9+pNXIXakcHQD8tBgf8lIV93TuZyq4B+D+u5JcdhivrmHSh4ZO8h6hN1IDM6rbeMEdJr06qti1EGeHLe6yYPP1ArV3yK383ELtd6Kuo7buEsUycjmrDfeE22+ogo5yTlezDJmjE2qXEMLOxqSMWyGIzgaBwo8Myy82uIvOi3e2tu4S/GTiH2+RvYRxjFGAc4xBlx8nc8uy/87HLiGtemIy49ceJJXCAE2C2HRDFtEs3K9RxYgp+fsD2Pl85PUky1Sq4cd/XdevIlc4cSfcaJM7YxOORIwu9+zSrDW8fIREHpIKU9/2QjIv4WsA+Pfu8MQc7cidjw78tssx1fYzjg9AINo5QC/8ptFDXNekyky+sG0SyOwVeUrmo/IEN5uIq3B+s/GEvOzqQQIuHOnVTK8ZAYAf8yA4j8DdToyeIJSoHtjIV5GXQF4CqUrg/33xu64It6r5AAAAAElFTkSuQmCC;movable=1;shadow=0;comic=0;resizable=1;rotatable=1;deletable=1;editable=1;locked=0;connectable=1;" parent="4hUY6v-3C8hGVdZ1hiM1-2" vertex="1">
          <mxGeometry width="50" height="50" as="geometry" />
        </mxCell>
        <mxCell id="4hUY6v-3C8hGVdZ1hiM1-6" style="edgeStyle=orthogonalEdgeStyle;rounded=0;orthogonalLoop=1;jettySize=auto;html=1;entryX=0.5;entryY=0;entryDx=0;entryDy=0;flowAnimation=1;" parent="1" source="nNS9kz_4-D0pXz0YQZKq-29" target="4hUY6v-3C8hGVdZ1hiM1-3" edge="1">
          <mxGeometry relative="1" as="geometry" />
        </mxCell>
      </root>
    </mxGraphModel>
  </diagram>
</mxfile>
